<?xml version="1.0" encoding="utf-8"?>
<!-- Generator: Adobe Illustrator 21.0.2, SVG Export Plug-In . SVG Version: 6.00 Build 0)  -->
<svg version="1.1" xmlns="http://www.w3.org/2000/svg" xmlns:xlink="http://www.w3.org/1999/xlink" x="0px" y="0px"
	 viewBox="0 0 417.7 461.1" style="enable-background:new 0 0 417.7 461.1;" xml:space="preserve">
<style type="text/css">
	.st0{fill:#BFBFBF;}
	.st1{fill:#BF0411;}
	.st2{fill:none;stroke:#000000;stroke-width:0.5;stroke-miterlimit:10;}
	.st3{fill:#CE6B00;}
	.st4{fill:none;stroke:#BF0411;stroke-width:0.5;stroke-miterlimit:10;}
	.st5{fill:#BF0411;stroke:#000000;stroke-width:0.5;stroke-miterlimit:10;}
	.st6{fill:url(#XMLID_7_);}
	.st7{fill:url(#XMLID_8_);}
	.st8{fill:url(#XMLID_9_);}
	.st9{fill:url(#XMLID_10_);stroke:#000000;stroke-width:0.5;stroke-miterlimit:10;}
	.st10{fill:#333333;}
	.st11{fill:#D9D9D9;}
	.st12{fill:url(#XMLID_11_);}
	.st13{fill:url(#XMLID_12_);}
	.st14{fill:url(#XMLID_13_);}
	.st15{fill:url(#XMLID_14_);}
	.st16{fill:url(#XMLID_15_);}
	.st17{fill:url(#XMLID_16_);}
	.st18{fill:url(#XMLID_17_);}
	.st19{fill:url(#XMLID_18_);}
	.st20{fill:url(#XMLID_19_);}
	.st21{fill:url(#XMLID_20_);}
	.st22{fill:url(#XMLID_21_);}
	.st23{fill:url(#XMLID_22_);}
	.st24{fill:url(#XMLID_23_);}
	.st25{fill:url(#XMLID_24_);}
	.st26{fill:url(#XMLID_25_);}
	.st27{fill:url(#XMLID_26_);}
	.st28{fill:url(#XMLID_27_);stroke:#000000;stroke-width:0.5;stroke-miterlimit:10;}
	.st29{fill:#1A75B8;stroke:#333333;stroke-miterlimit:10;}
	.st30{fill:#1A1A1A;}
	.st31{fill:url(#XMLID_28_);}
	.st32{fill:#0066B0;stroke:#333333;stroke-miterlimit:10;}
	.st33{fill:url(#XMLID_29_);}
	.st34{fill:url(#XMLID_30_);}
	.st35{fill:#0066B0;}
	.st36{fill:url(#XMLID_31_);}
	.st37{fill:url(#XMLID_32_);}
	.st38{fill:url(#XMLID_33_);}
	.st39{fill:url(#XMLID_34_);}
	.st40{fill:#4D94C8;stroke:#333333;stroke-miterlimit:10;}
	.st41{fill:#595959;}
	.st42{fill:url(#XMLID_35_);}
	.st43{fill:#3384C0;}
	.st44{fill:#FEF673;stroke:#000000;stroke-width:0.25;stroke-miterlimit:10;}
	.st45{fill:#78AD2C;stroke:#000000;stroke-width:0.25;stroke-miterlimit:10;}
	.st46{fill:none;stroke:#000000;stroke-width:0.25;stroke-miterlimit:10;}
	.st47{fill:#333333;stroke:#000000;stroke-miterlimit:10;}
	.st48{fill:url(#XMLID_36_);stroke:#000000;stroke-miterlimit:10;}
	.st49{fill:#9AC261;stroke:#000000;stroke-width:0.25;stroke-miterlimit:10;}
	.st50{fill:#86B541;stroke:#000000;stroke-width:0.25;stroke-miterlimit:10;}
	.st51{stroke:#000000;stroke-miterlimit:10;}
	.st52{fill:url(#XMLID_37_);stroke:#000000;stroke-miterlimit:10;}
	.st53{fill:#FEF566;stroke:#000000;stroke-width:0.25;stroke-miterlimit:10;}
	.st54{fill:url(#XMLID_38_);stroke:#000000;stroke-miterlimit:10;}
	.st55{fill:#BF0411;stroke:#000000;stroke-miterlimit:10;}
	.st56{fill:url(#XMLID_39_);stroke:#000000;stroke-miterlimit:10;}
	.st57{fill:url(#XMLID_40_);stroke:#000000;stroke-miterlimit:10;}
	.st58{fill:url(#XMLID_41_);stroke:#000000;stroke-miterlimit:10;}
	.st59{fill:#78AD2C;stroke:#000000;stroke-width:0.25;stroke-linejoin:bevel;stroke-miterlimit:10;}
	.st60{fill:url(#XMLID_42_);stroke:#000000;stroke-miterlimit:10;}
	.st61{fill:url(#XMLID_43_);}
	.st62{fill:url(#XMLID_44_);stroke:#000000;stroke-miterlimit:10;}
	.st63{fill:#9AC261;stroke:#000000;stroke-width:0.25;stroke-linejoin:bevel;stroke-miterlimit:10;}
	.st64{fill:#EE8800;}
	.st65{fill:#EE8800;stroke:#000000;stroke-width:0.5;stroke-miterlimit:10;}
	.st66{fill:url(#XMLID_45_);}
	.st67{fill:url(#XMLID_46_);}
	.st68{fill:url(#XMLID_47_);}
	.st69{fill:url(#XMLID_48_);stroke:#000000;stroke-width:0.5;stroke-miterlimit:10;}
	.st70{fill:#EE8800;stroke:#FFFFFF;stroke-width:0.5;stroke-miterlimit:10;}
	.st71{fill:url(#XMLID_49_);}
	.st72{fill:url(#XMLID_50_);}
	.st73{fill:url(#XMLID_51_);}
	.st74{fill:url(#XMLID_52_);}
	.st75{fill:url(#XMLID_53_);}
	.st76{fill:url(#XMLID_54_);}
	.st77{fill:url(#XMLID_55_);}
	.st78{fill:url(#XMLID_56_);}
	.st79{fill:url(#XMLID_57_);}
	.st80{fill:url(#XMLID_58_);}
	.st81{fill:url(#XMLID_59_);}
	.st82{fill:url(#XMLID_60_);}
	.st83{fill:url(#XMLID_61_);}
	.st84{fill:url(#XMLID_62_);}
	.st85{fill:url(#XMLID_63_);}
	.st86{fill:url(#XMLID_64_);}
	.st87{fill:url(#XMLID_65_);stroke:#000000;stroke-width:0.5;stroke-miterlimit:10;}
	.st88{fill:#808080;stroke:#333333;stroke-miterlimit:10;}
	.st89{fill:url(#XMLID_66_);}
	.st90{fill:url(#XMLID_67_);}
	.st91{fill:url(#XMLID_68_);}
	.st92{fill:#666666;}
	.st93{fill:url(#XMLID_69_);}
	.st94{fill:url(#XMLID_70_);}
	.st95{fill:url(#XMLID_71_);}
	.st96{fill:#A6A6A6;}
	.st97{fill:url(#XMLID_80_);}
	.st98{fill:url(#XMLID_82_);}
	.st99{fill:#FEEE00;stroke:#000000;stroke-width:0.25;stroke-miterlimit:10;}
	.st100{fill:url(#XMLID_83_);stroke:#000000;stroke-miterlimit:10;}
	.st101{fill:#FEF34D;stroke:#000000;stroke-width:0.25;stroke-miterlimit:10;}
	.st102{fill:url(#XMLID_88_);stroke:#000000;stroke-miterlimit:10;}
	.st103{fill:url(#XMLID_89_);stroke:#000000;stroke-miterlimit:10;}
	.st104{fill:url(#XMLID_90_);stroke:#000000;stroke-miterlimit:10;}
	.st105{fill:url(#XMLID_92_);stroke:#000000;stroke-miterlimit:10;}
	.st106{fill:url(#XMLID_93_);stroke:#000000;stroke-miterlimit:10;}
	.st107{fill:#FEEE00;stroke:#000000;stroke-width:0.25;stroke-linejoin:bevel;stroke-miterlimit:10;}
	.st108{fill:url(#XMLID_99_);stroke:#000000;stroke-miterlimit:10;}
	.st109{fill:#FEF01A;stroke:#000000;stroke-width:0.25;stroke-miterlimit:10;}
	.st110{fill:url(#XMLID_106_);}
	.st111{fill:url(#XMLID_112_);stroke:#000000;stroke-miterlimit:10;}
	.st112{fill:#FEF34D;stroke:#000000;stroke-width:0.25;stroke-linejoin:bevel;stroke-miterlimit:10;}
</style>
<g id="Background">
</g>
<g id="Objects">
	<g id="XMLID_74_">
		<path id="XMLID_756_" class="st0" d="M277.2,174.8c-1.4-1.3-3.2-2.8-4.9-4.3c-1.1-1-2.2-2-3-2.9c-0.3-0.3-0.5-0.5-0.7-0.8
			c0-2.5-0.1-4.8-0.1-6.9c0-0.3,0-0.7,0-1c-0.2-0.1-0.4-0.2-0.6-0.3c0.2,0.1,0.4,0.2,0.6,0.3c0-1,0-2.1,0-3.3h0.4c0,0,0.4-1,0.4-1.9
			c0-0.9-0.5-1.8-0.5-1.8l-0.3,0c0.1-10.9,0.4-25.6-0.1-30.7c-0.9-9.3-1-9.7-2.9-15.7s-6.8-13.2-17.1-20.9c-8.8-6.5-25.6-8-34.8-8.3
			c0,0,0,0,0,0c-2.5-0.2-4.3-0.1-5.4-0.1c-1,0-2.5-0.1-4.9,0.1c-9,0.3-25.9,1.8-34.9,8.3c-10.4,7.6-15.2,14.8-17.1,20.9
			c-1.9,6-2,6.4-2.9,15.7c-0.5,5.1-0.2,19.8-0.1,30.7l-0.3,0c0,0-0.5,0.9-0.5,1.8c0,0.9,0.4,1.9,0.4,1.9h0.4c0,1.2,0,2.3,0,3.3
			c0,0.3,0,0.7,0,1c0,2.1,0,4.4-0.1,6.9c-0.2,0.2-0.5,0.5-0.7,0.8c-0.8,0.9-1.9,1.9-3,2.9c-1.7,1.5-3.6,3-4.9,4.3
			c-2,1.8-3.4,3.5-3.1,5.8c0,0.2,0.1,0.4,0.2,0.7c0.1,0.3,0.4,0.5,0.7,0.4c3.7-1.2,7.1-2.4,10.7-3.8c-0.3,14.3-0.8,31.3-1,45.4
			c-0.6,0.6-1.2,1.7-1.3,2.7c-0.2,1.4-0.3,2.5-0.2,3.9c0.1,1.6,0.6,3,1.3,4.4c0,2.1,0,4,0,5.8c2.5-0.7,4.8,1.4,7.3,2.4
			c-0.1-16.6-0.1-38.1-0.2-54.8c0.1,11.1,0.1,27.9,0.2,45.5c0,0.7,0,7.5,0,9.5c0,0,0,0,0,0c0,0,0,0,0,0c-0.1,0-0.2-0.1-0.4-0.1
			c-2.3-1.1-4.6-3-6.9-2.3c0,14,0.1,32.1,0.1,47c-0.2,0.5-0.4,1-0.5,1.6c-0.2,1.4-0.3,2.5-0.2,3.9c0.1,1,0.3,2,0.7,3
			c0,4.1,0,7.7,0,10.7c0.7,1.6,1.5,2.8,2.3,3.7c-0.8-0.8-1.5-1.9-2.3-3.3c0.2,3.6,0.2,6.3,0.2,7.8c-0.2,6,0.1,10.7,0.9,19.3
			c0.7,7.8,2.4,16.1,5.6,20.9c0.2,0.3,0.4,0.5,0.5,0.8c0.2,0.2,0.4,0.5,0.5,0.7c0.3,0.3,0.6,0.6,0.9,0.9c0.1,0.1,0.2,0.2,0.3,0.2
			c0.1,0.1,0.2,0.2,0.3,0.2c0.1,0.1,0.1,0.1,0.2,0.2l0,0c1,0.8,2.2,1.6,3.5,2.4c-0.1-0.1-0.2-0.1-0.3-0.2c6.4,3.8,16.4,6.8,26.2,7.7
			c5.3,0.5,15.5,0.8,22.4,1c0,0,0,0,0.1,0c0,0,0.1,0,0.1,0c6.9-0.2,17.6-0.5,22.9-1c9.8-0.9,19.8-3.9,26.2-7.7
			c-0.1,0.1-0.2,0.1-0.3,0.2c1.4-0.8,2.5-1.6,3.5-2.4l0,0c0.1-0.1,0.1-0.1,0.2-0.2c0.1-0.1,0.2-0.2,0.3-0.2c0.1-0.1,0.2-0.2,0.3-0.2
			c0.3-0.3,0.6-0.6,0.9-0.9c0.2-0.2,0.4-0.4,0.5-0.7c0.2-0.2,0.4-0.5,0.5-0.8c3.2-4.8,4.9-13.1,5.6-20.9c0.8-8.6,1-13.3,0.9-19.3
			c0-1.4,0-4.2,0.2-7.8c-0.7,1.4-1.5,2.4-2.3,3.3c0.8-0.9,1.5-2.1,2.3-3.7c0-2.9,0-6.6,0-10.7c0.3-0.9,0.6-1.9,0.7-3
			c0.1-1.4,0-2.5-0.2-3.9c-0.1-0.6-0.2-1.1-0.5-1.6c0-14.7,0-32.8,0.1-46.7l0.1,0c0,0-0.1,0-0.1,0c0-0.1,0-0.1,0-0.2
			c-2.5-0.7-5,1.7-7.3,2.5c0,0,0,0.1,0,0.1c0,0,0,0,0,0c0-1.9,0-8.9,0-9.6c0.1-17.5,0.1-34.3,0.2-45.4c0,16.7-0.1,38.2-0.2,54.8
			c2.5-1,4.8-3.1,7.3-2.4c0-1.8,0-3.7,0-5.8c0.7-1.3,1.2-2.8,1.3-4.4c0.1-1.4,0-2.5-0.2-3.9c-0.1-1.1-0.7-2.1-1.3-2.7
			c-0.3-14.1-0.7-31.1-1-45.4c3.7,1.4,7,2.6,10.7,3.8c0.3,0.1,0.6-0.1,0.7-0.4c0.1-0.2,0.1-0.4,0.2-0.7
			C280.6,178.3,279.1,176.6,277.2,174.8z"/>
		<g id="XMLID_423_">
			<path id="XMLID_532_" class="st1" d="M246,298.6c0.3-6,1.1-19.4,1.1-23.4c0-4.1,0.1-23.9,0.2-46.1c0,0,0,0,0,0c0,1.5,0,5.3,0-0.7
				c2.3-0.8,4.8-3.2,7.3-2.5c-0.1,21.1-0.1,51.8-0.1,66.1C252,296.9,249.4,298.6,246,298.6z"/>
			<path id="XMLID_531_" class="st1" d="M253.2,144.9c0,0.3,0,0.7,0,1c0.1,20,1.5,60.3,1.5,80.1c-2.5-0.7-4.8,1.4-7.3,2.4
				c0.1-29.8,0.2-75.9,0.2-80.5c-0.1-0.7-0.1-2.1-0.2-3.6C249.3,144.4,251.6,144.1,253.2,144.9z"/>
			<path id="XMLID_530_" class="st1" d="M140.3,298.6c-0.3-6-1.1-19.4-1.1-23.4c0-4.1-0.1-23.9-0.2-46.1c0,0,0,0,0,0
				c0,1.5,0,5.3,0-0.7c-2.3-0.8-4.8-3.2-7.3-2.5c0.1,21.1,0.1,51.8,0.1,66.1C134.3,296.9,136.9,298.6,140.3,298.6z"/>
			<path id="XMLID_529_" class="st1" d="M133.1,144.9c0,0.3,0,0.7,0,1c-0.1,20-1.5,60.3-1.5,80.1c2.5-0.7,4.8,1.4,7.3,2.4
				c-0.1-29.8-0.2-75.9-0.2-80.5c0.1-0.7,0.1-2.1,0.2-3.6C137,144.4,134.7,144.1,133.1,144.9z"/>
			<path id="XMLID_528_" d="M246.4,136.9c-0.1-3.2-1-5.9-5-8.9c-4-3-11.4-5-19.5-6.5c-10.3-1.9-27.5-1.7-29-1.7c0,0,0,0-0.1,0
				c-0.1,0-0.1,0-0.1,0c-1.5,0-18.2-0.2-28.5,1.7c-8.1,1.5-15.5,3.5-19.5,6.5c-4,3-4.9,5.7-5,8.9c-0.1,4,9.8,45.8,9.8,45.8
				s7.7-2.9,19.3-4c9.2-0.8,22.9-1,23.8-1c-0.1,0-0.2,0,0.1,0c0.2,0,0.1,0,0,0c0.9,0,15.2,0.2,24.4,1c11.6,1.1,19.3,4,19.3,4
				S246.5,140.9,246.4,136.9z"/>
			<path id="XMLID_527_" class="st1" d="M239.4,181.9c0-2.1-0.9-4.3-1.4-5.1c-0.7,2.6-1.4,5.8-1.4,5.8s-7.7-2.9-19.3-4
				c-8.7-0.8-22.3-1-24.4-1c0.3,0,1,0,0,0c-1,0-0.3,0,0,0c-2.1,0-15.2,0.2-23.9,1c-11.6,1.1-19.3,4-19.3,4s-0.7-3.3-1.2-6
				c-0.6,0.8-1.6,2.9-1.8,4.8c0.5,2,1,4.5,1,6.5c0.9,30.3,3,60.4,1.7,90.7c-0.1,0.7-0.4,1.3-0.8,2c0.3,6.6,0.8,14.8,1.5,20.2
				c0.4,2.8,0.6,6.3,0.9,9.8l41.9-0.6l42.4,0.6c0.3-3.5,0.5-7,0.9-9.8c0.7-5.5,1.3-13.7,1.5-20.2c-0.4-0.7-0.7-1.3-0.8-2
				c-1.3-30.3,0.9-60.4,1.7-90.7C238.6,186,238.9,184,239.4,181.9z"/>
			<path id="XMLID_524_" class="st1" d="M253.2,107.1c-0.9-9.3-1-9.7-2.9-15.7c-1.9-6-6.8-13.2-17.1-20.9
				C222,62.3,198,62.1,193,62.1c-5,0-28.7,0.2-39.8,8.4C142.8,78.1,138,85.4,136,91.4c-1.9,6-2,6.4-2.9,15.7c-0.6,6.4,0,27.6,0,37.8
				c1.6-0.9,3.8-0.5,5.7-0.6c0-1.9,0-3.7,0-4.3c0-4,1.9-9,5.9-12c4-3,11.4-5,19.5-6.5c8.7-1.6,28.6-1.7,28.6-1.7s20.4,0.1,29.1,1.7
				c8.1,1.5,15.5,3.5,19.5,6.5c4,3,5.9,8,5.9,12c0,0.5,0,2.4,0,4.3c1.9,0.1,4.1-0.3,5.7,0.6C253.2,134.7,253.8,113.5,253.2,107.1z
				 M193,62.1C192.9,62.1,193,62.1,193,62.1C193,62.1,193.1,62.1,193,62.1z"/>
			<path id="XMLID_523_" class="st1" d="M144.6,331.4c-2.1-5.9-2.9-14.1-3.5-18.6c-0.4-3.4-0.2-5.3-0.8-14.2c-2.8,0-5.7-1-8.5-6.1
				c0.2,3.6,0.2,6.3,0.2,7.8c-0.2,6,0.1,10.7,0.9,19.3c0.7,8.2,2.6,17,6.1,21.6c0.2,0.2,0.4,0.5,0.5,0.7c0.4,0.5,0.9,0.9,1.4,1.4
				c1.2-3.9,2.5-7.7,3.8-11.6C144.6,331.6,144.6,331.5,144.6,331.4z"/>
			<path id="XMLID_522_" d="M156.5,319.2c12.3,3.3,23.9,2.8,36.4,2.3v-11.7l-41.8,0.6C151.2,314.3,152.4,318.1,156.5,319.2z"/>
			<path id="XMLID_519_" class="st2" d="M138.9,144.3c-1.9,0.1-4.1-0.3-5.7,0.6"/>
			<path id="XMLID_518_" class="st2" d="M131.7,226c2.5-0.7,5,1.6,7.5,2.6"/>
			<path id="XMLID_517_" class="st3" d="M133.1,137.8l-0.3,0c0,0-0.5,0.9-0.5,1.8s0.4,1.9,0.4,1.9h0.4
				C133.1,140.4,133.1,139.2,133.1,137.8z"/>
			<path id="XMLID_516_" class="st4" d="M192.9,177.7C193.1,177.7,192.9,177.7,192.9,177.7C192.9,177.7,193,177.7,192.9,177.7z"/>
			<path id="XMLID_514_" class="st2" d="M131.8,292.1c2.6,5.8,5.6,6.3,8.4,6.5"/>
			<path id="XMLID_511_" class="st4" d="M147.2,231.2c0.1,0,0.1,0,0.2,0C147.3,231.1,147.2,231.1,147.2,231.2
				C147.2,231.1,147.2,231.1,147.2,231.2z"/>
			<path id="XMLID_510_" class="st5" d="M147.3,231.2c0.5,21.5,1.1,39.3,1.1,42.6c0,1.8,0.1,4.3,0.2,7c0.4-0.7,0.7-1.3,0.8-2
				c0.7-15.7,0.4-31.4-0.1-47C148.7,231.6,148,231.5,147.3,231.2z"/>
			<path id="XMLID_509_" class="st5" d="M147.7,188c0-2-0.5-4.4-1-6.5c-0.1,1.1-0.3,2.5-0.3,3.8c0,2.3,0.4,27.7,0.8,45.7
				c0.1,0,0.1,0,0.2,0.1c0,0,0,0,0,0c0,0,0,0,0,0c0.7,0.3,1.3,0.5,2,0.5C148.8,217.2,148.1,202.6,147.7,188z"/>
			<path id="XMLID_505_" class="st4" d="M192.9,346.7L192.9,346.7C193,346.7,193.1,346.7,192.9,346.7z"/>
			<path id="XMLID_504_" d="M144.6,331.7c-1.3,3.9-2.6,7.7-3.8,11.6c0.1,0.1,0.1,0.1,0.2,0.2l3.7-11.5
				C144.7,331.9,144.7,331.8,144.6,331.7z"/>
			<path id="XMLID_503_" class="st4" d="M192.9,346.7L192.9,346.7C192.5,346.7,192.7,346.7,192.9,346.7z"/>
			<g id="XMLID_499_">
				<path id="XMLID_501_" class="st4" d="M144,161.8c-0.1-0.2-0.1-0.4-0.2-0.7C143.9,161.4,144,161.6,144,161.8z"/>
				<linearGradient id="XMLID_7_" gradientUnits="userSpaceOnUse" x1="161.4798" y1="194.3817" x2="140.3458" y2="191.82">
					<stop  offset="0" style="stop-color:#FFFFFF"/>
					<stop  offset="1" style="stop-color:#000000"/>
				</linearGradient>
				<path id="XMLID_500_" class="st6" d="M148.6,176.6c-1-3.7-1.9-7-3.2-12.9c0,0.1,0,0.2,0.1,0.3c-1.5-1.1-4-2.5-5.5-3.5l-1.2-0.3
					c0,0,0.1,28.4,0.3,58.8c2.2,2.3,5.5,5,8.3,5c-0.5-18.8-0.9-36.2-0.9-38.7C146.3,182,147.2,178.2,148.6,176.6z"/>
			</g>
			<path id="XMLID_498_" d="M139,219.1c0,0.8,0,9.2,0,10c2.8,0.6,5.7,2,8.3,2.1c0-0.9,0-6.3-0.1-7.1
				C144.5,224.1,141.2,221.3,139,219.1z"/>
			<linearGradient id="XMLID_8_" gradientUnits="userSpaceOnUse" x1="162.3869" y1="260.6805" x2="137.0901" y2="264.2029">
				<stop  offset="0" style="stop-color:#FFFFFF"/>
				<stop  offset="1" style="stop-color:#000000"/>
			</linearGradient>
			<path id="XMLID_497_" class="st7" d="M142.2,296c1.9-4.3,3.8-8.3,5.6-12.4c0.3-0.7,0.6-1.4,0.9-2.1c-0.1-3-0.2-5.8-0.2-7.8
				c0-3.3-0.6-21.1-1.1-42.6c-2.6-0.1-5.5-1.5-8.3-2.1c0.1,23.6,0.2,41.9,0.2,46.2c0,5.7,0.5,15.2,1,23.4
				C141.3,298.4,141.8,296.9,142.2,296z"/>
			<linearGradient id="XMLID_9_" gradientUnits="userSpaceOnUse" x1="140.1839" y1="310.1322" x2="153.9052" y2="310.1322">
				<stop  offset="0" style="stop-color:#FFFFFF"/>
				<stop  offset="1" style="stop-color:#000000"/>
			</linearGradient>
			<path id="XMLID_496_" class="st8" d="M150.1,301c-0.7-5.2-1.2-13-1.5-19.4c-0.3,0.7-0.6,1.4-0.9,2.1c-1.7,4.1-3.6,8.1-5.6,12.4
				c-0.4,0.9-0.9,2.3-2,2.6c0.4,6.2,0.3,11.1,0.6,13.5c0.7,5.7,1.4,18.2,6.3,23.5c1.2,1.3,2.3,2.2,3.2,3l3.7-13.4
				C151.6,321.5,151.1,308.6,150.1,301z"/>
			<path id="XMLID_495_" class="st1" d="M148,303.6c-0.5-6.8-1.5-10.7-1.5-17.1c-1.4,3.1-2.4,4.9-3.9,8.2c-0.3,0.8-1.3,2.6-1.8,3.6
				c0.1,4.8,0.7,12.2,0.8,14.2c0.4,8.5,3.1,17.3,3.1,17.3s1.8-3.3,3.3-9.9C149.5,313.3,148.4,308.5,148,303.6z"/>
			<path id="XMLID_494_" d="M154,325.5c0-0.1-0.1-0.1-0.1-0.2l-3.7,13.4c0.4,0.4,0.6,0.3,1,0.7l4.1-12.3
				C155,326.7,154.3,325.9,154,325.5z"/>
			<linearGradient id="XMLID_10_" gradientUnits="userSpaceOnUse" x1="153.4641" y1="86.4155" x2="147.0596" y2="73.1794">
				<stop  offset="0" style="stop-color:#FFFFFF"/>
				<stop  offset="1" style="stop-color:#000000"/>
			</linearGradient>
			<path id="XMLID_493_" class="st9" d="M143.5,89c2.2-5.7,6.5-10.4,11.2-14.3c2-1.6,4.1-3.2,6.5-4.2c0-0.3,0.1-0.6,0.2-0.8
				c0.3-0.7,1-1.4,0.8-1.8c-0.3-0.4-2.3,0.2-3.4,0.8c-7.8,4-13.8,10.4-17.5,18.3c-0.6,1.2-1,2.3-1.1,3.6c-0.3,2.4,0.4,5.1,1.3,7.5
				C141.8,95,142.4,91.9,143.5,89z"/>
			<path id="XMLID_492_" class="st1" d="M139.8,340.9c-0.4-0.8-0.6-1.7-1.3-2.3c-0.4-0.3-0.9-0.5-1.4-0.4c0.5,1.2,1.1,2.2,1.8,3.1
				c0.2,0.2,0.4,0.5,0.5,0.7c1.2,1.3,3,2.7,5.2,3.9C142.7,344.5,140.8,343,139.8,340.9z"/>
			<path id="XMLID_491_" d="M156.1,208c0,0,2.3,76.9,3,85.4c0.6,8.5,1.5,13.4,0.6,14.3c-0.9,0.9-2.6-0.2-3.6-2.8s-3.7-35.6-3.6-51
				c0.1-15.4-1.3-54.7-1.3-59.3c0-4.7,1.4-10.2,2-11.3s2-2.5,2.3-1.1c0.5,2.1-0.1,6.7-0.1,12.8C155.5,198.9,156.1,208,156.1,208z"/>
			<path id="XMLID_490_" class="st10" d="M134.8,161.4l-13.5,5.2c0,0.2,0.1,0.4,0.2,0.7c0.1,0.3,0.4,0.5,0.7,0.4
				c4.2-1.4,7.9-2.7,12.2-4.4c0.2-0.1,0.4-0.2,0.5-0.3c0.1-0.2,0.2-0.3,0.2-0.5c0,0-0.1,0-0.1,0c0.1,0,0.1,0,0.1,0
				C135.1,162.1,135,161.8,134.8,161.4z"/>
			<path id="XMLID_489_" class="st10" d="M138.8,146.3c-2.4,3.3-3.3,3.9-6.4,7.3c-0.8,0.9-1.9,1.9-3,2.9c1.3-0.2,2.7,0,3.9,0.8
				c0.7,0.6,1.2,1.5,1.4,2.4c0.3-0.5,1.1-0.5,2-0.5c1.2,0,1.2,0.5,2.2,1.2c1.5,1.1,6.4,3.6,6.4,3.6s-1.3-6.3-1.7-7.8
				c-0.5-2.1-3.7-21.4-3.7-21.4S138.6,137.2,138.8,146.3z"/>
			<path id="XMLID_488_" d="M133.2,157.3c-1.2-0.7-2.6-1-3.9-0.8c-1.7,1.5-3.6,3-4.9,4.3c-2,1.8-3.4,3.5-3.1,5.8l13.5-5.2
				c-0.1-0.3-0.3-0.7-0.3-1c-0.1-0.3,0-0.6,0.1-0.8C134.4,158.7,133.9,157.9,133.2,157.3z"/>
			<path id="XMLID_487_" class="st11" d="M132.7,209c0-0.2,0.1-0.4-0.1-0.3c-0.9,0.1-1.9,1.7-2.1,3.2c-0.2,1.4-0.3,2.5-0.2,3.9
				c0.2,1.9,0.7,3.7,1.9,5.3c0.1,0.2,0.5,0.1,0.5-0.2c0-1.7,0-1,0-2.6c-1.3-1.1-1.9-3.7-1.3-5.3c0.2-0.7,0.6-2.1,1.3-1.9L132.7,209z
				"/>
			<path id="XMLID_486_" class="st11" d="M133.4,271.7c0-0.2,0.1-0.4-0.1-0.3c-0.9,0.1-1.9,1.7-2.1,3.2c-0.2,1.4-0.3,2.5-0.2,3.9
				c0.2,1.9,0.7,3.7,1.9,5.3c0.1,0.2,0.5,0.1,0.5-0.2c0-1.7,0-1,0-2.6c-1.3-1.1-1.9-3.7-1.3-5.3c0.2-0.7,0.6-2.1,1.3-1.9
				L133.4,271.7z"/>
			<path id="XMLID_485_" class="st1" d="M241.7,331.4c2.1-5.9,2.9-14.1,3.5-18.6c0.4-3.4,0.2-5.3,0.8-14.2c2.8,0,5.7-1,8.5-6.1
				c-0.2,3.6-0.2,6.3-0.2,7.8c0.2,6-0.1,10.7-0.9,19.3c-0.7,8.2-2.6,17-6.1,21.6c-0.2,0.2-0.4,0.5-0.5,0.7c-0.4,0.5-0.9,0.9-1.4,1.4
				c-1.2-3.9-2.5-7.7-3.8-11.6C241.7,331.6,241.7,331.5,241.7,331.4z"/>
			<path id="XMLID_484_" d="M229.8,319.2c-12.3,3.3-24.4,2.8-36.9,2.3v-11.7l42.4,0.6C235.1,314.3,233.9,318.1,229.8,319.2z"/>
			<path id="XMLID_481_" class="st2" d="M247.4,144.3c1.9,0.1,4.1-0.3,5.7,0.6"/>
			<path id="XMLID_479_" class="st3" d="M253.2,137.8l0.3,0c0,0,0.5,0.9,0.5,1.8s-0.4,1.9-0.4,1.9h-0.4
				C253.2,140.4,253.2,139.2,253.2,137.8z"/>
			<path id="XMLID_478_" class="st4" d="M192.9,177.7C192.7,177.7,192.9,177.7,192.9,177.7C192.9,177.7,192.7,177.7,192.9,177.7z"/>
			<path id="XMLID_476_" class="st2" d="M254.5,292.1c-2.6,5.8-5.6,6.3-8.4,6.5"/>
			<path id="XMLID_473_" class="st5" d="M192.9,310.2l-37,0.5c0.1,3.6,1.2,7.2,4.8,8.2c10.9,3.1,21.1,5.2,32.1,4.7
				c11.1,0.4,21.9-1.6,32.8-4.7c3.6-1,4.7-4.6,4.8-8.2L192.9,310.2z"/>
			<path id="XMLID_472_" class="st5" d="M230.7,310.7c-0.1,3.6-1.1,7.4-4.7,8.4c-10.9,3.1-22,5.2-33.1,4.8
				c-11.1,0.4-21.7-1.7-32.6-4.8c-3.6-1-4.6-4.8-4.7-8.4l-4.6,0.1c0.5,6,1.1,12,2.9,14.5c0,0.1,0.1,0.1,0.1,0.2
				c0.3,0.4,1,1.2,1.4,1.6c3.5,3.1,11.5,6.7,19,8.3c6.8,1.4,17.5,1.5,18.5,1.5c1,0,12.3-0.1,19-1.5c7.5-1.5,15.5-5.1,19-8.3
				c0.4-0.3,1.1-1.2,1.4-1.6c0-0.1,0.1-0.1,0.1-0.2c1.8-2.6,2.5-8.6,2.9-14.5L230.7,310.7z"/>
			<path id="XMLID_471_" class="st4" d="M239.1,231.2c-0.1,0-0.1,0-0.2,0C239,231.1,239.1,231.1,239.1,231.2
				C239.1,231.1,239.1,231.1,239.1,231.2z"/>
			<path id="XMLID_470_" class="st5" d="M239,231.2c-0.5,21.5-1.1,39.3-1.1,42.6c0,1.8-0.1,4.3-0.2,7c-0.4-0.7-0.7-1.3-0.8-2
				c-0.7-15.7-0.4-31.4,0.1-47C237.6,231.6,238.3,231.5,239,231.2z"/>
			<path id="XMLID_469_" class="st5" d="M238.6,188c0-2,0.5-4.4,1-6.5c0.1,1.1,0.3,2.5,0.3,3.8c0,2.3-0.4,27.7-0.8,45.7
				c-0.1,0-0.1,0-0.2,0.1c0,0,0,0,0,0c0,0,0,0,0,0c-0.7,0.3-1.3,0.5-2,0.5C237.5,217.2,238.2,202.6,238.6,188z"/>
			<path id="XMLID_465_" class="st4" d="M192.9,346.7L192.9,346.7C192.8,346.7,192.7,346.7,192.9,346.7z"/>
			<path id="XMLID_464_" d="M241.7,331.7c1.3,3.9,2.6,7.7,3.8,11.6c-0.1,0.1-0.1,0.1-0.2,0.2l-3.7-11.5
				C241.6,331.9,241.6,331.8,241.7,331.7z"/>
			<path id="XMLID_461_" class="st1" d="M245.3,343.4l-3.7-11.5c-0.2,0.3-0.3,0.5-0.4,0.7c-0.9,1.5-1.3,2.2-2.1,3.1
				c-1.1,1.4-2.2,2.1-3.1,3c-0.4,0.4-0.6,0.3-1,0.7c-1.7,1.3-4.4,2-7,3.1c-5.7,2.4-14.8,3.4-22,3.9c-3.8,0.3-10.6,0.2-13.1,0.2
				c0.4,0,0.2,0,0,0c-0.2,0-0.4,0,0,0c-2.5-0.1-8.8,0-12.6-0.2c-7.2-0.5-16.3-1.5-22-3.9c-2.6-1.1-5.4-1.9-7-3.1
				c-0.5-0.3-0.6-0.2-1-0.7c-0.9-0.9-2-1.6-3.1-3c-0.8-1-1.2-1.6-2.1-3.1c-0.1-0.2-0.2-0.4-0.4-0.7l-3.7,11.5
				c5.8,4.8,17.8,9,29.5,10c5.3,0.5,15.5,0.8,22.4,1c0,0,0,0,0.1,0c0,0,0.1,0,0.1,0c6.9-0.2,17.6-0.5,22.9-1
				C227.6,352.3,239.6,348.1,245.3,343.4z M192.9,354.3C192.8,354.3,192.8,354.3,192.9,354.3C193,354.3,192.9,354.3,192.9,354.3z"/>
			<path id="XMLID_460_" class="st4" d="M192.9,346.7L192.9,346.7C193.2,346.7,193,346.7,192.9,346.7z"/>
			<g id="XMLID_454_">
				<linearGradient id="XMLID_11_" gradientUnits="userSpaceOnUse" x1="192.8692" y1="175.0665" x2="192.9002" y2="175.0665">
					<stop  offset="0" style="stop-color:#FFFFFF"/>
					<stop  offset="1" style="stop-color:#000000"/>
				</linearGradient>
				<path id="XMLID_458_" class="st12" d="M192.9,175.4c0,0,0-0.4,0-0.7C192.9,175.1,192.9,175.4,192.9,175.4z"/>
				<linearGradient id="XMLID_12_" gradientUnits="userSpaceOnUse" x1="106.5033" y1="156.7701" x2="230.4254" y2="153.2477">
					<stop  offset="0" style="stop-color:#FFFFFF"/>
					<stop  offset="1" style="stop-color:#000000"/>
				</linearGradient>
				<path id="XMLID_457_" class="st13" d="M239.6,136.2c-3.8-1.4-9.8-2.5-16.3-3.4c-11.3-1.6-22.8-2.7-30.4-2.7
					c-7.5,0-18.5,1.1-29.9,2.7c-6.5,0.9-12.5,2.1-16.3,3.4c-1.1,0.4-1.8,1.6-1.6,2.7c0.4,2.2,1.1,5.4,1.1,5.8
					c1.3,5.9,3.8,21.8,6.4,31.2c0.3,1.2,1.5,1.9,2.7,1.5c2.7-0.8,6.3-1.4,13.1-2.1c10-1.2,15.1-1.3,24.4-1.3
					c9.2,0,14.9,0.1,24.9,1.3c6.8,0.8,10.4,1.4,13.1,2.1c1.2,0.3,2.4-0.4,2.7-1.5c2.6-9.4,5.1-25.3,6.4-31.2
					c0.1-0.4,0.7-3.6,1.1-5.8C241.4,137.7,240.7,136.6,239.6,136.2z"/>
				<linearGradient id="XMLID_13_" gradientUnits="userSpaceOnUse" x1="192.869" y1="174.3593" x2="192.9004" y2="174.3593">
					<stop  offset="0" style="stop-color:#FFFFFF"/>
					<stop  offset="1" style="stop-color:#000000"/>
				</linearGradient>
				<path id="XMLID_456_" class="st14" d="M192.9,174.7c0-0.4,0-0.7,0-0.7C192.9,174,192.9,174.4,192.9,174.7z"/>
				<linearGradient id="XMLID_14_" gradientUnits="userSpaceOnUse" x1="192.7723" y1="129.8276" x2="192.9971" y2="129.8276">
					<stop  offset="0" style="stop-color:#FFFFFF"/>
					<stop  offset="1" style="stop-color:#000000"/>
				</linearGradient>
				<path id="XMLID_455_" class="st15" d="M192.9,129.8C192.6,129.8,192.9,129.8,192.9,129.8C192.9,129.8,193.1,129.8,192.9,129.8z"
					/>
			</g>
			<g id="XMLID_451_">
				<path id="XMLID_453_" class="st4" d="M242.3,161.8c0.1-0.2,0.1-0.4,0.2-0.7C242.4,161.4,242.3,161.6,242.3,161.8z"/>
				
					<linearGradient id="XMLID_15_" gradientUnits="userSpaceOnUse" x1="2359.2869" y1="194.3817" x2="2338.1528" y2="191.82" gradientTransform="matrix(-1 0 0 1 2584.1072 0)">
					<stop  offset="0" style="stop-color:#FFFFFF"/>
					<stop  offset="1" style="stop-color:#000000"/>
				</linearGradient>
				<path id="XMLID_452_" class="st16" d="M237.8,176.9c1-3.7,1.8-7.3,3.1-13.1c0,0.1,0,0.2-0.1,0.3c1.5-1.1,4-2.5,5.5-3.5l1.2-0.3
					c0,0-0.1,28.4-0.3,58.8c-2.2,2.3-5.5,5-8.3,5c0.5-18.8,0.9-36.2,0.9-38.7C240,182,239.2,178.4,237.8,176.9z"/>
			</g>
			<path id="XMLID_450_" d="M247.3,219.1c0,0.8,0,9.2,0,10c-2.8,0.6-5.7,2-8.3,2.1c0-0.9,0-6.3,0.1-7.1
				C241.8,224.1,245.1,221.3,247.3,219.1z"/>
			<linearGradient id="XMLID_16_" gradientUnits="userSpaceOnUse" x1="226.0702" y1="262.8721" x2="246.2436" y2="263.8327">
				<stop  offset="0" style="stop-color:#FFFFFF"/>
				<stop  offset="1" style="stop-color:#000000"/>
			</linearGradient>
			<path id="XMLID_449_" class="st17" d="M244.1,296c-1.9-4.3-3.8-8.3-5.6-12.4c-0.3-0.7-0.6-1.4-0.9-2.1c0.1-3,0.2-5.8,0.2-7.8
				c0-3.3,0.6-21.1,1.1-42.6c2.6-0.1,5.5-1.5,8.3-2.1c-0.1,23.6-0.2,41.9-0.2,46.2c0,5.7-0.5,15.2-1,23.4
				C245,298.4,244.5,296.9,244.1,296z"/>
			
				<linearGradient id="XMLID_17_" gradientUnits="userSpaceOnUse" x1="2337.991" y1="310.1322" x2="2351.7122" y2="310.1322" gradientTransform="matrix(-1 0 0 1 2584.1072 0)">
				<stop  offset="0" style="stop-color:#FFFFFF"/>
				<stop  offset="1" style="stop-color:#000000"/>
			</linearGradient>
			<path id="XMLID_448_" class="st18" d="M236.2,301c0.7-5.2,1.2-13,1.5-19.4c0.3,0.7,0.6,1.4,0.9,2.1c1.7,4.1,3.6,8.1,5.6,12.4
				c0.4,0.9,0.9,2.3,2,2.6c-0.4,6.2-0.3,11.1-0.6,13.5c-0.7,5.7-1.4,18.2-6.3,23.5c-1.2,1.3-2.3,2.2-3.2,3l-3.7-13.4
				C234.7,321.5,235.2,308.6,236.2,301z"/>
			<path id="XMLID_447_" class="st1" d="M238.3,303.6c0.5-6.8,1.5-10.7,1.5-17.1c1.4,3.1,2.4,4.9,3.9,8.2c0.3,0.8,1.3,2.6,1.8,3.6
				c-0.1,4.8-0.7,12.2-0.8,14.2c-0.4,8.5-3.1,17.3-3.1,17.3s-1.8-3.3-3.3-9.9C236.8,313.3,237.9,308.5,238.3,303.6z"/>
			<path id="XMLID_446_" d="M232.3,325.5c0-0.1,0.1-0.1,0.1-0.2l3.7,13.4c-0.4,0.4-0.6,0.3-1,0.7l-4.1-12.3
				C231.3,326.7,232,325.9,232.3,325.5z"/>
			<g id="XMLID_438_">
				<linearGradient id="XMLID_18_" gradientUnits="userSpaceOnUse" x1="192.8748" y1="346.6682" x2="192.8747" y2="346.6701">
					<stop  offset="0" style="stop-color:#FFFFFF"/>
					<stop  offset="1" style="stop-color:#000000"/>
				</linearGradient>
				<path id="XMLID_445_" class="st19" d="M192.9,346.7C192.9,346.7,192.9,346.7,192.9,346.7C192.9,346.7,192.9,346.7,192.9,346.7z"
					/>
				<linearGradient id="XMLID_19_" gradientUnits="userSpaceOnUse" x1="192.8318" y1="346.6659" x2="192.8316" y2="346.6723">
					<stop  offset="0" style="stop-color:#FFFFFF"/>
					<stop  offset="1" style="stop-color:#000000"/>
				</linearGradient>
				<path id="XMLID_444_" class="st20" d="M192.9,346.7C192.8,346.7,192.8,346.7,192.9,346.7C192.8,346.7,192.8,346.7,192.9,346.7z"
					/>
				<linearGradient id="XMLID_20_" gradientUnits="userSpaceOnUse" x1="192.7952" y1="346.6714" x2="192.7952" y2="346.6721">
					<stop  offset="0" style="stop-color:#FFFFFF"/>
					<stop  offset="1" style="stop-color:#000000"/>
				</linearGradient>
				<path id="XMLID_443_" class="st21" d="M192.8,346.7C192.8,346.7,192.8,346.7,192.8,346.7L192.8,346.7z"/>
				<linearGradient id="XMLID_21_" gradientUnits="userSpaceOnUse" x1="192.9377" y1="346.6706" x2="192.9377" y2="346.671">
					<stop  offset="0" style="stop-color:#FFFFFF"/>
					<stop  offset="1" style="stop-color:#000000"/>
				</linearGradient>
				<path id="XMLID_442_" class="st22" d="M192.9,346.7C192.9,346.7,193,346.7,192.9,346.7C193,346.7,192.9,346.7,192.9,346.7z"/>
				<linearGradient id="XMLID_22_" gradientUnits="userSpaceOnUse" x1="194.1138" y1="310.7911" x2="193.0214" y2="343.1994">
					<stop  offset="0" style="stop-color:#FFFFFF"/>
					<stop  offset="1" style="stop-color:#000000"/>
				</linearGradient>
				<path id="XMLID_441_" class="st23" d="M230.9,327.1c-3.5,3.1-11.2,6.6-18.6,8.1c-7.1,1.4-19.4,1.5-19.4,1.5l0,0
					c0,0-11.7-0.1-18.8-1.5c-7.5-1.5-15.2-5-18.6-8.1l-4.1,12.3c1.7,1.3,4.4,2,7,3.1c5.7,2.4,14.8,3.4,22,3.9
					c5,0.3,12.6,0.2,12.6,0.2s8.1,0.1,13.1-0.2c7.2-0.5,16.3-1.5,22-3.9c2.6-1.1,5.4-1.9,7-3.1L230.9,327.1z"/>
				<linearGradient id="XMLID_23_" gradientUnits="userSpaceOnUse" x1="192.8947" y1="346.6696" x2="192.8947" y2="346.6697">
					<stop  offset="0" style="stop-color:#FFFFFF"/>
					<stop  offset="1" style="stop-color:#000000"/>
				</linearGradient>
				<path id="XMLID_440_" class="st24" d="M192.9,346.7C192.9,346.7,192.9,346.7,192.9,346.7C192.9,346.7,192.9,346.7,192.9,346.7z"
					/>
				<linearGradient id="XMLID_24_" gradientUnits="userSpaceOnUse" x1="192.9743" y1="346.672" x2="192.9743" y2="346.672">
					<stop  offset="0" style="stop-color:#FFFFFF"/>
					<stop  offset="1" style="stop-color:#000000"/>
				</linearGradient>
				<path id="XMLID_439_" class="st25" d="M193,346.7C193,346.7,193,346.7,193,346.7L193,346.7z"/>
			</g>
			<path id="XMLID_437_" d="M226.5,206c-2.3-1.7-4-6-6-8.6c-2-2.7-4-3.3-9.7-3.6c-5.7-0.3-18-0.3-18-0.3s-11.8,0-17.4,0.3
				c-5.7,0.3-7.7,1-9.7,3.6c-2,2.7-3.7,7-6,8.6c-2.3,1.7-3.7,2-3.7,2l2.3,66.9c0,0,1,1,3.7,2.3c2.7,1.3,4.6,6.9,6.6,9.2
				s6.1,4.5,11.1,4.5c5,0,13.1,0.2,13.1,0.2s8.7-0.2,13.7-0.2c5,0,9.1-2.2,11.1-4.5c2-2.3,3.9-7.9,6.6-9.2c2.7-1.3,3.7-2.3,3.7-2.3
				l2.3-66.9C230.2,208,228.8,207.7,226.5,206z"/>
			<linearGradient id="XMLID_25_" gradientUnits="userSpaceOnUse" x1="117.3694" y1="240.3136" x2="223.0394" y2="241.2743">
				<stop  offset="0" style="stop-color:#FFFFFF"/>
				<stop  offset="1" style="stop-color:#000000"/>
			</linearGradient>
			<path id="XMLID_436_" class="st26" d="M224.5,206.9c-2.2-1.6-3.8-5.6-5.6-8.1c-1.9-2.5-3.8-3.1-9.1-3.4
				c-5.3-0.3-16.9-0.3-16.9-0.3s-11,0-16.3,0.3c-5.3,0.3-7.2,0.9-9.1,3.4s-3.4,6.6-5.6,8.1c-2.2,1.6-3.4,1.9-3.4,1.9l2.1,62.9
				c0,0,0.9,0.9,3.4,2.2c2.5,1.3,4.3,6.5,6.2,8.7c1.9,2.2,5.7,4.2,10.4,4.2c4.7,0,12.3,0.2,12.3,0.2s8.2-0.2,12.8-0.2
				s8.6-2,10.4-4.2c1.9-2.2,3.7-7.4,6.2-8.7s3.4-2.2,3.4-2.2l2.1-62.9C227.9,208.8,226.7,208.5,224.5,206.9z"/>
			<linearGradient id="XMLID_26_" gradientUnits="userSpaceOnUse" x1="193.3163" y1="69.6651" x2="193.0946" y2="59.6899">
				<stop  offset="0" style="stop-color:#FFFFFF"/>
				<stop  offset="1" style="stop-color:#000000"/>
			</linearGradient>
			<path id="XMLID_433_" class="st27" d="M193,62.1c-1.1,0-2.6-0.1-5.1,0.1c0.4,0.5,1.1,1,1.8,1.2c1,0.3,2.3,0.5,3.3,0.7
				c0.9-0.1,2.7-0.3,3.5-0.7c0.7-0.3,1.4-0.7,1.8-1.2C195.8,62,194.1,62.1,193,62.1z M193,62.1C193,62.1,193.1,62.1,193,62.1
				C192.9,62.1,193,62.1,193,62.1z"/>
			<path id="XMLID_432_" class="st5" d="M245.1,100.2c-0.4-3.8-0.9-7.6-2.3-11.2c-2.2-5.7-6.5-10.4-11.2-14.3
				c-2-1.7-4.1-3.2-6.5-4.3c-3-1.3-7.8-2.3-11.3-2.8c-7.3-1.2-15.6-1.8-20.8-1.8c-5.1,0-13.2,0.6-20.4,1.8
				c-3.5,0.6-8.3,1.6-11.3,2.8c-2.4,1-4.5,2.6-6.5,4.3c-4.7,3.9-9,8.6-11.2,14.3c-1.4,3.6-2,7.4-2.3,11.2
				c-0.6,6.8-0.6,13.6-0.6,20.5c0,3.3,0.1,6.8,1.9,9.5c0.7-0.7,1.5-1.5,2.4-2.1c4-3,11.4-5,19.5-6.5c8.7-1.6,28.6-1.7,28.6-1.7
				s20.4,0.1,29.1,1.7c8.1,1.5,15.5,3.5,19.5,6.5c0.9,0.7,1.7,1.4,2.4,2.1c1.7-2.7,1.9-6.2,1.9-9.5
				C245.8,113.8,245.8,107,245.1,100.2z"/>
			
				<linearGradient id="XMLID_27_" gradientUnits="userSpaceOnUse" x1="2351.2712" y1="86.4155" x2="2344.8667" y2="73.1794" gradientTransform="matrix(-1 0 0 1 2584.1072 0)">
				<stop  offset="0" style="stop-color:#FFFFFF"/>
				<stop  offset="1" style="stop-color:#000000"/>
			</linearGradient>
			<path id="XMLID_431_" class="st28" d="M242.8,89c-2.2-5.7-6.5-10.4-11.2-14.3c-2-1.6-4.1-3.2-6.5-4.2c0-0.3-0.1-0.6-0.2-0.8
				c-0.3-0.7-1-1.4-0.8-1.8c0.3-0.4,2.3,0.2,3.4,0.8c7.8,4,13.8,10.4,17.5,18.3c0.6,1.2,1,2.3,1.1,3.6c0.3,2.4-0.4,5.1-1.3,7.5
				C244.5,95,243.9,91.9,242.8,89z"/>
			<path id="XMLID_430_" class="st1" d="M246.5,340.9c0.4-0.8,0.6-1.7,1.3-2.3c0.4-0.3,0.9-0.5,1.4-0.4c-0.5,1.2-1.1,2.2-1.8,3.1
				c-0.2,0.2-0.4,0.5-0.5,0.7c-1.2,1.3-3,2.7-5.2,3.9C243.6,344.5,245.5,343,246.5,340.9z"/>
			<path id="XMLID_429_" d="M230.2,208c0,0-2.3,76.9-3,85.4c-0.6,8.5-1.5,13.4-0.6,14.3c0.9,0.9,2.6-0.2,3.6-2.8s3.7-35.6,3.6-51
				c-0.1-15.4,1.3-54.7,1.3-59.3c0-4.7-1.4-10.2-2-11.3s-2-2.5-2.3-1.1c-0.5,2.1,0.1,6.7,0.1,12.8C230.8,198.9,230.2,208,230.2,208z
				"/>
			<path id="XMLID_428_" class="st10" d="M251.5,161.4l13.5,5.2c0,0.2-0.1,0.4-0.2,0.7c-0.1,0.3-0.4,0.5-0.7,0.4
				c-4.2-1.4-7.9-2.7-12.2-4.4c-0.2-0.1-0.4-0.2-0.5-0.3c-0.1-0.2-0.2-0.3-0.2-0.5c0,0,0.1,0,0.1,0c-0.1,0-0.1,0-0.1,0
				C251.2,162.1,251.3,161.8,251.5,161.4z"/>
			<path id="XMLID_427_" class="st10" d="M247.5,146.3c2.4,3.3,3.3,3.9,6.4,7.3c0.8,0.9,1.9,1.9,3,2.9c-1.3-0.2-2.7,0-3.9,0.8
				c-0.7,0.6-1.2,1.5-1.4,2.4c-0.3-0.5-1.1-0.5-2-0.5c-1.2,0-1.2,0.5-2.2,1.2c-1.5,1.1-6.4,3.6-6.4,3.6s1.3-6.3,1.7-7.8
				c0.5-2.1,3.7-21.4,3.7-21.4S247.7,137.2,247.5,146.3z"/>
			<path id="XMLID_426_" d="M253.1,157.3c1.2-0.7,2.6-1,3.9-0.8c1.7,1.5,3.6,3,4.9,4.3c2,1.8,3.4,3.5,3.1,5.8l-13.5-5.2
				c0.1-0.3,0.3-0.7,0.3-1c0.1-0.3,0-0.6-0.1-0.8C251.9,158.7,252.4,157.9,253.1,157.3z"/>
			<path id="XMLID_425_" class="st11" d="M253.6,209c0-0.2-0.1-0.4,0.1-0.3c0.9,0.1,1.9,1.7,2.1,3.2c0.2,1.4,0.3,2.5,0.2,3.9
				c-0.2,1.9-0.7,3.7-1.9,5.3c-0.1,0.2-0.5,0.1-0.5-0.2c0-1.7,0-1,0-2.6c1.3-1.1,1.9-3.7,1.3-5.3c-0.2-0.7-0.6-2.1-1.3-1.9
				L253.6,209z"/>
			<path id="XMLID_424_" class="st11" d="M252.9,271.7c0-0.2-0.1-0.4,0.1-0.3c0.9,0.1,1.9,1.7,2.1,3.2c0.2,1.4,0.3,2.5,0.2,3.9
				c-0.2,1.9-0.7,3.7-1.9,5.3c-0.1,0.2-0.5,0.1-0.5-0.2c0-1.7,0-1,0-2.6c1.3-1.1,1.9-3.7,1.3-5.3c-0.2-0.7-0.6-2.1-1.3-1.9
				L252.9,271.7z"/>
			<path id="XMLID_480_" class="st2" d="M254.8,226.3c-2.7-0.8-5.2,1.5-7.9,2.6"/>
		</g>
	</g>
</g>
</svg>
