<?xml version="1.0" encoding="utf-8"?>
<!-- Generator: Adobe Illustrator 21.0.2, SVG Export Plug-In . SVG Version: 6.00 Build 0)  -->
<svg version="1.1" xmlns="http://www.w3.org/2000/svg" xmlns:xlink="http://www.w3.org/1999/xlink" x="0px" y="0px"
	 viewBox="0 0 417.7 461.1" style="enable-background:new 0 0 417.7 461.1;" xml:space="preserve">
<style type="text/css">
	.st0{fill:#BFBFBF;}
	.st1{fill:#BF0411;}
	.st2{fill:none;stroke:#000000;stroke-width:0.5;stroke-miterlimit:10;}
	.st3{fill:#CE6B00;}
	.st4{fill:none;stroke:#BF0411;stroke-width:0.5;stroke-miterlimit:10;}
	.st5{fill:#BF0411;stroke:#000000;stroke-width:0.5;stroke-miterlimit:10;}
	.st6{fill:url(#XMLID_7_);}
	.st7{fill:url(#XMLID_8_);}
	.st8{fill:url(#XMLID_9_);}
	.st9{fill:url(#XMLID_10_);stroke:#000000;stroke-width:0.5;stroke-miterlimit:10;}
	.st10{fill:#333333;}
	.st11{fill:#D9D9D9;}
	.st12{fill:url(#XMLID_11_);}
	.st13{fill:url(#XMLID_12_);}
	.st14{fill:url(#XMLID_13_);}
	.st15{fill:url(#XMLID_14_);}
	.st16{fill:url(#XMLID_15_);}
	.st17{fill:url(#XMLID_16_);}
	.st18{fill:url(#XMLID_17_);}
	.st19{fill:url(#XMLID_18_);}
	.st20{fill:url(#XMLID_19_);}
	.st21{fill:url(#XMLID_20_);}
	.st22{fill:url(#XMLID_21_);}
	.st23{fill:url(#XMLID_22_);}
	.st24{fill:url(#XMLID_23_);}
	.st25{fill:url(#XMLID_24_);}
	.st26{fill:url(#XMLID_25_);}
	.st27{fill:url(#XMLID_26_);}
	.st28{fill:url(#XMLID_27_);stroke:#000000;stroke-width:0.5;stroke-miterlimit:10;}
	.st29{fill:#1A75B8;stroke:#333333;stroke-miterlimit:10;}
	.st30{fill:#1A1A1A;}
	.st31{fill:url(#XMLID_28_);}
	.st32{fill:#0066B0;stroke:#333333;stroke-miterlimit:10;}
	.st33{fill:url(#XMLID_29_);}
	.st34{fill:url(#XMLID_30_);}
	.st35{fill:#0066B0;}
	.st36{fill:url(#XMLID_31_);}
	.st37{fill:url(#XMLID_32_);}
	.st38{fill:url(#XMLID_33_);}
	.st39{fill:url(#XMLID_34_);}
	.st40{fill:#4D94C8;stroke:#333333;stroke-miterlimit:10;}
	.st41{fill:#595959;}
	.st42{fill:url(#XMLID_35_);}
	.st43{fill:#3384C0;}
	.st44{fill:#FEF673;stroke:#000000;stroke-width:0.25;stroke-miterlimit:10;}
	.st45{fill:#78AD2C;stroke:#000000;stroke-width:0.25;stroke-miterlimit:10;}
	.st46{fill:none;stroke:#000000;stroke-width:0.25;stroke-miterlimit:10;}
	.st47{fill:#333333;stroke:#000000;stroke-miterlimit:10;}
	.st48{fill:url(#XMLID_36_);stroke:#000000;stroke-miterlimit:10;}
	.st49{fill:#9AC261;stroke:#000000;stroke-width:0.25;stroke-miterlimit:10;}
	.st50{fill:#86B541;stroke:#000000;stroke-width:0.25;stroke-miterlimit:10;}
	.st51{stroke:#000000;stroke-miterlimit:10;}
	.st52{fill:url(#XMLID_37_);stroke:#000000;stroke-miterlimit:10;}
	.st53{fill:#FEF566;stroke:#000000;stroke-width:0.25;stroke-miterlimit:10;}
	.st54{fill:url(#XMLID_38_);stroke:#000000;stroke-miterlimit:10;}
	.st55{fill:#BF0411;stroke:#000000;stroke-miterlimit:10;}
	.st56{fill:url(#XMLID_39_);stroke:#000000;stroke-miterlimit:10;}
	.st57{fill:url(#XMLID_40_);stroke:#000000;stroke-miterlimit:10;}
	.st58{fill:url(#XMLID_41_);stroke:#000000;stroke-miterlimit:10;}
	.st59{fill:#78AD2C;stroke:#000000;stroke-width:0.25;stroke-linejoin:bevel;stroke-miterlimit:10;}
	.st60{fill:url(#XMLID_42_);stroke:#000000;stroke-miterlimit:10;}
	.st61{fill:url(#XMLID_43_);}
	.st62{fill:url(#XMLID_44_);stroke:#000000;stroke-miterlimit:10;}
	.st63{fill:#9AC261;stroke:#000000;stroke-width:0.25;stroke-linejoin:bevel;stroke-miterlimit:10;}
	.st64{fill:#EE8800;}
	.st65{fill:#EE8800;stroke:#000000;stroke-width:0.5;stroke-miterlimit:10;}
	.st66{fill:url(#XMLID_45_);}
	.st67{fill:url(#XMLID_46_);}
	.st68{fill:url(#XMLID_47_);}
	.st69{fill:url(#XMLID_48_);stroke:#000000;stroke-width:0.5;stroke-miterlimit:10;}
	.st70{fill:#EE8800;stroke:#FFFFFF;stroke-width:0.5;stroke-miterlimit:10;}
	.st71{fill:url(#XMLID_49_);}
	.st72{fill:url(#XMLID_50_);}
	.st73{fill:url(#XMLID_51_);}
	.st74{fill:url(#XMLID_52_);}
	.st75{fill:url(#XMLID_53_);}
	.st76{fill:url(#XMLID_54_);}
	.st77{fill:url(#XMLID_55_);}
	.st78{fill:url(#XMLID_56_);}
	.st79{fill:url(#XMLID_57_);}
	.st80{fill:url(#XMLID_58_);}
	.st81{fill:url(#XMLID_59_);}
	.st82{fill:url(#XMLID_60_);}
	.st83{fill:url(#XMLID_61_);}
	.st84{fill:url(#XMLID_62_);}
	.st85{fill:url(#XMLID_63_);}
	.st86{fill:url(#XMLID_64_);}
	.st87{fill:url(#XMLID_65_);stroke:#000000;stroke-width:0.5;stroke-miterlimit:10;}
	.st88{fill:#808080;stroke:#333333;stroke-miterlimit:10;}
	.st89{fill:url(#XMLID_66_);}
	.st90{fill:url(#XMLID_67_);}
	.st91{fill:url(#XMLID_68_);}
	.st92{fill:#666666;}
	.st93{fill:url(#XMLID_69_);}
	.st94{fill:url(#XMLID_70_);}
	.st95{fill:url(#XMLID_71_);}
	.st96{fill:#A6A6A6;}
	.st97{fill:url(#XMLID_80_);}
	.st98{fill:url(#XMLID_82_);}
	.st99{fill:#FEEE00;stroke:#000000;stroke-width:0.25;stroke-miterlimit:10;}
	.st100{fill:url(#XMLID_83_);stroke:#000000;stroke-miterlimit:10;}
	.st101{fill:#FEF34D;stroke:#000000;stroke-width:0.25;stroke-miterlimit:10;}
	.st102{fill:url(#XMLID_88_);stroke:#000000;stroke-miterlimit:10;}
	.st103{fill:url(#XMLID_89_);stroke:#000000;stroke-miterlimit:10;}
	.st104{fill:url(#XMLID_90_);stroke:#000000;stroke-miterlimit:10;}
	.st105{fill:url(#XMLID_92_);stroke:#000000;stroke-miterlimit:10;}
	.st106{fill:url(#XMLID_93_);stroke:#000000;stroke-miterlimit:10;}
	.st107{fill:#FEEE00;stroke:#000000;stroke-width:0.25;stroke-linejoin:bevel;stroke-miterlimit:10;}
	.st108{fill:url(#XMLID_99_);stroke:#000000;stroke-miterlimit:10;}
	.st109{fill:#FEF01A;stroke:#000000;stroke-width:0.25;stroke-miterlimit:10;}
	.st110{fill:url(#XMLID_106_);}
	.st111{fill:url(#XMLID_112_);stroke:#000000;stroke-miterlimit:10;}
	.st112{fill:#FEF34D;stroke:#000000;stroke-width:0.25;stroke-linejoin:bevel;stroke-miterlimit:10;}
</style>
<g id="Background">
</g>
<g id="Objects">
	<g id="XMLID_73_">
		<path id="XMLID_674_" class="st0" d="M285.8,176.9c-1.5-0.6-3.1-1.2-4.5-1.9c-0.1-4.6-0.2-8.8-0.2-12.1c0-2.6,0-4.6,0.1-5.8
			c0.3-4.6,0.9-10.8,0.9-15.8c0-4.4-1-22.1-1.8-32.3c-0.1-1.3-0.2-2.5-0.3-3.6c-0.9-9-8.4-15.2-8.4-15.2s-0.1,0-0.2-0.1v0
			c0,0,0,0-0.1,0c0,0-0.1,0-0.1-0.1c-0.1,0-0.1-0.1-0.2-0.1c-0.1,0-0.1-0.1-0.2-0.1c-0.1-0.1-0.2-0.1-0.3-0.2
			c-0.1,0-0.1-0.1-0.1-0.1c-0.2-0.1-0.4-0.2-0.6-0.3c0,0-0.1,0-0.1-0.1c-0.2-0.1-0.4-0.2-0.6-0.3c-0.1,0-0.2-0.1-0.3-0.2
			c-0.2-0.1-0.4-0.2-0.5-0.3c-0.1-0.1-0.2-0.1-0.4-0.2c-0.2-0.1-0.4-0.2-0.6-0.3c-0.1-0.1-0.3-0.1-0.4-0.2c-0.2-0.1-0.4-0.2-0.6-0.3
			c-0.2-0.1-0.3-0.2-0.5-0.2c-0.2-0.1-0.5-0.2-0.7-0.3c-0.2-0.1-0.3-0.2-0.5-0.2c-0.3-0.1-0.6-0.3-0.9-0.4c-0.2-0.1-0.3-0.1-0.5-0.2
			c-0.5-0.2-0.9-0.4-1.4-0.6c-0.1,0-0.2-0.1-0.3-0.1c-0.4-0.2-0.8-0.3-1.2-0.5c-0.2-0.1-0.4-0.2-0.6-0.2c-0.3-0.1-0.7-0.3-1.1-0.4
			c-0.2-0.1-0.5-0.2-0.7-0.3c-0.3-0.1-0.7-0.3-1.1-0.4c-0.3-0.1-0.5-0.2-0.8-0.3c-0.2-0.1-0.3-0.1-0.5-0.2c0,0,0,0,0,0
			c-0.4-0.1-0.7-0.3-1.1-0.4c-9.4-3.1-31-4-37.6-4.2c-6.6,0.2-28.6,1-38,4.2c-0.4,0.1-0.7,0.2-1.1,0.4c0,0,0,0,0,0
			c-0.2,0.1-0.3,0.1-0.5,0.2c-0.3,0.1-0.5,0.2-0.8,0.3c-0.4,0.1-0.7,0.3-1.1,0.4c-0.2,0.1-0.5,0.2-0.7,0.3c-0.4,0.1-0.7,0.3-1.1,0.4
			c-0.2,0.1-0.4,0.2-0.6,0.2c-0.4,0.2-0.8,0.3-1.2,0.5c-0.1,0-0.2,0.1-0.3,0.1c-0.5,0.2-1,0.4-1.4,0.6c-0.2,0.1-0.3,0.1-0.5,0.2
			c-0.3,0.1-0.6,0.3-0.9,0.4c-0.2,0.1-0.3,0.2-0.5,0.2c-0.3,0.1-0.5,0.2-0.7,0.3c-0.2,0.1-0.3,0.2-0.5,0.2c-0.2,0.1-0.4,0.2-0.6,0.3
			c-0.1,0.1-0.3,0.1-0.4,0.2c-0.2,0.1-0.4,0.2-0.6,0.3c-0.1,0.1-0.2,0.1-0.4,0.2c-0.2,0.1-0.4,0.2-0.6,0.3c-0.1,0.1-0.2,0.1-0.3,0.1
			c-0.2,0.1-0.4,0.2-0.6,0.3c0,0-0.1,0-0.1,0.1c-0.2,0.1-0.4,0.2-0.6,0.3c0,0-0.1,0.1-0.1,0.1c-0.1,0.1-0.2,0.1-0.3,0.2
			c-0.1,0-0.1,0.1-0.1,0.1c-0.1,0-0.1,0.1-0.2,0.1c0,0-0.1,0-0.1,0.1c0,0,0,0-0.1,0l0,0c-0.1,0.1-0.2,0.1-0.2,0.1s-7.4,6.2-8.4,15.2
			c-0.1,1-0.2,2.2-0.3,3.6c-0.9,10.2-1.8,27.9-1.8,32.3c0,5,0.6,11.1,0.9,15.8c0.1,1.1,0.1,3.1,0.1,5.8c0,3.2-0.1,7.4-0.2,12.1
			c-1.5,0.7-3,1.2-4.5,1.9c-2.3,1-4.7,2.1-6.3,4.1c-1.5,1.7-2.2,4.1-1.7,6.3c0.1,0.3,0.2,0.5,0.3,0.8c4.3-1.3,6.9-2.1,11.2-3.4
			c0.2-0.1,0.5-0.2,0.8-0.3c-0.1,4.5-0.2,9.1-0.3,13.4c-0.2,8.1,0,21.2,0.2,32.6c-1.5,2.4-1.7,5.5-1.7,8.4c0,0.7,0,1.3,0.3,1.9
			c0.2,0.4,0.5,0.7,0.7,1.1c0.6,1,0.4,2.3,0.5,3.4c0,0.5,0.2,1,0.5,1.4c0,0,0.1,0.1,0.1,0.1c0.1,3.2,0.1,5.2,0.1,5.2s0,0.2,0,0.5
			c0.1,3.6,0.6,26,0.6,31.4c0,4.4-0.2,8.2-0.3,9.9c0,0.6-0.1,0.9-0.1,0.9s-0.6,18.6-0.6,26.6c0,8,0.6,16.7,1.9,22
			c1.2,5.3,3.7,10.4,6.2,13.6c1.2,1.6,3.7,4.4,3.7,4.4h0.6h0.7l3.6,5.3c0,0,4.5,2.2,9.6,3s17.4,2.7,23.3,3
			c3.9,0.2,11.3,0.3,15.6,0.4c4.3-0.1,11.3-0.3,15.2-0.4c6-0.3,18.3-2.2,23.3-3s9.6-3,9.6-3l3.6-5.3h0.7h0.6c0,0,2.5-2.9,3.7-4.4
			c2.4-3.2,5-8.4,6.2-13.6c1.2-5.3,1.9-13.9,1.9-22c0-8-0.6-26.6-0.6-26.6s0-0.3-0.1-0.9c-0.1-1.7-0.3-5.6-0.3-9.9
			c0-5.4,0.5-27.8,0.6-31.4c0-0.3,0-0.5,0-0.5s0-2,0.1-5.2c0,0,0.1-0.1,0.1-0.1c0.3-0.4,0.5-0.9,0.5-1.4c0.1-1.2-0.1-2.4,0.5-3.4
			c0.2-0.4,0.5-0.7,0.7-1.1c0.3-0.6,0.3-1.3,0.3-1.9c-0.1-2.9-0.2-6-1.7-8.4c0.2-11.3,0.3-24.5,0.2-32.6c-0.1-4.4-0.2-9-0.3-13.4
			c0.3,0.1,0.6,0.2,0.8,0.3c4.3,1.3,6.9,2.1,11.2,3.4c0.1-0.3,0.2-0.5,0.3-0.8c0.6-2.1-0.2-4.5-1.7-6.3
			C290.5,179.1,288.2,177.9,285.8,176.9z"/>
		<g id="XMLID_372_">
			<path id="XMLID_422_" class="st29" d="M264.7,91.6c-0.9-9-8.4-15.2-8.4-15.2s-6.2-4-17.3-7.7c-9.4-3.1-31-4-37.6-4.2
				c-6.6,0.2-28.6,1-38,4.2c-11.1,3.7-17.3,7.7-17.3,7.7s-7.4,6.2-8.4,15.2c-0.1,1-0.2,2.2-0.3,3.6c2.8-3.1,6.7-5.1,10.9-5.8
				c17.9-2.9,35.6-1.9,53.1-2.3c17.5,0.4,34.8-0.5,52.7,2.3c4.2,0.7,8.1,2.6,10.9,5.8C264.9,93.8,264.8,92.6,264.7,91.6z"/>
			<path id="XMLID_421_" class="st29" d="M143.6,232.8C143.4,232.1,143.6,232.8,143.6,232.8c-2.6-22.1-1.6-43.8,0.6-65.9
				c0.6-5.2,0.3-10.2-0.2-15.2c-2.6-0.6-5.1-1.4-7.4-2.8c-0.1,8.2-0.5,22.4-0.7,34.8c-0.3,16.4,0.6,54.2,0.6,54.2s0,0.2,0,0.5
				c0.1,0,0.2,0,0.3,0c1.8,0.4,3.5,0.7,5.3,1c0.1-1.7,0.3-3.4,0.5-5.1C142.6,233.7,143.1,233.4,143.6,232.8z"/>
			<path id="XMLID_420_" class="st29" d="M141.7,151.2c0.6-10,2.5-41.8,3.2-45.8c0.8-4.4,0.7-11.6,2.9-16c-4,0.8-7.7,2.7-10.3,5.7
				c-0.9,10.2-1.8,27.9-1.8,32.3c0,5,0.6,11.1,0.9,15.8c0.1,1.1,0.1,3.1,0.1,5.8C138.2,150,139.9,150.7,141.7,151.2z"/>
			<path id="XMLID_419_" class="st30" d="M145.8,153.9c-0.2-0.6-0.3-1.2-0.5-1.8c-0.5-0.1-0.9-0.2-1.4-0.3c0.5,5,0.9,10,0.2,15.2
				c-0.1,1-0.2,1.9-0.3,2.9c1.9,1.1,4,1.5,6,2.4C148.9,166.1,147.6,160,145.8,153.9z"/>
			<linearGradient id="XMLID_7_" gradientUnits="userSpaceOnUse" x1="159.7595" y1="203.2655" x2="143.2172" y2="203.7148">
				<stop  offset="0" style="stop-color:#FFFFFF"/>
				<stop  offset="1" style="stop-color:#000000"/>
			</linearGradient>
			<path id="XMLID_418_" class="st6" d="M149.9,172.2c-2-0.8-4.1-1.3-6-2.4c-2,20.9-2.8,41.6-0.4,62.5c2.6,2.4,5.9,4.1,9.3,4.9
				C153.1,215.6,153.5,193.8,149.9,172.2z"/>
			<path id="XMLID_417_" class="st29" d="M142.1,239.5c-1.8-0.3-3.5-0.6-5.3-1c-0.1,0-0.2,0-0.3,0c0.1,3.6,0.6,26,0.6,31.4
				c0,4.4-0.2,8.2-0.3,9.9c0.7,0.5,1.3,1.1,1.9,0.9c2.1-0.6,4.1-1.2,6.2-1.8C142.8,265.7,141.2,252.9,142.1,239.5z"/>
			<path id="XMLID_416_" class="st32" d="M161,240c-2.7,0-5.4,0-8.1,0c0,4.9-0.1,9.8,0,14.7c0,7.2,1.2,14.4,1.6,21.7
				c2.7-0.6,5.3-1.2,8-1.8C162.2,263.1,161.6,251.6,161,240z"/>
			<linearGradient id="XMLID_8_" gradientUnits="userSpaceOnUse" x1="157.637" y1="259.3676" x2="145.05" y2="260.1483">
				<stop  offset="0" style="stop-color:#FFFFFF"/>
				<stop  offset="1" style="stop-color:#000000"/>
			</linearGradient>
			<path id="XMLID_415_" class="st7" d="M145,278.9c3.2-0.9,6.3-1.7,9.5-2.4c-0.4-7.2-1.6-14.4-1.6-21.7c0-2.3,0-4.5,0-6.8
				c-3.9-1.5-7.6-3.6-10.8-6.3C141.4,254.2,142.9,266.4,145,278.9z"/>
			<path id="XMLID_414_" d="M143.5,232.4c0,0.1,0,0.2,0,0.4c0,0,0,0.1-0.2,0.4c-0.6,1-0.8,0.6-0.8,1.2c-0.2,1.7-0.4,3.4-0.5,5.1
				c-0.1,0.7-0.1,1.4-0.1,2.2c3.2,2.7,6.9,4.8,10.8,6.3c0-2.6,0-5.2,0-7.9c0-0.9,0-1.9,0-2.8C149.4,236.4,146.1,234.8,143.5,232.4z"
				/>
			<path id="XMLID_413_" class="st29" d="M154.4,335.9c-4.8-11.2-4.5-26.5-6.4-39c-1-6.1-2.1-12.1-3.1-18.1
				c-2.1,0.6-4.1,1.2-6.2,1.8c-0.6,0.2-1.2-0.4-1.9-0.9c0,0.6-0.1,0.9-0.1,0.9s-0.6,18.6-0.6,26.6c0,8,0.6,16.7,1.9,22
				c1.2,5.3,3.7,10.4,6.2,13.6c1.2,1.6,3.7,4.4,3.7,4.4h0.6C152.7,343.6,156.8,341.7,154.4,335.9z"/>
			<path id="XMLID_412_" class="st32" d="M154.4,286.4c-0.6,3.8-1.3,7.7-1,11.5c1.3,8.9,2.6,17.2,4.5,26.2c0.2,1.7,1.6,3,3.4,3.7
				c2.6-9.2,1.2-20.1,1.4-29.3c0.1-8,0-15.9-0.3-23.8c-2.7,0.5-5.3,1.1-8,1.8C154.7,279.8,154.7,283.1,154.4,286.4z"/>
			<path id="XMLID_411_" d="M154.5,276.4c-3.2,0.7-6.3,1.6-9.5,2.4c0.3,2,0.7,3.9,1,5.9l8.7-2.7
				C154.7,280.2,154.6,278.3,154.5,276.4z"/>
			<linearGradient id="XMLID_9_" gradientUnits="userSpaceOnUse" x1="160.1187" y1="304.768" x2="150.1902" y2="306.5696">
				<stop  offset="0" style="stop-color:#FFFFFF"/>
				<stop  offset="1" style="stop-color:#000000"/>
			</linearGradient>
			<path id="XMLID_410_" class="st8" d="M153.5,297.9c-0.3-3.8,0.3-7.7,1-11.5c0.1-1.5,0.2-2.9,0.2-4.4l-8.7,2.7
				c0.7,4,1.4,8.1,2.1,12.2c1.6,10.3,1.6,22.7,4.4,33l3.7-15.5C155.1,309,154.3,303.6,153.5,297.9z"/>
			<path id="XMLID_409_" class="st10" d="M157.9,324.1c-0.7-3.3-1.3-6.5-1.9-9.6l-3.7,15.5c0.6,2.1,1.2,4.1,2,6
				c0.4,1,0.6,1.8,0.7,2.6c3.2-3,5.1-6.7,6.2-10.7C159.5,327.1,158.2,325.8,157.9,324.1z"/>
			<path id="XMLID_408_" class="st32" d="M152.8,240.1c2.7,0,5.4,0,8.1,0c-1-18.3-2.2-36.5-3-54.9c-2.2,0-4.3,0.4-6.2,1.6
				C153.4,204.5,153,222.3,152.8,240.1z"/>
			<path id="XMLID_407_" class="st35" d="M155.4,170.8c-0.9-6.1-1.9-12-2.9-17.8c-1.3-7.9-2.6-15.8-3.7-24c-1.8,0.8-3.5,1.5-5.5,1.3
				c0.9,7.4,0.4,14.7,2.1,21.8c0.1,0.6,0.3,1.2,0.5,1.8c3.1,10.9,4.9,21.9,6,32.9c1.9-1.2,4-1.6,6.2-1.6c0-0.1,0-0.2,0-0.3
				C157.6,180.1,156,175.6,155.4,170.8z"/>
			<path id="XMLID_406_" d="M162.4,69c-9.5,3.3-15.1,6.7-16.1,7.3c0.2,1.4,0.3,2.8,0.2,4.2C151.9,76.9,157.2,73,162.4,69z"/>
			<path id="XMLID_405_" class="st10" d="M137,215.2c-2.3,2.4-2.6,6.2-2.6,9.6c0,0.7,0,1.3,0.3,1.9c0.2,0.4,0.5,0.7,0.7,1.1
				c0.6,1,0.4,2.3,0.5,3.4c0,0.5,0.2,1,0.5,1.4c0.3,0.4,1,0.5,1.4,0.2c0-2.2,0-4.4,0-6.6c-0.8,0.1-1.6-0.5-1.9-1.3
				c-0.3-0.8-0.3-1.6-0.2-2.5c0.1-1.9,0.4-4.1,2.1-4.9c0.2-0.1,0.4-0.2,0.4-0.3c0.1-0.2,0-0.4-0.1-0.6c-0.2-0.4-0.3-0.8-0.5-1.2
				c-0.1-0.1-0.1-0.3-0.3-0.2c-0.1,0,0,0.3,0.1,0.2"/>
			<path id="XMLID_404_" class="st10" d="M144.4,156c-0.6-0.6-1.3-1-1.8-1.3c-0.6-0.3-1-0.6-1-0.6c0.2,2.1-1.1,4.5-2.9,5.6
				c-2.1,1.4-4.6,2.2-6.9,3.1c-2.3,1-4.7,2.1-6.3,4.1c-1.5,1.7-2.2,4.1-1.7,6.3l15.8-4.6c0.2-0.4,0.3-0.9,0.2-1.7
				c0.4-0.2,1-0.4,1.4-0.6c1,1.5,1.2,1.6,2.7,2.6C144.8,163.9,144.7,160.6,144.4,156z"/>
			<path id="XMLID_403_" d="M124.2,174c4.3-1.3,6.9-2.1,11.2-3.4c0.8-0.2,2.1-0.6,2.9-0.9c0.5-0.2,1.1-0.4,1.4-1.1l-15.8,4.6
				C124,173.5,124.1,173.8,124.2,174z"/>
			<path id="XMLID_402_" class="st29" d="M258.9,232.8C259.1,232.1,258.9,232.8,258.9,232.8c2.6-22.1,1.6-43.8-0.6-65.9
				c-0.6-5.2-0.3-10.2,0.2-15.2c2.6-0.6,5.1-1.4,7.4-2.8c0.1,8.2,0.5,22.4,0.7,34.8c0.3,16.4-0.6,54.2-0.6,54.2s0,0.2,0,0.5
				c-0.1,0-0.2,0-0.3,0c-1.8,0.4-3.5,0.7-5.3,1c-0.1-1.7-0.3-3.4-0.5-5.1C259.9,233.7,259.4,233.4,258.9,232.8z"/>
			<path id="XMLID_400_" class="st29" d="M260.8,151.2c-0.6-10-2.5-41.8-3.2-45.8c-0.8-4.4-0.7-11.6-2.9-16c4,0.8,7.7,2.7,10.3,5.7
				c0.9,10.2,1.8,27.9,1.8,32.3c0,5-0.6,11.1-0.9,15.8c-0.1,1.1-0.1,3.1-0.1,5.8C264.3,150,262.6,150.7,260.8,151.2z"/>
			<path id="XMLID_399_" d="M258.6,116.5c-1.3-14.1-2-22.1-7.7-29.1c-2.9-3.5-8.6-6.7-21.1-12.5c-9.2-4.2-22.8-4.8-28.4-4.8
				c-5.6,0-19.6,0.6-28.8,4.8c-12.5,5.7-18.2,8.9-21.1,12.5c-5.7,6.9-6.4,15-7.7,29.1s-0.6,38.6-0.6,38.6l3.5,2.6l-1.9-16l-0.3-11.2
				c0,0,5.1-31.9,9.9-37.7c4.8-5.7,14.7-14.4,19.5-15.6c3.8-1,20.8-2.4,27.5-3c6.8,0.5,23.4,2,27.1,3c4.8,1.3,14.7,9.9,19.5,15.6
				c4.8,5.7,9.9,37.7,9.9,37.7l-0.3,11.2l-1.9,16l3.5-2.6C259.2,155.2,259.9,130.6,258.6,116.5z"/>
			<path id="XMLID_398_" class="st30" d="M256.7,153.9c0.2-0.6,0.3-1.2,0.5-1.8c0.5-0.1,0.9-0.2,1.4-0.3c-0.5,5-0.9,10-0.2,15.2
				c0.1,1,0.2,1.9,0.3,2.9c-1.9,1.1-4,1.5-6,2.4C253.6,166.1,254.9,160,256.7,153.9z"/>
			
				<linearGradient id="XMLID_10_" gradientUnits="userSpaceOnUse" x1="5646.6445" y1="203.2655" x2="5630.1021" y2="203.7148" gradientTransform="matrix(-1 0 0 1 5889.3555 0)">
				<stop  offset="0" style="stop-color:#FFFFFF"/>
				<stop  offset="1" style="stop-color:#000000"/>
			</linearGradient>
			<path id="XMLID_397_" style="fill:url(#XMLID_10_);" d="M252.6,172.2c2-0.8,4.1-1.3,6-2.4c2,20.9,2.8,41.6,0.4,62.5
				c-2.6,2.4-5.9,4.1-9.3,4.9C249.4,215.6,249,193.8,252.6,172.2z"/>
			<path id="XMLID_396_" class="st29" d="M260.3,239.5c1.8-0.3,3.5-0.6,5.3-1c0.1,0,0.2,0,0.3,0c-0.1,3.6-0.6,26-0.6,31.4
				c0,4.4,0.2,8.2,0.3,9.9c-0.7,0.5-1.3,1.1-1.9,0.9c-2.1-0.6-4.1-1.2-6.2-1.8C259.7,265.7,261.3,252.9,260.3,239.5z"/>
			<path id="XMLID_395_" class="st32" d="M241.5,240c2.7,0,5.4,0,8.1,0c0,4.9,0.1,9.8,0,14.7c0,7.2-1.2,14.4-1.6,21.7
				c-2.7-0.6-5.3-1.2-8-1.8C240.3,263.1,240.9,251.6,241.5,240z"/>
			
				<linearGradient id="XMLID_11_" gradientUnits="userSpaceOnUse" x1="5644.522" y1="259.3676" x2="5631.9346" y2="260.1483" gradientTransform="matrix(-1 0 0 1 5889.3555 0)">
				<stop  offset="0" style="stop-color:#FFFFFF"/>
				<stop  offset="1" style="stop-color:#000000"/>
			</linearGradient>
			<path id="XMLID_394_" class="st12" d="M257.5,278.9c-3.2-0.9-6.3-1.7-9.5-2.4c0.4-7.2,1.6-14.4,1.6-21.7c0-2.3,0-4.5,0-6.8
				c3.9-1.5,7.6-3.6,10.8-6.3C261.1,254.2,259.5,266.4,257.5,278.9z"/>
			<path id="XMLID_393_" d="M258.9,232.4c0,0.1,0,0.2,0,0.4c0,0,0,0.1,0.2,0.4c0.6,1,0.8,0.6,0.8,1.2c0.2,1.7,0.4,3.4,0.5,5.1
				c0.1,0.7,0.1,1.4,0.1,2.2c-3.2,2.7-6.9,4.8-10.8,6.3c0-2.6,0-5.2,0-7.9c0-0.9,0-1.9,0-2.8C253,236.4,256.4,234.8,258.9,232.4z"/>
			<path id="XMLID_392_" class="st29" d="M248,335.9c4.8-11.2,4.5-26.5,6.4-39c1-6.1,2.1-12.1,3.1-18.1c2.1,0.6,4.1,1.2,6.2,1.8
				c0.6,0.2,1.2-0.4,1.9-0.9c0,0.6,0.1,0.9,0.1,0.9s0.6,18.6,0.6,26.6c0,8-0.6,16.7-1.9,22c-1.2,5.3-3.7,10.4-6.2,13.6
				c-1.2,1.6-3.7,4.4-3.7,4.4h-0.6C249.8,343.6,245.7,341.7,248,335.9z"/>
			<path id="XMLID_391_" class="st32" d="M248,286.4c0.6,3.8,1.3,7.7,1,11.5c-1.3,8.9-2.6,17.2-4.5,26.2c-0.2,1.7-1.6,3-3.4,3.7
				c-2.6-9.2-1.2-20.1-1.4-29.3c-0.1-8,0-15.9,0.3-23.8c2.7,0.5,5.3,1.1,8,1.8C247.8,279.8,247.7,283.1,248,286.4z"/>
			<path id="XMLID_390_" d="M248,276.4c3.2,0.7,6.3,1.6,9.5,2.4c-0.3,2-0.7,3.9-1,5.9l-8.7-2.7C247.8,280.2,247.9,278.3,248,276.4z"
				/>
			
				<linearGradient id="XMLID_12_" gradientUnits="userSpaceOnUse" x1="5647.0034" y1="304.768" x2="5637.0752" y2="306.5696" gradientTransform="matrix(-1 0 0 1 5889.3555 0)">
				<stop  offset="0" style="stop-color:#FFFFFF"/>
				<stop  offset="1" style="stop-color:#000000"/>
			</linearGradient>
			<path id="XMLID_389_" class="st13" d="M249,297.9c0.3-3.8-0.3-7.7-1-11.5c-0.1-1.5-0.2-2.9-0.2-4.4l8.7,2.7
				c-0.7,4-1.4,8.1-2.1,12.2c-1.6,10.3-1.6,22.7-4.4,33l-3.7-15.5C247.4,309,248.2,303.6,249,297.9z"/>
			<path id="XMLID_388_" class="st10" d="M244.5,324.1c0.7-3.3,1.3-6.5,1.9-9.6l3.7,15.5c-0.6,2.1-1.2,4.1-2,6
				c-0.4,1-0.6,1.8-0.7,2.6c-3.2-3-5.1-6.7-6.2-10.7C242.9,327.1,244.3,325.8,244.5,324.1z"/>
			<linearGradient id="XMLID_13_" gradientUnits="userSpaceOnUse" x1="118.0049" y1="340.9606" x2="298.0028" y2="340.9606">
				<stop  offset="0" style="stop-color:#FFFFFF"/>
				<stop  offset="1" style="stop-color:#000000"/>
			</linearGradient>
			<path id="XMLID_386_" class="st14" d="M241.2,327.8c-1.5,2.3-4.5,3.4-6.8,4c-11,3-21.9,4.2-32.9,3.6c-11,0.7-22.3-0.6-33.3-3.6
				c-2.3-0.5-5.3-1.7-6.8-4c-1.1,4-3,7.6-6.1,10.6c8.7,16.1,28.9,15.6,46.2,15.8c17.3-0.1,37.1,0.4,45.9-15.8
				C244.2,335.4,242.3,331.7,241.2,327.8z"/>
			<path id="XMLID_385_" class="st40" d="M201.4,183.4c-14.4-0.2-29.1,0.7-43.5,1.6c0.8,18.4,2,36.7,3,55
				c0.6,11.5,1.2,23.1,1.5,34.6c0.2,7.9,0.3,15.9,0.3,23.8c-0.1,3.9,0.1,8.1,0.2,12.3c11.8,5.2,25.7,4.6,38.5,4.9
				c12.8-0.3,26.4,0.3,38.1-4.9c0.1-4.3,0.3-8.5,0.2-12.3c-0.1-8,0-15.9,0.3-23.8c0.3-11.6,0.9-23.1,1.5-34.6c1-18.3,2.2-36.6,3-55
				C230.2,184.1,215.8,183.2,201.4,183.4z"/>
			<path id="XMLID_384_" class="st32" d="M239.6,310.9c-11.8,5.2-25.3,4.4-38.1,4.7c-12.8-0.3-26.8,0.5-38.5-4.7
				c0.1,4.3,0,8.6-0.7,12.7c1.4,2.4,3.2,4.6,5.6,5.7c10.7,4,22.2,3.8,33.6,4.1c11.4-0.4,22.5-0.1,33.2-4.1c2.4-1.1,4.2-3.3,5.6-5.7
				C239.6,319.4,239.5,315.1,239.6,310.9z"/>
			<path id="XMLID_383_" d="M240.2,323.5c-1.4,2.4-3.2,4.6-5.6,5.7c-10.7,4-21.8,3.8-33.2,4.1c-11.4-0.4-22.9-0.1-33.6-4.1
				c-2.4-1.1-4.2-3.3-5.6-5.7c-0.2,1.4-0.5,2.9-0.9,4.2c1.5,2.3,4.5,3.4,6.8,4c11,3,22.3,4,33.3,4c11,0,21.9-1.1,32.9-4
				c2.3-0.5,5.3-1.7,6.8-4C240.8,326.4,240.5,325,240.2,323.5z"/>
			<path id="XMLID_382_" class="st29" d="M247.4,338.5c0,0-0.1-0.1-0.1-0.1c-8.7,16.1-28.5,15.6-45.9,15.8
				c-17.3-0.1-37.5,0.4-46.2-15.8c0,0-0.1,0.1-0.1,0.1c0.3,3.9-3.1,5.8-6.5,8.9h0.7l3.6,5.3c0,0,4.5,2.2,9.6,3s17.4,2.7,23.3,3
				c3.9,0.2,11.3,0.3,15.6,0.4c4.3-0.1,11.3-0.3,15.2-0.4c6-0.3,18.3-2.2,23.3-3s9.6-3,9.6-3l3.6-5.3h0.7
				C250.5,344.2,247.1,342.4,247.4,338.5z"/>
			<path id="XMLID_381_" class="st32" d="M249.6,240.1c-2.7,0-5.4,0-8.1,0c1-18.3,2.2-36.5,3-54.9c2.2,0,4.3,0.4,6.2,1.6
				C249.1,204.5,249.5,222.3,249.6,240.1z"/>
			<path id="XMLID_380_" class="st35" d="M247.1,170.8c0.9-6.1,1.9-12,2.9-17.8c1.3-7.9,2.6-15.8,3.7-24c1.8,0.8,3.5,1.5,5.5,1.3
				c-0.9,7.4-0.4,14.7-2.1,21.8c-0.1,0.6-0.3,1.2-0.5,1.8c-3.1,10.9-4.9,21.9-6,32.9c-1.9-1.2-4-1.6-6.2-1.6c0-0.1,0-0.2,0-0.3
				C244.9,180.1,246.4,175.6,247.1,170.8z"/>
			<path id="XMLID_379_" class="st41" d="M251.2,119.7c-1-1.9-4.5-5.1-7.7-6.4s-17.9-6.7-31.3-7.3c-5-0.2-8.5-0.3-10.9-0.4
				c-2.4,0-6.2,0.1-11.2,0.4c-13.4,0.6-28.1,6.1-31.3,7.3c-3.2,1.3-6.7,4.5-7.7,6.4c-1,1.9-3.2,9.3-3.2,9.3l8.9,56.2
				c0,0,11.5-1,25.9-1.3c8-0.2,14.6-0.2,18.6-0.1c3.9-0.1,10.2-0.1,18.2,0.1c14.4,0.3,25.9,1.3,25.9,1.3l8.9-56.2
				C254.4,129,252.2,121.6,251.2,119.7z"/>
			<linearGradient id="XMLID_14_" gradientUnits="userSpaceOnUse" x1="150.522" y1="148.612" x2="251.9485" y2="148.612">
				<stop  offset="0" style="stop-color:#FFFFFF"/>
				<stop  offset="1" style="stop-color:#000000"/>
			</linearGradient>
			<path id="XMLID_378_" class="st15" d="M248,127.1c-3.5-3.2-15-7.7-25.2-9.6c-7.2-1.4-16.6-1.4-21.4-1.4c-4.8-0.1-14.5,0-21.8,1.4
				c-10.2,1.9-21.7,6.4-25.2,9.6c-3.5,3.2-4.2,5.1-3.8,8.9c0.3,3.8,7.3,40.2,7.7,41.8c0.3,1.6,0,3.8,5.4,3.2
				c5.4-0.6,16.6-1.6,21.7-1.6s10.2,0.3,10.2,0.3s1.6-0.3,1.6-1.9c0-1.3,0.4-7.3,0.6-9.5c0-0.4,0.4-0.7,0.8-0.7h2.8h2.4
				c0.4,0,0.8,0.3,0.8,0.7c0.2,2.1,0.6,8.2,0.6,9.5c0,1.6,1.6,1.9,1.6,1.9s5.1-0.3,10.2-0.3c5.1,0,16.3,1,21.7,1.6
				c5.4,0.6,5.1-1.6,5.4-3.2c0.3-1.6,7.3-38,7.7-41.8C252.2,132.2,251.6,130.2,248,127.1z"/>
			<path id="XMLID_377_" d="M240.1,69c9.5,3.3,15.1,6.7,16.1,7.3c-0.2,1.4-0.3,2.8-0.2,4.2C250.5,76.9,245.2,73,240.1,69z"/>
			<path id="XMLID_376_" class="st10" d="M265.5,215.2c2.3,2.4,2.6,6.2,2.6,9.6c0,0.7,0,1.3-0.3,1.9c-0.2,0.4-0.5,0.7-0.7,1.1
				c-0.6,1-0.4,2.3-0.5,3.4c0,0.5-0.2,1-0.5,1.4c-0.3,0.4-1,0.5-1.4,0.2c0-2.2,0-4.4,0-6.6c0.8,0.1,1.6-0.5,1.9-1.3
				c0.3-0.8,0.3-1.6,0.2-2.5c-0.1-1.9-0.4-4.1-2.1-4.9c-0.2-0.1-0.4-0.2-0.4-0.3c-0.1-0.2,0-0.4,0.1-0.6c0.2-0.4,0.3-0.8,0.5-1.2
				c0.1-0.1,0.1-0.3,0.3-0.2s0,0.3-0.1,0.2"/>
			<path id="XMLID_375_" class="st10" d="M258.1,156c0.6-0.6,1.3-1,1.8-1.3c0.6-0.3,1-0.6,1-0.6c-0.2,2.1,1.1,4.5,2.9,5.6
				c2.1,1.4,4.6,2.2,6.9,3.1c2.3,1,4.7,2.1,6.3,4.1c1.5,1.7,2.2,4.1,1.7,6.3l-15.8-4.6c-0.2-0.4-0.3-0.9-0.2-1.7
				c-0.4-0.2-1-0.4-1.4-0.6c-1,1.5-1.2,1.6-2.7,2.6C257.6,163.9,257.7,160.6,258.1,156z"/>
			<path id="XMLID_374_" d="M278.3,174c-4.3-1.3-6.9-2.1-11.2-3.4c-0.8-0.2-2.1-0.6-2.9-0.9c-0.5-0.2-1.1-0.4-1.4-1.1l15.8,4.6
				C278.5,173.5,278.4,173.8,278.3,174z"/>
			<path id="XMLID_401_" class="st35" d="M257.6,105.4c-0.9-4.7-0.6-12.6-3.4-16.8c-2.8-4.3-8.9-10.2-16-13.2
				c-7-3-15.8-4.3-21.3-4.7c-3.6-0.3-10.9-0.6-15.5-0.9c-4.7,0.2-12.3,0.6-15.9,0.9c-5.5,0.4-14.3,1.7-21.3,4.7
				c-7,3-13.2,8.9-16,13.2c-2.8,4.3-2.6,12.1-3.4,16.8c-0.9,4.7-3.4,48.8-3.4,48.8l5.3,3.5l4.1,0c-5.6-14.6-9.7-32.9,3.2-43.8
				c13-11.1,30.5-12.8,47.3-13.6c16.8,0.8,34,2.5,46.9,13.6c13,10.9,8.8,29.1,3.2,43.8l4.1,0l5.3-3.5
				C261,154.2,258.5,110.1,257.6,105.4z"/>
			<path id="XMLID_387_" class="st43" d="M256.9,130.6c0,0-4.7-30.4-6.7-35.8C246.6,84.6,229.8,75,229.8,75s-0.3,1-4.2,0.6
				s-18.2-2.2-18.2-2.2s-2.6-0.3-3.2-1.3s-1.1-1.4-1.1-1.4h-1.8h-2.2c0,0-0.4,0.5-1.1,1.4s-3.2,1.3-3.2,1.3s-14.4,1.9-18.2,2.2
				s-4.2-0.6-4.2-0.6s-16.7,9.6-20.4,19.8c-2,5.4-6.7,35.8-6.7,35.8l2.6-0.9L148,129c0,0,2.2-7.3,3.2-9.3c1-1.9,4.5-5.1,7.7-6.4
				c3.2-1.3,17.9-6.7,31.3-7.3c5-0.2,8.9-0.3,11.2-0.4c2.4,0,5.8,0.1,10.9,0.4c13.4,0.6,28.1,6.1,31.3,7.3s6.7,4.5,7.7,6.4
				c1,1.9,3.2,9.3,3.2,9.3l-0.1,0.7L256.9,130.6z"/>
			<circle id="XMLID_373_" class="st35" cx="201" cy="77.3" r="3.1"/>
		</g>
	</g>
</g>
</svg>
