<?xml version="1.0" encoding="utf-8"?>
<!-- Generator: Adobe Illustrator 21.0.2, SVG Export Plug-In . SVG Version: 6.00 Build 0)  -->
<svg version="1.1" xmlns="http://www.w3.org/2000/svg" xmlns:xlink="http://www.w3.org/1999/xlink" x="0px" y="0px"
	 viewBox="0 0 417.7 461.1" style="enable-background:new 0 0 417.7 461.1;" xml:space="preserve">
<style type="text/css">
	.st0{fill:#BFBFBF;}
	.st1{fill:#BF0411;}
	.st2{fill:none;stroke:#000000;stroke-width:0.5;stroke-miterlimit:10;}
	.st3{fill:#CE6B00;}
	.st4{fill:none;stroke:#BF0411;stroke-width:0.5;stroke-miterlimit:10;}
	.st5{fill:#BF0411;stroke:#000000;stroke-width:0.5;stroke-miterlimit:10;}
	.st6{fill:url(#XMLID_7_);}
	.st7{fill:url(#XMLID_8_);}
	.st8{fill:url(#XMLID_9_);}
	.st9{fill:url(#XMLID_10_);stroke:#000000;stroke-width:0.5;stroke-miterlimit:10;}
	.st10{fill:#333333;}
	.st11{fill:#D9D9D9;}
	.st12{fill:url(#XMLID_11_);}
	.st13{fill:url(#XMLID_12_);}
	.st14{fill:url(#XMLID_13_);}
	.st15{fill:url(#XMLID_14_);}
	.st16{fill:url(#XMLID_15_);}
	.st17{fill:url(#XMLID_16_);}
	.st18{fill:url(#XMLID_17_);}
	.st19{fill:url(#XMLID_18_);}
	.st20{fill:url(#XMLID_19_);}
	.st21{fill:url(#XMLID_20_);}
	.st22{fill:url(#XMLID_21_);}
	.st23{fill:url(#XMLID_22_);}
	.st24{fill:url(#XMLID_23_);}
	.st25{fill:url(#XMLID_24_);}
	.st26{fill:url(#XMLID_25_);}
	.st27{fill:url(#XMLID_26_);}
	.st28{fill:url(#XMLID_27_);stroke:#000000;stroke-width:0.5;stroke-miterlimit:10;}
	.st29{fill:#1A75B8;stroke:#333333;stroke-miterlimit:10;}
	.st30{fill:#1A1A1A;}
	.st31{fill:url(#XMLID_28_);}
	.st32{fill:#0066B0;stroke:#333333;stroke-miterlimit:10;}
	.st33{fill:url(#XMLID_29_);}
	.st34{fill:url(#XMLID_30_);}
	.st35{fill:#0066B0;}
	.st36{fill:url(#XMLID_31_);}
	.st37{fill:url(#XMLID_32_);}
	.st38{fill:url(#XMLID_33_);}
	.st39{fill:url(#XMLID_34_);}
	.st40{fill:#4D94C8;stroke:#333333;stroke-miterlimit:10;}
	.st41{fill:#595959;}
	.st42{fill:url(#XMLID_35_);}
	.st43{fill:#3384C0;}
	.st44{fill:#FEF673;stroke:#000000;stroke-width:0.25;stroke-miterlimit:10;}
	.st45{fill:#78AD2C;stroke:#000000;stroke-width:0.25;stroke-miterlimit:10;}
	.st46{fill:none;stroke:#000000;stroke-width:0.25;stroke-miterlimit:10;}
	.st47{fill:#333333;stroke:#000000;stroke-miterlimit:10;}
	.st48{fill:url(#XMLID_36_);stroke:#000000;stroke-miterlimit:10;}
	.st49{fill:#9AC261;stroke:#000000;stroke-width:0.25;stroke-miterlimit:10;}
	.st50{fill:#86B541;stroke:#000000;stroke-width:0.25;stroke-miterlimit:10;}
	.st51{stroke:#000000;stroke-miterlimit:10;}
	.st52{fill:url(#XMLID_37_);stroke:#000000;stroke-miterlimit:10;}
	.st53{fill:#FEF566;stroke:#000000;stroke-width:0.25;stroke-miterlimit:10;}
	.st54{fill:url(#XMLID_38_);stroke:#000000;stroke-miterlimit:10;}
	.st55{fill:#BF0411;stroke:#000000;stroke-miterlimit:10;}
	.st56{fill:url(#XMLID_39_);stroke:#000000;stroke-miterlimit:10;}
	.st57{fill:url(#XMLID_40_);stroke:#000000;stroke-miterlimit:10;}
	.st58{fill:url(#XMLID_41_);stroke:#000000;stroke-miterlimit:10;}
	.st59{fill:#78AD2C;stroke:#000000;stroke-width:0.25;stroke-linejoin:bevel;stroke-miterlimit:10;}
	.st60{fill:url(#XMLID_42_);stroke:#000000;stroke-miterlimit:10;}
	.st61{fill:url(#XMLID_43_);}
	.st62{fill:url(#XMLID_44_);stroke:#000000;stroke-miterlimit:10;}
	.st63{fill:#9AC261;stroke:#000000;stroke-width:0.25;stroke-linejoin:bevel;stroke-miterlimit:10;}
	.st64{fill:#EE8800;}
	.st65{fill:#EE8800;stroke:#000000;stroke-width:0.5;stroke-miterlimit:10;}
	.st66{fill:url(#XMLID_45_);}
	.st67{fill:url(#XMLID_46_);}
	.st68{fill:url(#XMLID_47_);}
	.st69{fill:url(#XMLID_48_);stroke:#000000;stroke-width:0.5;stroke-miterlimit:10;}
	.st70{fill:#EE8800;stroke:#FFFFFF;stroke-width:0.5;stroke-miterlimit:10;}
	.st71{fill:url(#XMLID_49_);}
	.st72{fill:url(#XMLID_50_);}
	.st73{fill:url(#XMLID_51_);}
	.st74{fill:url(#XMLID_52_);}
	.st75{fill:url(#XMLID_53_);}
	.st76{fill:url(#XMLID_54_);}
	.st77{fill:url(#XMLID_55_);}
	.st78{fill:url(#XMLID_56_);}
	.st79{fill:url(#XMLID_57_);}
	.st80{fill:url(#XMLID_58_);}
	.st81{fill:url(#XMLID_59_);}
	.st82{fill:url(#XMLID_60_);}
	.st83{fill:url(#XMLID_61_);}
	.st84{fill:url(#XMLID_62_);}
	.st85{fill:url(#XMLID_63_);}
	.st86{fill:url(#XMLID_64_);}
	.st87{fill:url(#XMLID_65_);stroke:#000000;stroke-width:0.5;stroke-miterlimit:10;}
	.st88{fill:#808080;stroke:#333333;stroke-miterlimit:10;}
	.st89{fill:url(#XMLID_66_);}
	.st90{fill:url(#XMLID_67_);}
	.st91{fill:url(#XMLID_68_);}
	.st92{fill:#666666;}
	.st93{fill:url(#XMLID_69_);}
	.st94{fill:url(#XMLID_70_);}
	.st95{fill:url(#XMLID_71_);}
	.st96{fill:#A6A6A6;}
	.st97{fill:url(#XMLID_80_);}
	.st98{fill:url(#XMLID_82_);}
	.st99{fill:#FEEE00;stroke:#000000;stroke-width:0.25;stroke-miterlimit:10;}
	.st100{fill:url(#XMLID_83_);stroke:#000000;stroke-miterlimit:10;}
	.st101{fill:#FEF34D;stroke:#000000;stroke-width:0.25;stroke-miterlimit:10;}
	.st102{fill:url(#XMLID_88_);stroke:#000000;stroke-miterlimit:10;}
	.st103{fill:url(#XMLID_89_);stroke:#000000;stroke-miterlimit:10;}
	.st104{fill:url(#XMLID_90_);stroke:#000000;stroke-miterlimit:10;}
	.st105{fill:url(#XMLID_92_);stroke:#000000;stroke-miterlimit:10;}
	.st106{fill:url(#XMLID_93_);stroke:#000000;stroke-miterlimit:10;}
	.st107{fill:#FEEE00;stroke:#000000;stroke-width:0.25;stroke-linejoin:bevel;stroke-miterlimit:10;}
	.st108{fill:url(#XMLID_99_);stroke:#000000;stroke-miterlimit:10;}
	.st109{fill:#FEF01A;stroke:#000000;stroke-width:0.25;stroke-miterlimit:10;}
	.st110{fill:url(#XMLID_106_);}
	.st111{fill:url(#XMLID_112_);stroke:#000000;stroke-miterlimit:10;}
	.st112{fill:#FEF34D;stroke:#000000;stroke-width:0.25;stroke-linejoin:bevel;stroke-miterlimit:10;}
</style>
<g id="Background">
</g>
<g id="Objects">
	<g id="XMLID_6_">
		<path id="XMLID_721_" class="st0" d="M284.8,188.7c-1.4-1.3-3.2-2.8-4.9-4.3c-1.1-1-2.2-2-3-2.9c-0.3-0.3-0.5-0.5-0.7-0.8
			c0-2.5-0.1-4.8-0.1-6.9c0-0.3,0-0.7,0-1c-0.2-0.1-0.4-0.2-0.6-0.3c0.2,0.1,0.4,0.2,0.6,0.3c0-1,0-2.1,0-3.3h0.4c0,0,0.4-1,0.4-1.9
			c0-0.9-0.5-1.8-0.5-1.8l-0.3,0c0.1-10.9,0.4-25.6-0.1-30.7c-0.9-9.3-1-9.7-2.9-15.7s-6.8-13.2-17.1-20.9c-8.8-6.5-25.6-8-34.8-8.3
			c0,0,0,0,0,0c-2.5-0.2-4.3-0.1-5.4-0.1c-1,0-2.5-0.1-4.9,0.1c-9,0.3-25.9,1.8-34.9,8.3c-10.4,7.6-15.2,14.8-17.1,20.9
			c-1.9,6-2,6.4-2.9,15.7c-0.5,5.1-0.2,19.8-0.1,30.7l-0.3,0c0,0-0.5,0.9-0.5,1.8c0,0.9,0.4,1.9,0.4,1.9h0.4c0,1.2,0,2.3,0,3.3
			c0,0.3,0,0.7,0,1c0,2.1,0,4.4-0.1,6.9c-0.2,0.2-0.5,0.5-0.7,0.8c-0.8,0.9-1.9,1.9-3,2.9c-1.7,1.5-3.6,3-4.9,4.3
			c-2,1.8-3.4,3.5-3.1,5.8c0,0.2,0.1,0.4,0.2,0.7c0.1,0.3,0.4,0.5,0.7,0.4c3.7-1.2,7.1-2.4,10.7-3.8c-0.3,14.3-0.8,31.3-1,45.4
			c-0.6,0.6-1.2,1.7-1.3,2.7c-0.2,1.4-0.3,2.5-0.2,3.9c0.1,1.6,0.6,3,1.3,4.4c0,2.1,0,4,0,5.8c2.5-0.7,4.8,1.4,7.3,2.4
			c-0.1-16.6-0.1-38.1-0.2-54.8c0.1,11.1,0.1,27.9,0.2,45.5c0,0.7,0,7.5,0,9.5c0,0,0,0,0,0c0,0,0,0,0,0c-0.1,0-0.2-0.1-0.4-0.1
			c-2.3-1.1-4.6-3-6.9-2.3c0,14,0.1,32.1,0.1,47c-0.2,0.5-0.4,1-0.5,1.6c-0.2,1.4-0.3,2.5-0.2,3.9c0.1,1,0.3,2,0.7,3
			c0,4.1,0,7.7,0,10.7c0.7,1.6,1.5,2.8,2.3,3.7c-0.8-0.8-1.5-1.9-2.3-3.3c0.2,3.6,0.2,6.3,0.2,7.8c-0.2,6,0.1,10.7,0.9,19.3
			c0.7,7.8,2.4,16.1,5.6,20.9c0.2,0.3,0.4,0.5,0.5,0.8c0.2,0.2,0.4,0.5,0.5,0.7c0.3,0.3,0.6,0.6,0.9,0.9c0.1,0.1,0.2,0.2,0.3,0.2
			c0.1,0.1,0.2,0.2,0.3,0.2c0.1,0.1,0.1,0.1,0.2,0.2l0,0c1,0.8,2.2,1.6,3.5,2.4c-0.1-0.1-0.2-0.1-0.3-0.2c6.4,3.8,16.4,6.8,26.2,7.7
			c5.3,0.5,15.5,0.8,22.4,1c0,0,0,0,0.1,0c0,0,0.1,0,0.1,0c6.9-0.2,17.6-0.5,22.9-1c9.8-0.9,19.8-3.9,26.2-7.7
			c-0.1,0.1-0.2,0.1-0.3,0.2c1.4-0.8,2.5-1.6,3.5-2.4l0,0c0.1-0.1,0.1-0.1,0.2-0.2c0.1-0.1,0.2-0.2,0.3-0.2c0.1-0.1,0.2-0.2,0.3-0.2
			c0.3-0.3,0.6-0.6,0.9-0.9c0.2-0.2,0.4-0.4,0.5-0.7c0.2-0.2,0.4-0.5,0.5-0.8c3.2-4.8,4.9-13.1,5.6-20.9c0.8-8.6,1-13.3,0.9-19.3
			c0-1.4,0-4.2,0.2-7.8c-0.7,1.4-1.5,2.4-2.3,3.3c0.8-0.9,1.5-2.1,2.3-3.7c0-2.9,0-6.6,0-10.7c0.3-0.9,0.6-1.9,0.7-3
			c0.1-1.4,0-2.5-0.2-3.9c-0.1-0.6-0.2-1.1-0.5-1.6c0-14.8,0-33,0.1-47c0-1.8,0-3.7,0-5.8c0.7-1.3,1.2-2.8,1.3-4.4
			c0.1-1.4,0-2.5-0.2-3.9c-0.1-1.1-0.7-2.1-1.3-2.7c-0.3-14.1-0.7-31.1-1-45.4c3.7,1.4,7,2.6,10.7,3.8c0.3,0.1,0.6-0.1,0.7-0.4
			c0.1-0.2,0.1-0.4,0.2-0.7C288.2,192.2,286.8,190.5,284.8,188.7z"/>
		<g id="XMLID_72_">
			<path id="XMLID_189_" class="st64" d="M253.6,312.6c0.3-6,1.1-19.4,1.1-23.4c0-4.1,0.1-23.9,0.2-46.1c0,0,0,0,0,0
				c0,1.5,0,5.3,0-0.7c2.3-0.8,4.8-3.2,7.3-2.5c-0.1,21.1-0.1,51.8-0.1,66.1C259.7,310.8,257,312.5,253.6,312.6z"/>
			<path id="XMLID_97_" class="st64" d="M260.8,158.8c0,0.3,0,0.7,0,1c0.1,20,1.5,60.3,1.5,80.1c-2.5-0.7-4.8,1.4-7.3,2.4
				c0.1-29.8,0.2-75.9,0.2-80.5c-0.1-0.7-0.1-2.1-0.2-3.6C257,158.4,259.2,158,260.8,158.8z"/>
			<path id="XMLID_102_" class="st64" d="M147.9,312.6c-0.3-6-1.1-19.4-1.1-23.4c0-4.1-0.1-23.9-0.2-46.1c0,0,0,0,0,0
				c0,1.5,0,5.3,0-0.7c-2.3-0.8-4.8-3.2-7.3-2.5c0.1,21.1,0.1,51.8,0.1,66.1C141.9,310.8,144.6,312.5,147.9,312.6z"/>
			<path id="XMLID_115_" class="st64" d="M140.8,158.8c0,0.3,0,0.7,0,1c-0.1,20-1.5,60.3-1.5,80.1c2.5-0.7,4.8,1.4,7.3,2.4
				c-0.1-29.8-0.2-75.9-0.2-80.5c0.1-0.7,0.1-2.1,0.2-3.6C144.6,158.4,142.4,158,140.8,158.8z"/>
			<path id="XMLID_120_" d="M254.1,150.8c-0.1-3.2-1-5.9-5-8.9c-4-3-11.4-5-19.5-6.5c-10.3-1.9-27.5-1.7-29-1.7c0,0,0,0-0.1,0
				c-0.1,0-0.1,0-0.1,0c-1.5,0-18.2-0.2-28.5,1.7c-8.1,1.5-15.5,3.5-19.5,6.5c-4,3-4.9,5.7-5,8.9c-0.1,4,9.8,45.8,9.8,45.8
				s7.7-2.9,19.3-4c9.2-0.8,22.9-1,23.8-1c-0.1,0-0.2,0,0.1,0c0.2,0,0.1,0,0,0c0.9,0,15.2,0.2,24.4,1c11.6,1.1,19.3,4,19.3,4
				S254.2,154.8,254.1,150.8z"/>
			<path id="XMLID_147_" class="st64" d="M247.1,195.9c0-2.1-0.9-4.3-1.4-5.1c-0.7,2.6-1.4,5.8-1.4,5.8s-7.7-2.9-19.3-4
				c-8.7-0.8-22.3-1-24.4-1c0.3,0,1,0,0,0c-1,0-0.3,0,0,0c-2.1,0-15.2,0.2-23.9,1c-11.6,1.1-19.3,4-19.3,4s-0.7-3.3-1.2-6
				c-0.6,0.8-1.6,2.9-1.8,4.8c0.5,2,1,4.5,1,6.5c0.9,30.3,3,60.4,1.7,90.7c-0.1,0.7-0.4,1.3-0.8,2c0.3,6.6,0.8,14.8,1.5,20.2
				c0.4,2.8,0.6,6.3,0.9,9.8l41.9-0.6l42.4,0.6c0.3-3.5,0.5-7,0.9-9.8c0.7-5.5,1.3-13.7,1.5-20.2c-0.4-0.7-0.7-1.3-0.8-2
				c-1.3-30.3,0.9-60.4,1.7-90.7C246.2,199.9,246.5,197.9,247.1,195.9z"/>
			<path id="XMLID_190_" class="st64" d="M260.8,121c-0.9-9.3-1-9.7-2.9-15.7c-1.9-6-6.8-13.2-17.1-20.9
				c-11.1-8.2-35.1-8.4-40.1-8.4c-5,0-28.7,0.2-39.8,8.4c-10.4,7.6-15.2,14.8-17.1,20.9c-1.9,6-2,6.4-2.9,15.7
				c-0.6,6.4,0,27.6,0,37.8c1.6-0.9,3.8-0.5,5.7-0.6c0-1.9,0-3.7,0-4.3c0-4,1.9-9,5.9-12c4-3,11.4-5,19.5-6.5
				c8.7-1.6,28.6-1.7,28.6-1.7s20.4,0.1,29.1,1.7c8.1,1.5,15.5,3.5,19.5,6.5c4,3,5.9,8,5.9,12c0,0.5,0,2.4,0,4.3
				c1.9,0.1,4.1-0.3,5.7,0.6C260.8,148.7,261.4,127.4,260.8,121z M200.6,76C200.6,76,200.6,76,200.6,76C200.7,76,200.7,76,200.6,76z
				"/>
			<path id="XMLID_130_" class="st64" d="M152.2,345.4c-2.1-5.9-2.9-14.1-3.5-18.6c-0.4-3.4-0.2-5.3-0.8-14.2c-2.8,0-5.7-1-8.5-6.1
				c0.2,3.6,0.2,6.3,0.2,7.8c-0.2,6,0.1,10.7,0.9,19.3c0.7,8.2,2.6,17,6.1,21.6c0.2,0.2,0.4,0.5,0.5,0.7c0.4,0.5,0.9,0.9,1.4,1.4
				c1.2-3.9,2.5-7.7,3.8-11.6C152.2,345.5,152.2,345.4,152.2,345.4z"/>
			<path id="XMLID_77_" d="M164.1,333.1c12.3,3.3,23.9,2.8,36.4,2.3v-11.7l-41.8,0.6C158.8,328.2,160,332,164.1,333.1z"/>
			<path id="XMLID_128_" class="st2" d="M146.5,158.2c-1.9,0.1-4.1-0.3-5.7,0.6"/>
			<path id="XMLID_100_" class="st3" d="M140.7,151.8l-0.3,0c0,0-0.5,0.9-0.5,1.8s0.4,1.9,0.4,1.9h0.4
				C140.7,154.3,140.7,153.1,140.7,151.8z"/>
			<path id="XMLID_110_" class="st4" d="M200.5,191.7C200.7,191.7,200.5,191.7,200.5,191.7C200.5,191.7,200.7,191.7,200.5,191.7z"/>
			<path id="XMLID_109_" class="st2" d="M139.4,306.1c2.6,5.8,5.6,6.3,8.4,6.5"/>
			<path id="XMLID_111_" class="st4" d="M154.8,245.1c0.1,0,0.1,0,0.2,0C154.9,245.1,154.8,245,154.8,245.1
				C154.8,245,154.8,245.1,154.8,245.1z"/>
			<path id="XMLID_118_" class="st65" d="M155,245.1c0.5,21.5,1.1,39.3,1.1,42.6c0,1.8,0.1,4.3,0.2,7c0.4-0.7,0.7-1.3,0.8-2
				c0.7-15.7,0.4-31.4-0.1-47C156.3,245.5,155.6,245.4,155,245.1z"/>
			<path id="XMLID_119_" class="st65" d="M155.3,201.9c0-2-0.5-4.4-1-6.5c-0.1,1.1-0.3,2.5-0.3,3.8c0,2.3,0.4,27.7,0.8,45.7
				c0.1,0,0.1,0,0.2,0.1c0,0,0,0,0,0c0,0,0,0,0,0c0.7,0.3,1.3,0.5,2,0.5C156.5,231.1,155.7,216.5,155.3,201.9z"/>
			<path id="XMLID_127_" class="st4" d="M200.5,360.6L200.5,360.6C200.6,360.6,200.7,360.6,200.5,360.6z"/>
			<path id="XMLID_133_" d="M152.3,345.6c-1.3,3.9-2.6,7.7-3.8,11.6c0.1,0.1,0.1,0.1,0.2,0.2l3.7-11.5
				C152.3,345.8,152.3,345.7,152.3,345.6z"/>
			<path id="XMLID_129_" class="st4" d="M200.5,360.6L200.5,360.6C200.1,360.6,200.4,360.6,200.5,360.6z"/>
			<g id="XMLID_75_">
				<path id="XMLID_78_" class="st4" d="M151.7,175.8c-0.1-0.2-0.1-0.4-0.2-0.7C151.5,175.3,151.6,175.5,151.7,175.8z"/>
				<linearGradient id="XMLID_7_" gradientUnits="userSpaceOnUse" x1="169.1017" y1="208.3005" x2="147.9677" y2="205.7388">
					<stop  offset="0" style="stop-color:#FFFFFF"/>
					<stop  offset="1" style="stop-color:#000000"/>
				</linearGradient>
				<path id="XMLID_81_" class="st6" d="M156.2,190.6c-1-3.7-1.9-7-3.2-12.9c0,0.1,0,0.2,0.1,0.3c-1.5-1.1-4-2.5-5.5-3.5l-1.2-0.3
					c0,0,0.1,28.4,0.3,58.8c2.2,2.3,5.5,5,8.3,5c-0.5-18.8-0.9-36.2-0.9-38.7C154,196,154.8,192.1,156.2,190.6z"/>
			</g>
			<path id="XMLID_87_" d="M146.6,233c0,0.8,0,9.2,0,10c2.8,0.6,5.7,2,8.3,2.1c0-0.9,0-6.3-0.1-7.1C152.1,238,148.8,235.2,146.6,233
				z"/>
			<linearGradient id="XMLID_8_" gradientUnits="userSpaceOnUse" x1="170.0088" y1="274.5993" x2="144.712" y2="278.1217">
				<stop  offset="0" style="stop-color:#FFFFFF"/>
				<stop  offset="1" style="stop-color:#000000"/>
			</linearGradient>
			<path id="XMLID_141_" class="st7" d="M149.8,310c1.9-4.3,3.8-8.3,5.6-12.4c0.3-0.7,0.6-1.4,0.9-2.1c-0.1-3-0.2-5.8-0.2-7.8
				c0-3.3-0.6-21.1-1.1-42.6c-2.6-0.1-5.5-1.5-8.3-2.1c0.1,23.6,0.2,41.9,0.2,46.2c0,5.7,0.5,15.2,1,23.4
				C148.9,312.3,149.4,310.8,149.8,310z"/>
			<linearGradient id="XMLID_9_" gradientUnits="userSpaceOnUse" x1="168.4611" y1="317.1034" x2="147.2048" y2="330.042">
				<stop  offset="0" style="stop-color:#FFFFFF"/>
				<stop  offset="1" style="stop-color:#000000"/>
			</linearGradient>
			<path id="XMLID_143_" class="st8" d="M157.7,314.9c-0.7-5.2-1.2-13-1.5-19.4c-0.3,0.7-0.6,1.4-0.9,2.1c-1.7,4.1-3.6,8.1-5.6,12.4
				c-0.4,0.9-0.9,2.3-2,2.6c0.4,6.2,0.3,11.1,0.6,13.5c0.7,5.7,1.4,18.2,6.3,23.5c1.2,1.3,2.3,2.2,3.2,3l3.7-13.4
				C159.2,335.4,158.7,322.5,157.7,314.9z"/>
			<path id="XMLID_121_" class="st64" d="M155.7,317.6c-0.5-6.8-1.5-10.7-1.5-17.1c-1.4,3.1-2.4,4.9-3.9,8.2
				c-0.3,0.8-1.3,2.6-1.8,3.6c0.1,4.8,0.7,12.2,0.8,14.2c0.4,8.5,3.1,17.3,3.1,17.3s1.8-3.3,3.3-9.9
				C157.1,327.2,156,322.4,155.7,317.6z"/>
			<path id="XMLID_84_" d="M161.7,339.4c0-0.1-0.1-0.1-0.1-0.2l-3.7,13.4c0.4,0.4,0.6,0.3,1,0.7L163,341
				C162.6,340.6,162,339.8,161.7,339.4z"/>
			<linearGradient id="XMLID_10_" gradientUnits="userSpaceOnUse" x1="161.086" y1="100.3343" x2="154.6814" y2="87.0982">
				<stop  offset="0" style="stop-color:#FFFFFF"/>
				<stop  offset="1" style="stop-color:#000000"/>
			</linearGradient>
			<path id="XMLID_105_" class="st9" d="M151.1,102.9c2.2-5.7,6.5-10.4,11.2-14.3c2-1.6,4.1-3.2,6.5-4.2c0-0.3,0.1-0.6,0.2-0.8
				c0.3-0.7,1-1.4,0.8-1.8c-0.3-0.4-2.3,0.2-3.4,0.8c-7.8,4-13.8,10.4-17.5,18.3c-0.6,1.2-1,2.3-1.1,3.6c-0.3,2.4,0.4,5.1,1.3,7.5
				C149.4,108.9,150,105.8,151.1,102.9z"/>
			<path id="XMLID_122_" class="st1" d="M147.4,354.8c-0.4-0.8-0.6-1.7-1.3-2.3c-0.4-0.3-0.9-0.5-1.4-0.4c0.5,1.2,1.1,2.2,1.8,3.1
				c0.2,0.2,0.4,0.5,0.5,0.7c1.2,1.3,3,2.7,5.2,3.9C150.3,358.5,148.4,356.9,147.4,354.8z"/>
			<path id="XMLID_95_" d="M163.8,221.9c0,0,2.3,76.9,3,85.4c0.6,8.5,1.5,13.4,0.6,14.3s-2.6-0.2-3.6-2.8c-1.1-2.6-3.7-35.6-3.6-51
				c0.1-15.4-1.3-54.7-1.3-59.3c0-4.7,1.4-10.2,2-11.3s2-2.5,2.3-1.1c0.5,2.1-0.1,6.7-0.1,12.8C163.2,212.8,163.8,221.9,163.8,221.9
				z"/>
			<path id="XMLID_139_" class="st10" d="M142.4,175.4l-13.5,5.2c0,0.2,0.1,0.4,0.2,0.7c0.1,0.3,0.4,0.5,0.7,0.4
				c4.2-1.4,7.9-2.7,12.2-4.4c0.2-0.1,0.4-0.2,0.5-0.3c0.1-0.2,0.2-0.3,0.2-0.5c0,0-0.1,0-0.1,0c0.1,0,0.1,0,0.1,0
				C142.7,176,142.6,175.7,142.4,175.4z"/>
			<path id="XMLID_140_" class="st10" d="M146.4,160.2c-2.4,3.3-3.3,3.9-6.4,7.3c-0.8,0.9-1.9,1.9-3,2.9c1.3-0.2,2.7,0,3.9,0.8
				c0.7,0.6,1.2,1.5,1.4,2.4c0.3-0.5,1.1-0.5,2-0.5c1.2,0,1.2,0.5,2.2,1.2c1.5,1.1,6.4,3.6,6.4,3.6s-1.3-6.3-1.7-7.8
				c-0.5-2.1-3.7-21.4-3.7-21.4S146.2,151.1,146.4,160.2z"/>
			<path id="XMLID_142_" d="M140.8,171.2c-1.2-0.7-2.6-1-3.9-0.8c-1.7,1.5-3.6,3-4.9,4.3c-2,1.8-3.4,3.5-3.1,5.8l13.5-5.2
				c-0.1-0.3-0.3-0.7-0.3-1c-0.1-0.3,0-0.6,0.1-0.8C142,172.7,141.6,171.8,140.8,171.2z"/>
			<path id="XMLID_96_" class="st11" d="M140.3,223c0-0.2,0.1-0.4-0.1-0.3c-0.9,0.1-1.9,1.7-2.1,3.2c-0.2,1.4-0.3,2.5-0.2,3.9
				c0.2,1.9,0.7,3.7,1.9,5.3c0.1,0.2,0.5,0.1,0.5-0.2c0-1.7,0-1,0-2.6c-1.3-1.1-1.9-3.7-1.3-5.3c0.2-0.7,0.6-2.1,1.3-1.9L140.3,223z
				"/>
			<path id="XMLID_98_" class="st11" d="M141,285.6c0-0.2,0.1-0.4-0.1-0.3c-0.9,0.1-1.9,1.7-2.1,3.2c-0.2,1.4-0.3,2.5-0.2,3.9
				c0.2,1.9,0.7,3.7,1.9,5.3c0.1,0.2,0.5,0.1,0.5-0.2c0-1.7,0-1,0-2.6c-1.3-1.1-1.9-3.7-1.3-5.3c0.2-0.7,0.6-2.1,1.3-1.9L141,285.6z
				"/>
			<path id="XMLID_187_" class="st64" d="M249.3,345.4c2.1-5.9,2.9-14.1,3.5-18.6c0.4-3.4,0.2-5.3,0.8-14.2c2.8,0,5.7-1,8.5-6.1
				c-0.2,3.6-0.2,6.3-0.2,7.8c0.2,6-0.1,10.7-0.9,19.3c-0.7,8.2-2.6,17-6.1,21.6c-0.2,0.2-0.4,0.5-0.5,0.7c-0.4,0.5-0.9,0.9-1.4,1.4
				c-1.2-3.9-2.5-7.7-3.8-11.6C249.3,345.5,249.3,345.4,249.3,345.4z"/>
			<path id="XMLID_186_" d="M237.4,333.1c-12.3,3.3-24.4,2.8-36.9,2.3v-11.7l42.4,0.6C242.7,328.2,241.6,332,237.4,333.1z"/>
			<path id="XMLID_183_" class="st2" d="M255,158.2c1.9,0.1,4.1-0.3,5.7,0.6"/>
			<path id="XMLID_182_" class="st2" d="M262.3,240c-2.5-0.7-4.8,1.4-7.3,2.4"/>
			<path id="XMLID_181_" class="st3" d="M260.8,151.8l0.3,0c0,0,0.5,0.9,0.5,1.8s-0.4,1.9-0.4,1.9h-0.4
				C260.8,154.3,260.8,153.1,260.8,151.8z"/>
			<path id="XMLID_180_" class="st4" d="M200.5,191.7C200.3,191.7,200.5,191.7,200.5,191.7C200.5,191.7,200.4,191.7,200.5,191.7z"/>
			<path id="XMLID_178_" class="st2" d="M262.2,306.1c-2.6,5.8-5.6,6.3-8.4,6.5"/>
			<path id="XMLID_107_" class="st70" d="M200.5,324.1l-37,0.5c0.1,3.6,1.2,7.2,4.8,8.2c10.9,3.1,21.1,5.2,32.1,4.7
				c11.1,0.4,21.9-1.6,32.8-4.7c3.6-1,4.7-4.6,4.8-8.2L200.5,324.1z"/>
			<path id="XMLID_123_" class="st70" d="M238.3,324.6c-0.1,3.6-1.1,7.4-4.7,8.4c-10.9,3.1-22,5.2-33.1,4.8
				c-11.1,0.4-21.7-1.7-32.6-4.8c-3.6-1-4.6-4.8-4.7-8.4l-4.6,0.1c0.5,6,1.1,12,2.9,14.5c0,0.1,0.1,0.1,0.1,0.2
				c0.3,0.4,1,1.2,1.4,1.6c3.5,3.1,11.5,6.7,19,8.3c6.8,1.4,17.5,1.5,18.5,1.5c1,0,12.3-0.1,19-1.5c7.5-1.5,15.5-5.1,19-8.3
				c0.4-0.3,1.1-1.2,1.4-1.6c0-0.1,0.1-0.1,0.1-0.2c1.8-2.6,2.5-8.6,2.9-14.5L238.3,324.6z"/>
			<path id="XMLID_172_" class="st4" d="M246.8,245.1c-0.1,0-0.1,0-0.2,0C246.7,245.1,246.7,245,246.8,245.1
				C246.8,245,246.8,245.1,246.8,245.1z"/>
			<path id="XMLID_171_" class="st65" d="M246.6,245.1c-0.5,21.5-1.1,39.3-1.1,42.6c0,1.8-0.1,4.3-0.2,7c-0.4-0.7-0.7-1.3-0.8-2
				c-0.7-15.7-0.4-31.4,0.1-47C245.3,245.5,245.9,245.4,246.6,245.1z"/>
			<path id="XMLID_170_" class="st65" d="M246.2,201.9c0-2,0.5-4.4,1-6.5c0.1,1.1,0.3,2.5,0.3,3.8c0,2.3-0.4,27.7-0.8,45.7
				c-0.1,0-0.1,0-0.2,0.1c0,0,0,0,0,0c0,0,0,0,0,0c-0.7,0.3-1.3,0.5-2,0.5C245.1,231.1,245.8,216.5,246.2,201.9z"/>
			<path id="XMLID_166_" class="st4" d="M200.5,360.6L200.5,360.6C200.4,360.6,200.3,360.6,200.5,360.6z"/>
			<path id="XMLID_165_" d="M249.3,345.6c1.3,3.9,2.6,7.7,3.8,11.6c-0.1,0.1-0.1,0.1-0.2,0.2l-3.7-11.5
				C249.2,345.8,249.2,345.7,249.3,345.6z"/>
			<path id="XMLID_198_" class="st64" d="M253,357.3l-3.7-11.5c-0.2,0.3-0.3,0.5-0.4,0.7c-0.9,1.5-1.3,2.2-2.1,3.1
				c-1.1,1.4-2.2,2.1-3.1,3c-0.4,0.4-0.6,0.3-1,0.7c-1.7,1.3-4.4,2-7,3.1c-5.7,2.4-14.8,3.4-22,3.9c-3.8,0.3-10.6,0.2-13.1,0.2
				c0.4,0,0.2,0,0,0c-0.2,0-0.4,0,0,0c-2.5-0.1-8.8,0-12.6-0.2c-7.2-0.5-16.3-1.5-22-3.9c-2.6-1.1-5.4-1.9-7-3.1
				c-0.5-0.3-0.6-0.2-1-0.7c-0.9-0.9-2-1.6-3.1-3c-0.8-1-1.2-1.6-2.1-3.1c-0.1-0.2-0.2-0.4-0.4-0.7l-3.7,11.5
				c5.8,4.8,17.8,9,29.5,10c5.3,0.5,15.5,0.8,22.4,1c0,0,0,0,0.1,0c0,0,0.1,0,0.1,0c6.9-0.2,17.6-0.5,22.9-1
				C235.2,366.2,247.2,362.1,253,357.3z"/>
			<path id="XMLID_163_" class="st4" d="M200.5,360.6L200.5,360.6C200.9,360.6,200.7,360.6,200.5,360.6z"/>
			<g id="XMLID_103_">
				<linearGradient id="XMLID_11_" gradientUnits="userSpaceOnUse" x1="200.4911" y1="188.9853" x2="200.5221" y2="188.9853">
					<stop  offset="0" style="stop-color:#FFFFFF"/>
					<stop  offset="1" style="stop-color:#000000"/>
				</linearGradient>
				<path id="XMLID_108_" class="st12" d="M200.5,189.3c0,0,0-0.4,0-0.7C200.5,189,200.5,189.3,200.5,189.3z"/>
				<linearGradient id="XMLID_12_" gradientUnits="userSpaceOnUse" x1="114.1252" y1="170.6889" x2="238.0473" y2="167.1665">
					<stop  offset="0" style="stop-color:#FFFFFF"/>
					<stop  offset="1" style="stop-color:#000000"/>
				</linearGradient>
				<path id="XMLID_160_" class="st13" d="M247.2,150.1c-3.8-1.4-9.8-2.5-16.3-3.4c-11.3-1.6-22.8-2.7-30.4-2.7
					c-7.5,0-18.5,1.1-29.9,2.7c-6.5,0.9-12.5,2.1-16.3,3.4c-1.1,0.4-1.8,1.6-1.6,2.7c0.4,2.2,1.1,5.4,1.1,5.8
					c1.3,5.9,3.8,21.8,6.4,31.2c0.3,1.2,1.5,1.9,2.7,1.5c2.7-0.8,6.3-1.4,13.1-2.1c10-1.2,15.1-1.3,24.4-1.3
					c9.2,0,14.9,0.1,24.9,1.3c6.8,0.8,10.4,1.4,13.1,2.1c1.2,0.3,2.4-0.4,2.7-1.5c2.6-9.4,5.1-25.3,6.4-31.2
					c0.1-0.4,0.7-3.6,1.1-5.8C249,151.6,248.3,150.5,247.2,150.1z"/>
				<linearGradient id="XMLID_13_" gradientUnits="userSpaceOnUse" x1="200.4909" y1="188.2781" x2="200.5223" y2="188.2781">
					<stop  offset="0" style="stop-color:#FFFFFF"/>
					<stop  offset="1" style="stop-color:#000000"/>
				</linearGradient>
				<path id="XMLID_161_" class="st14" d="M200.5,188.6c0-0.4,0-0.7,0-0.7C200.5,187.9,200.5,188.3,200.5,188.6z"/>
				<linearGradient id="XMLID_14_" gradientUnits="userSpaceOnUse" x1="200.3942" y1="143.7464" x2="200.619" y2="143.7464">
					<stop  offset="0" style="stop-color:#FFFFFF"/>
					<stop  offset="1" style="stop-color:#000000"/>
				</linearGradient>
				<path id="XMLID_194_" class="st15" d="M200.5,143.7C200.3,143.7,200.5,143.7,200.5,143.7C200.5,143.7,200.8,143.7,200.5,143.7z"
					/>
			</g>
			<g id="XMLID_157_">
				<path id="XMLID_159_" class="st4" d="M249.9,175.8c0.1-0.2,0.1-0.4,0.2-0.7C250,175.3,249.9,175.5,249.9,175.8z"/>
				
					<linearGradient id="XMLID_15_" gradientUnits="userSpaceOnUse" x1="2351.665" y1="208.3005" x2="2330.531" y2="205.7388" gradientTransform="matrix(-1 0 0 1 2584.1072 0)">
					<stop  offset="0" style="stop-color:#FFFFFF"/>
					<stop  offset="1" style="stop-color:#000000"/>
				</linearGradient>
				<path id="XMLID_158_" class="st16" d="M245.5,190.8c1-3.7,1.8-7.3,3.1-13.1c0,0.1,0,0.2-0.1,0.3c1.5-1.1,4-2.5,5.5-3.5l1.2-0.3
					c0,0-0.1,28.4-0.3,58.8c-2.2,2.3-5.5,5-8.3,5c0.5-18.8,0.9-36.2,0.9-38.7C247.6,196,246.8,192.3,245.5,190.8z"/>
			</g>
			<path id="XMLID_156_" d="M254.9,233c0,0.8,0,9.2,0,10c-2.8,0.6-5.7,2-8.3,2.1c0-0.9,0-6.3,0.1-7.1
				C249.4,238,252.8,235.2,254.9,233z"/>
			<linearGradient id="XMLID_16_" gradientUnits="userSpaceOnUse" x1="233.6921" y1="276.7909" x2="253.8654" y2="277.7515">
				<stop  offset="0" style="stop-color:#FFFFFF"/>
				<stop  offset="1" style="stop-color:#000000"/>
			</linearGradient>
			<path id="XMLID_155_" class="st17" d="M251.8,310c-1.9-4.3-3.8-8.3-5.6-12.4c-0.3-0.7-0.6-1.4-0.9-2.1c0.1-3,0.2-5.8,0.2-7.8
				c0-3.3,0.6-21.1,1.1-42.6c2.6-0.1,5.5-1.5,8.3-2.1c-0.1,23.6-0.2,41.9-0.2,46.2c0,5.7-0.5,15.2-1,23.4
				C252.6,312.3,252.1,310.8,251.8,310z"/>
			<linearGradient id="XMLID_17_" gradientUnits="userSpaceOnUse" x1="234.2516" y1="320.2993" x2="250.656" y2="326.3065">
				<stop  offset="0" style="stop-color:#FFFFFF"/>
				<stop  offset="1" style="stop-color:#000000"/>
			</linearGradient>
			<path id="XMLID_154_" class="st18" d="M243.8,314.9c0.7-5.2,1.2-13,1.5-19.4c0.3,0.7,0.6,1.4,0.9,2.1c1.7,4.1,3.6,8.1,5.6,12.4
				c0.4,0.9,0.9,2.3,2,2.6c-0.4,6.2-0.3,11.1-0.6,13.5c-0.7,5.7-1.4,18.2-6.3,23.5c-1.2,1.3-2.3,2.2-3.2,3l-3.7-13.4
				C242.3,335.4,242.8,322.5,243.8,314.9z"/>
			<path id="XMLID_153_" class="st64" d="M245.9,317.6c0.5-6.8,1.5-10.7,1.5-17.1c1.4,3.1,2.4,4.9,3.9,8.2c0.3,0.8,1.3,2.6,1.8,3.6
				c-0.1,4.8-0.7,12.2-0.8,14.2c-0.4,8.5-3.1,17.3-3.1,17.3s-1.8-3.3-3.3-9.9C244.4,327.2,245.5,322.4,245.9,317.6z"/>
			<path id="XMLID_152_" d="M239.9,339.4c0-0.1,0.1-0.1,0.1-0.2l3.7,13.4c-0.4,0.4-0.6,0.3-1,0.7l-4.1-12.3
				C238.9,340.6,239.6,339.8,239.9,339.4z"/>
			<g id="XMLID_94_">
				<linearGradient id="XMLID_18_" gradientUnits="userSpaceOnUse" x1="200.4966" y1="360.587" x2="200.4966" y2="360.5889">
					<stop  offset="0" style="stop-color:#FFFFFF"/>
					<stop  offset="1" style="stop-color:#000000"/>
				</linearGradient>
				<path id="XMLID_134_" class="st19" d="M200.5,360.6C200.5,360.6,200.5,360.6,200.5,360.6C200.5,360.6,200.5,360.6,200.5,360.6z"
					/>
				<linearGradient id="XMLID_19_" gradientUnits="userSpaceOnUse" x1="200.4537" y1="360.5847" x2="200.4535" y2="360.5911">
					<stop  offset="0" style="stop-color:#FFFFFF"/>
					<stop  offset="1" style="stop-color:#000000"/>
				</linearGradient>
				<path id="XMLID_151_" class="st20" d="M200.5,360.6C200.5,360.6,200.4,360.6,200.5,360.6C200.4,360.6,200.5,360.6,200.5,360.6z"
					/>
				<linearGradient id="XMLID_20_" gradientUnits="userSpaceOnUse" x1="200.4171" y1="360.5903" x2="200.417" y2="360.5909">
					<stop  offset="0" style="stop-color:#FFFFFF"/>
					<stop  offset="1" style="stop-color:#000000"/>
				</linearGradient>
				<path id="XMLID_173_" class="st21" d="M200.4,360.6C200.4,360.6,200.4,360.6,200.4,360.6L200.4,360.6z"/>
				<linearGradient id="XMLID_21_" gradientUnits="userSpaceOnUse" x1="200.5596" y1="360.5894" x2="200.5596" y2="360.5898">
					<stop  offset="0" style="stop-color:#FFFFFF"/>
					<stop  offset="1" style="stop-color:#000000"/>
				</linearGradient>
				<path id="XMLID_174_" class="st22" d="M200.5,360.6C200.5,360.6,200.6,360.6,200.5,360.6C200.6,360.6,200.6,360.6,200.5,360.6z"
					/>
				<linearGradient id="XMLID_22_" gradientUnits="userSpaceOnUse" x1="201.7357" y1="324.7099" x2="200.6433" y2="357.1183">
					<stop  offset="0" style="stop-color:#FFFFFF"/>
					<stop  offset="1" style="stop-color:#000000"/>
				</linearGradient>
				<path id="XMLID_175_" class="st23" d="M238.5,341c-3.5,3.1-11.2,6.6-18.6,8.1c-7.1,1.4-19.4,1.5-19.4,1.5l0,0
					c0,0-11.7-0.1-18.8-1.5c-7.5-1.5-15.2-5-18.6-8.1l-4.1,12.3c1.7,1.3,4.4,2,7,3.1c5.7,2.4,14.8,3.4,22,3.9
					c5,0.3,12.6,0.2,12.6,0.2s8.1,0.1,13.1-0.2c7.2-0.5,16.3-1.5,22-3.9c2.6-1.1,5.4-1.9,7-3.1L238.5,341z"/>
				<linearGradient id="XMLID_23_" gradientUnits="userSpaceOnUse" x1="200.5166" y1="360.5884" x2="200.5166" y2="360.5885">
					<stop  offset="0" style="stop-color:#FFFFFF"/>
					<stop  offset="1" style="stop-color:#000000"/>
				</linearGradient>
				<path id="XMLID_195_" class="st24" d="M200.5,360.6C200.5,360.6,200.5,360.6,200.5,360.6C200.5,360.6,200.5,360.6,200.5,360.6z"
					/>
				<linearGradient id="XMLID_24_" gradientUnits="userSpaceOnUse" x1="200.5961" y1="360.5908" x2="200.5961" y2="360.5908">
					<stop  offset="0" style="stop-color:#FFFFFF"/>
					<stop  offset="1" style="stop-color:#000000"/>
				</linearGradient>
				<path id="XMLID_196_" class="st25" d="M200.6,360.6C200.6,360.6,200.6,360.6,200.6,360.6L200.6,360.6z"/>
			</g>
			<path id="XMLID_117_" d="M234.1,219.9c-2.3-1.7-4-6-6-8.6s-4-3.3-9.7-3.6c-5.7-0.3-18-0.3-18-0.3s-11.8,0-17.4,0.3
				c-5.7,0.3-7.7,1-9.7,3.6c-2,2.7-3.7,7-6,8.6c-2.3,1.7-3.7,2-3.7,2l2.3,66.9c0,0,1,1,3.7,2.3c2.7,1.3,4.6,6.9,6.6,9.2
				c2,2.3,6.1,4.5,11.1,4.5c5,0,13.1,0.2,13.1,0.2s8.7-0.2,13.7-0.2c5,0,9.1-2.2,11.1-4.5c2-2.3,3.9-7.9,6.6-9.2
				c2.7-1.3,3.7-2.3,3.7-2.3l2.3-66.9C237.8,221.9,236.5,221.6,234.1,219.9z"/>
			<linearGradient id="XMLID_25_" gradientUnits="userSpaceOnUse" x1="124.9913" y1="254.2325" x2="230.6613" y2="255.1931">
				<stop  offset="0" style="stop-color:#FFFFFF"/>
				<stop  offset="1" style="stop-color:#000000"/>
			</linearGradient>
			<path id="XMLID_132_" class="st26" d="M232.1,220.8c-2.2-1.6-3.8-5.6-5.6-8.1s-3.8-3.1-9.1-3.4c-5.3-0.3-16.9-0.3-16.9-0.3
				s-11,0-16.3,0.3c-5.3,0.3-7.2,0.9-9.1,3.4c-1.9,2.5-3.4,6.6-5.6,8.1c-2.2,1.6-3.4,1.9-3.4,1.9l2.1,62.9c0,0,0.9,0.9,3.4,2.2
				c2.5,1.3,4.3,6.5,6.2,8.7c1.9,2.2,5.7,4.2,10.4,4.2c4.7,0,12.3,0.2,12.3,0.2s8.2-0.2,12.8-0.2c4.7,0,8.6-2,10.4-4.2
				c1.9-2.2,3.7-7.4,6.2-8.7c2.5-1.3,3.4-2.2,3.4-2.2l2.1-62.9C235.5,222.7,234.3,222.4,232.1,220.8z"/>
			<linearGradient id="XMLID_26_" gradientUnits="userSpaceOnUse" x1="200.9382" y1="83.5839" x2="200.7165" y2="73.6087">
				<stop  offset="0" style="stop-color:#FFFFFF"/>
				<stop  offset="1" style="stop-color:#000000"/>
			</linearGradient>
			<path id="XMLID_193_" class="st27" d="M200.6,76c-1.1,0-2.6-0.1-5.1,0.1c0.4,0.5,1.1,1,1.8,1.2c1,0.3,2.3,0.5,3.3,0.7
				c0.9-0.1,2.7-0.3,3.5-0.7c0.7-0.3,1.4-0.7,1.8-1.2C203.5,75.9,201.7,76,200.6,76z M200.6,76C200.7,76,200.7,76,200.6,76
				C200.6,76,200.6,76,200.6,76z"/>
			<path id="XMLID_148_" class="st70" d="M252.8,114.1c-0.4-3.8-0.9-7.6-2.3-11.2c-2.2-5.7-6.5-10.4-11.2-14.3
				c-2-1.7-4.1-3.2-6.5-4.3c-3-1.3-7.8-2.3-11.3-2.8c-7.3-1.2-15.6-1.8-20.8-1.8c-5.1,0-13.2,0.6-20.4,1.8
				c-3.5,0.6-8.3,1.6-11.3,2.8c-2.4,1-4.5,2.6-6.5,4.3c-4.7,3.9-9,8.6-11.2,14.3c-1.4,3.6-2,7.4-2.3,11.2
				c-0.6,6.8-0.6,13.6-0.6,20.5c0,3.3,0.1,6.8,1.9,9.5c0.7-0.7,1.5-1.5,2.4-2.1c4-3,11.4-5,19.5-6.5c8.7-1.6,28.6-1.7,28.6-1.7
				s20.4,0.1,29.1,1.7c8.1,1.5,15.5,3.5,19.5,6.5c0.9,0.7,1.7,1.4,2.4,2.1c1.7-2.7,1.9-6.2,1.9-9.5
				C253.4,127.8,253.4,120.9,252.8,114.1z"/>
			
				<linearGradient id="XMLID_27_" gradientUnits="userSpaceOnUse" x1="2343.6492" y1="100.3343" x2="2337.2446" y2="87.0982" gradientTransform="matrix(-1 0 0 1 2584.1072 0)">
				<stop  offset="0" style="stop-color:#FFFFFF"/>
				<stop  offset="1" style="stop-color:#000000"/>
			</linearGradient>
			<path id="XMLID_146_" class="st28" d="M250.4,102.9c-2.2-5.7-6.5-10.4-11.2-14.3c-2-1.6-4.1-3.2-6.5-4.2c0-0.3-0.1-0.6-0.2-0.8
				c-0.3-0.7-1-1.4-0.8-1.8c0.3-0.4,2.3,0.2,3.4,0.8c7.8,4,13.8,10.4,17.5,18.3c0.6,1.2,1,2.3,1.1,3.6c0.3,2.4-0.4,5.1-1.3,7.5
				C252.2,108.9,251.6,105.8,250.4,102.9z"/>
			<path id="XMLID_145_" class="st1" d="M254.1,354.8c0.4-0.8,0.6-1.7,1.3-2.3c0.4-0.3,0.9-0.5,1.4-0.4c-0.5,1.2-1.1,2.2-1.8,3.1
				c-0.2,0.2-0.4,0.5-0.5,0.7c-1.2,1.3-3,2.7-5.2,3.9C251.3,358.5,253.1,356.9,254.1,354.8z"/>
			<path id="XMLID_144_" d="M237.8,221.9c0,0-2.3,76.9-3,85.4c-0.6,8.5-1.5,13.4-0.6,14.3c0.9,0.9,2.6-0.2,3.6-2.8
				c1.1-2.6,3.7-35.6,3.6-51c-0.1-15.4,1.3-54.7,1.3-59.3c0-4.7-1.4-10.2-2-11.3s-2-2.5-2.3-1.1c-0.5,2.1,0.1,6.7,0.1,12.8
				C238.4,212.8,237.8,221.9,237.8,221.9z"/>
			<path id="XMLID_138_" class="st10" d="M259.1,175.4l13.5,5.2c0,0.2-0.1,0.4-0.2,0.7c-0.1,0.3-0.4,0.5-0.7,0.4
				c-4.2-1.4-7.9-2.7-12.2-4.4c-0.2-0.1-0.4-0.2-0.5-0.3c-0.1-0.2-0.2-0.3-0.2-0.5c0,0,0.1,0,0.1,0c-0.1,0-0.1,0-0.1,0
				C258.8,176,259,175.7,259.1,175.4z"/>
			<path id="XMLID_137_" class="st10" d="M255.2,160.2c2.4,3.3,3.3,3.9,6.4,7.3c0.8,0.9,1.9,1.9,3,2.9c-1.3-0.2-2.7,0-3.9,0.8
				c-0.7,0.6-1.2,1.5-1.4,2.4c-0.3-0.5-1.1-0.5-2-0.5c-1.2,0-1.2,0.5-2.2,1.2c-1.5,1.1-6.4,3.6-6.4,3.6s1.3-6.3,1.7-7.8
				c0.5-2.1,3.7-21.4,3.7-21.4S255.3,151.1,255.2,160.2z"/>
			<path id="XMLID_101_" d="M260.7,171.2c1.2-0.7,2.6-1,3.9-0.8c1.7,1.5,3.6,3,4.9,4.3c2,1.8,3.4,3.5,3.1,5.8l-13.5-5.2
				c0.1-0.3,0.3-0.7,0.3-1c0.1-0.3,0-0.6-0.1-0.8C259.6,172.7,260,171.8,260.7,171.2z"/>
			<path id="XMLID_91_" class="st11" d="M261.2,223c0-0.2-0.1-0.4,0.1-0.3c0.9,0.1,1.9,1.7,2.1,3.2c0.2,1.4,0.3,2.5,0.2,3.9
				c-0.2,1.9-0.7,3.7-1.9,5.3c-0.1,0.2-0.5,0.1-0.5-0.2c0-1.7,0-1,0-2.6c1.3-1.1,1.9-3.7,1.3-5.3c-0.2-0.7-0.6-2.1-1.3-1.9
				L261.2,223z"/>
			<path id="XMLID_86_" class="st11" d="M260.5,285.6c0-0.2-0.1-0.4,0.1-0.3c0.9,0.1,1.9,1.7,2.1,3.2c0.2,1.4,0.3,2.5,0.2,3.9
				c-0.2,1.9-0.7,3.7-1.9,5.3c-0.1,0.2-0.5,0.1-0.5-0.2c0-1.7,0-1,0-2.6c1.3-1.1,1.9-3.7,1.3-5.3c-0.2-0.7-0.6-2.1-1.3-1.9
				L260.5,285.6z"/>
			<path id="XMLID_116_" class="st2" d="M139.3,240c2.5-0.7,5,1.6,7.5,2.6"/>
		</g>
	</g>
</g>
</svg>
