<?xml version="1.0" encoding="utf-8"?>
<!-- Generator: Adobe Illustrator 21.0.2, SVG Export Plug-In . SVG Version: 6.00 Build 0)  -->
<svg version="1.1" xmlns="http://www.w3.org/2000/svg" xmlns:xlink="http://www.w3.org/1999/xlink" x="0px" y="0px"
	 viewBox="0 0 417.7 461.1" style="enable-background:new 0 0 417.7 461.1;" xml:space="preserve">
<style type="text/css">
	.st0{fill:#BFBFBF;}
	.st1{fill:#BF0411;}
	.st2{fill:none;stroke:#000000;stroke-width:0.5;stroke-miterlimit:10;}
	.st3{fill:#CE6B00;}
	.st4{fill:none;stroke:#BF0411;stroke-width:0.5;stroke-miterlimit:10;}
	.st5{fill:#BF0411;stroke:#000000;stroke-width:0.5;stroke-miterlimit:10;}
	.st6{fill:url(#XMLID_7_);}
	.st7{fill:url(#XMLID_8_);}
	.st8{fill:url(#XMLID_9_);}
	.st9{fill:url(#XMLID_10_);stroke:#000000;stroke-width:0.5;stroke-miterlimit:10;}
	.st10{fill:#333333;}
	.st11{fill:#D9D9D9;}
	.st12{fill:url(#XMLID_11_);}
	.st13{fill:url(#XMLID_12_);}
	.st14{fill:url(#XMLID_13_);}
	.st15{fill:url(#XMLID_14_);}
	.st16{fill:url(#XMLID_15_);}
	.st17{fill:url(#XMLID_16_);}
	.st18{fill:url(#XMLID_17_);}
	.st19{fill:url(#XMLID_18_);}
	.st20{fill:url(#XMLID_19_);}
	.st21{fill:url(#XMLID_20_);}
	.st22{fill:url(#XMLID_21_);}
	.st23{fill:url(#XMLID_22_);}
	.st24{fill:url(#XMLID_23_);}
	.st25{fill:url(#XMLID_24_);}
	.st26{fill:url(#XMLID_25_);}
	.st27{fill:url(#XMLID_26_);}
	.st28{fill:url(#XMLID_27_);stroke:#000000;stroke-width:0.5;stroke-miterlimit:10;}
	.st29{fill:#1A75B8;stroke:#333333;stroke-miterlimit:10;}
	.st30{fill:#1A1A1A;}
	.st31{fill:url(#XMLID_28_);}
	.st32{fill:#0066B0;stroke:#333333;stroke-miterlimit:10;}
	.st33{fill:url(#XMLID_29_);}
	.st34{fill:url(#XMLID_30_);}
	.st35{fill:#0066B0;}
	.st36{fill:url(#XMLID_31_);}
	.st37{fill:url(#XMLID_32_);}
	.st38{fill:url(#XMLID_33_);}
	.st39{fill:url(#XMLID_34_);}
	.st40{fill:#4D94C8;stroke:#333333;stroke-miterlimit:10;}
	.st41{fill:#595959;}
	.st42{fill:url(#XMLID_35_);}
	.st43{fill:#3384C0;}
	.st44{fill:#FEF673;stroke:#000000;stroke-width:0.25;stroke-miterlimit:10;}
	.st45{fill:#78AD2C;stroke:#000000;stroke-width:0.25;stroke-miterlimit:10;}
	.st46{fill:none;stroke:#000000;stroke-width:0.25;stroke-miterlimit:10;}
	.st47{fill:#333333;stroke:#000000;stroke-miterlimit:10;}
	.st48{fill:url(#XMLID_36_);stroke:#000000;stroke-miterlimit:10;}
	.st49{fill:#9AC261;stroke:#000000;stroke-width:0.25;stroke-miterlimit:10;}
	.st50{fill:#86B541;stroke:#000000;stroke-width:0.25;stroke-miterlimit:10;}
	.st51{stroke:#000000;stroke-miterlimit:10;}
	.st52{fill:url(#XMLID_37_);stroke:#000000;stroke-miterlimit:10;}
	.st53{fill:#FEF566;stroke:#000000;stroke-width:0.25;stroke-miterlimit:10;}
	.st54{fill:url(#XMLID_38_);stroke:#000000;stroke-miterlimit:10;}
	.st55{fill:#BF0411;stroke:#000000;stroke-miterlimit:10;}
	.st56{fill:url(#XMLID_39_);stroke:#000000;stroke-miterlimit:10;}
	.st57{fill:url(#XMLID_40_);stroke:#000000;stroke-miterlimit:10;}
	.st58{fill:url(#XMLID_41_);stroke:#000000;stroke-miterlimit:10;}
	.st59{fill:#78AD2C;stroke:#000000;stroke-width:0.25;stroke-linejoin:bevel;stroke-miterlimit:10;}
	.st60{fill:url(#XMLID_42_);stroke:#000000;stroke-miterlimit:10;}
	.st61{fill:url(#XMLID_43_);}
	.st62{fill:url(#XMLID_44_);stroke:#000000;stroke-miterlimit:10;}
	.st63{fill:#9AC261;stroke:#000000;stroke-width:0.25;stroke-linejoin:bevel;stroke-miterlimit:10;}
	.st64{fill:#EE8800;}
	.st65{fill:#EE8800;stroke:#000000;stroke-width:0.5;stroke-miterlimit:10;}
	.st66{fill:url(#XMLID_45_);}
	.st67{fill:url(#XMLID_46_);}
	.st68{fill:url(#XMLID_47_);}
	.st69{fill:url(#XMLID_48_);stroke:#000000;stroke-width:0.5;stroke-miterlimit:10;}
	.st70{fill:#EE8800;stroke:#FFFFFF;stroke-width:0.5;stroke-miterlimit:10;}
	.st71{fill:url(#XMLID_49_);}
	.st72{fill:url(#XMLID_50_);}
	.st73{fill:url(#XMLID_51_);}
	.st74{fill:url(#XMLID_52_);}
	.st75{fill:url(#XMLID_53_);}
	.st76{fill:url(#XMLID_54_);}
	.st77{fill:url(#XMLID_55_);}
	.st78{fill:url(#XMLID_56_);}
	.st79{fill:url(#XMLID_57_);}
	.st80{fill:url(#XMLID_58_);}
	.st81{fill:url(#XMLID_59_);}
	.st82{fill:url(#XMLID_60_);}
	.st83{fill:url(#XMLID_61_);}
	.st84{fill:url(#XMLID_62_);}
	.st85{fill:url(#XMLID_63_);}
	.st86{fill:url(#XMLID_64_);}
	.st87{fill:url(#XMLID_65_);stroke:#000000;stroke-width:0.5;stroke-miterlimit:10;}
	.st88{fill:#808080;stroke:#333333;stroke-miterlimit:10;}
	.st89{fill:url(#XMLID_66_);}
	.st90{fill:url(#XMLID_67_);}
	.st91{fill:url(#XMLID_68_);}
	.st92{fill:#666666;}
	.st93{fill:url(#XMLID_69_);}
	.st94{fill:url(#XMLID_70_);}
	.st95{fill:url(#XMLID_71_);}
	.st96{fill:#A6A6A6;}
	.st97{fill:url(#XMLID_80_);}
	.st98{fill:url(#XMLID_82_);}
	.st99{fill:#FEEE00;stroke:#000000;stroke-width:0.25;stroke-miterlimit:10;}
	.st100{fill:url(#XMLID_83_);stroke:#000000;stroke-miterlimit:10;}
	.st101{fill:#FEF34D;stroke:#000000;stroke-width:0.25;stroke-miterlimit:10;}
	.st102{fill:url(#XMLID_88_);stroke:#000000;stroke-miterlimit:10;}
	.st103{fill:url(#XMLID_89_);stroke:#000000;stroke-miterlimit:10;}
	.st104{fill:url(#XMLID_90_);stroke:#000000;stroke-miterlimit:10;}
	.st105{fill:url(#XMLID_92_);stroke:#000000;stroke-miterlimit:10;}
	.st106{fill:url(#XMLID_93_);stroke:#000000;stroke-miterlimit:10;}
	.st107{fill:#FEEE00;stroke:#000000;stroke-width:0.25;stroke-linejoin:bevel;stroke-miterlimit:10;}
	.st108{fill:url(#XMLID_99_);stroke:#000000;stroke-miterlimit:10;}
	.st109{fill:#FEF01A;stroke:#000000;stroke-width:0.25;stroke-miterlimit:10;}
	.st110{fill:url(#XMLID_106_);}
	.st111{fill:url(#XMLID_112_);stroke:#000000;stroke-miterlimit:10;}
	.st112{fill:#FEF34D;stroke:#000000;stroke-width:0.25;stroke-linejoin:bevel;stroke-miterlimit:10;}
</style>
<g id="Background">
</g>
<g id="Objects">
	<g id="XMLID_4_">
		<path id="XMLID_3_" class="st0" d="M293.5,180.8c-1.5-0.6-3.1-1.2-4.5-1.9c-0.1-4.6-0.2-8.8-0.2-12.1c0-2.6,0-4.6,0.1-5.8
			c0.3-4.6,0.9-10.8,0.9-15.8c0-4.4-1-22.1-1.8-32.3c-0.1-1.3-0.2-2.5-0.3-3.6c-0.9-9-8.4-15.2-8.4-15.2s-0.1,0-0.2-0.1v0
			c0,0,0,0-0.1,0c0,0-0.1,0-0.1-0.1c-0.1,0-0.1-0.1-0.2-0.1c-0.1,0-0.1-0.1-0.2-0.1c-0.1-0.1-0.2-0.1-0.3-0.2
			c-0.1,0-0.1-0.1-0.1-0.1c-0.2-0.1-0.4-0.2-0.6-0.3c0,0-0.1,0-0.1-0.1c-0.2-0.1-0.4-0.2-0.6-0.3c-0.1,0-0.2-0.1-0.3-0.2
			c-0.2-0.1-0.4-0.2-0.5-0.3c-0.1-0.1-0.2-0.1-0.4-0.2c-0.2-0.1-0.4-0.2-0.6-0.3c-0.1-0.1-0.3-0.1-0.4-0.2c-0.2-0.1-0.4-0.2-0.6-0.3
			c-0.2-0.1-0.3-0.2-0.5-0.2c-0.2-0.1-0.5-0.2-0.7-0.3c-0.2-0.1-0.3-0.2-0.5-0.2c-0.3-0.1-0.6-0.3-0.9-0.4c-0.2-0.1-0.3-0.1-0.5-0.2
			c-0.5-0.2-0.9-0.4-1.4-0.6c-0.1,0-0.2-0.1-0.3-0.1c-0.4-0.2-0.8-0.3-1.2-0.5c-0.2-0.1-0.4-0.2-0.6-0.2c-0.3-0.1-0.7-0.3-1.1-0.4
			c-0.2-0.1-0.5-0.2-0.7-0.3c-0.3-0.1-0.7-0.3-1.1-0.4c-0.3-0.1-0.5-0.2-0.8-0.3c-0.2-0.1-0.3-0.1-0.5-0.2c0,0,0,0,0,0
			c-0.4-0.1-0.7-0.3-1.1-0.4c-9.4-3.1-31-4-37.6-4.2c-6.6,0.2-28.6,1-38,4.2c-0.4,0.1-0.7,0.2-1.1,0.4c0,0,0,0,0,0
			c-0.2,0.1-0.3,0.1-0.5,0.2c-0.3,0.1-0.5,0.2-0.8,0.3c-0.4,0.1-0.7,0.3-1.1,0.4c-0.2,0.1-0.5,0.2-0.7,0.3c-0.4,0.1-0.7,0.3-1.1,0.4
			c-0.2,0.1-0.4,0.2-0.6,0.2c-0.4,0.2-0.8,0.3-1.2,0.5c-0.1,0-0.2,0.1-0.3,0.1c-0.5,0.2-1,0.4-1.4,0.6c-0.2,0.1-0.3,0.1-0.5,0.2
			c-0.3,0.1-0.6,0.3-0.9,0.4c-0.2,0.1-0.3,0.2-0.5,0.2c-0.3,0.1-0.5,0.2-0.7,0.3c-0.2,0.1-0.3,0.2-0.5,0.2c-0.2,0.1-0.4,0.2-0.6,0.3
			c-0.1,0.1-0.3,0.1-0.4,0.2c-0.2,0.1-0.4,0.2-0.6,0.3c-0.1,0.1-0.2,0.1-0.4,0.2c-0.2,0.1-0.4,0.2-0.6,0.3c-0.1,0.1-0.2,0.1-0.3,0.1
			c-0.2,0.1-0.4,0.2-0.6,0.3c0,0-0.1,0-0.1,0.1c-0.2,0.1-0.4,0.2-0.6,0.3c0,0-0.1,0.1-0.1,0.1c-0.1,0.1-0.2,0.1-0.3,0.2
			c-0.1,0-0.1,0.1-0.1,0.1c-0.1,0-0.1,0.1-0.2,0.1c0,0-0.1,0-0.1,0.1c0,0,0,0-0.1,0l0,0c-0.1,0.1-0.2,0.1-0.2,0.1s-7.4,6.2-8.4,15.2
			c-0.1,1-0.2,2.2-0.3,3.6c-0.9,10.2-1.8,27.9-1.8,32.3c0,5,0.6,11.1,0.9,15.8c0.1,1.1,0.1,3.1,0.1,5.8c0,3.2-0.1,7.4-0.2,12.1
			c-1.5,0.7-3,1.2-4.5,1.9c-2.3,1-4.7,2.1-6.3,4.1c-1.5,1.7-2.2,4.1-1.7,6.3c0.1,0.3,0.2,0.5,0.3,0.8c4.3-1.3,6.9-2.1,11.2-3.4
			c0.2-0.1,0.5-0.2,0.8-0.3c-0.1,4.5-0.2,9.1-0.3,13.4c-0.2,8.1,0,21.2,0.2,32.6c-1.5,2.4-1.7,5.5-1.7,8.4c0,0.7,0,1.3,0.3,1.9
			c0.2,0.4,0.5,0.7,0.7,1.1c0.6,1,0.4,2.3,0.5,3.4c0,0.5,0.2,1,0.5,1.4c0,0,0.1,0.1,0.1,0.1c0.1,3.2,0.1,5.2,0.1,5.2s0,0.2,0,0.5
			c0.1,3.6,0.6,26,0.6,31.4c0,4.4-0.2,8.2-0.3,9.9c0,0.6-0.1,0.9-0.1,0.9s-0.6,18.6-0.6,26.6c0,8,0.6,16.7,1.9,22
			c1.2,5.3,3.7,10.4,6.2,13.6c1.2,1.6,3.7,4.4,3.7,4.4h0.6h0.7l3.6,5.3c0,0,4.5,2.2,9.6,3s17.4,2.7,23.3,3
			c3.9,0.2,11.3,0.3,15.6,0.4c4.3-0.1,11.3-0.3,15.2-0.4c6-0.3,18.3-2.2,23.3-3s9.6-3,9.6-3l3.6-5.3h0.7h0.6c0,0,2.5-2.9,3.7-4.4
			c2.4-3.2,5-8.4,6.2-13.6c1.2-5.3,1.9-13.9,1.9-22c0-8-0.6-26.6-0.6-26.6s0-0.3-0.1-0.9c-0.1-1.7-0.3-5.6-0.3-9.9
			c0-5.4,0.5-27.8,0.6-31.4c0-0.3,0-0.5,0-0.5s0-2,0.1-5.2c0,0,0.1-0.1,0.1-0.1c0.3-0.4,0.5-0.9,0.5-1.4c0.1-1.2-0.1-2.4,0.5-3.4
			c0.2-0.4,0.5-0.7,0.7-1.1c0.3-0.6,0.3-1.3,0.3-1.9c-0.1-2.9-0.2-6-1.7-8.4c0.2-11.3,0.3-24.5,0.2-32.6c-0.1-4.4-0.2-9-0.3-13.4
			c0.3,0.1,0.6,0.2,0.8,0.3c4.3,1.3,6.9,2.1,11.2,3.4c0.1-0.3,0.2-0.5,0.3-0.8c0.6-2.1-0.2-4.5-1.7-6.3
			C298.1,182.9,295.8,181.7,293.5,180.8z"/>
		<g id="XMLID_164_">
			<path id="XMLID_258_" class="st88" d="M272.3,95.4c-0.9-9-8.4-15.2-8.4-15.2s-6.2-4-17.3-7.7c-9.4-3.1-31-4-37.6-4.2
				c-6.6,0.2-28.6,1-38,4.2c-11.1,3.7-17.3,7.7-17.3,7.7s-7.4,6.2-8.4,15.2c-0.1,1-0.2,2.2-0.3,3.6c2.8-3.1,6.7-5.1,10.9-5.8
				c17.9-2.9,35.6-1.9,53.1-2.3c17.5,0.4,34.8-0.5,52.7,2.3c4.2,0.7,8.1,2.6,10.9,5.8C272.5,97.7,272.4,96.5,272.3,95.4z"/>
			<path id="XMLID_211_" class="st88" d="M151.2,236.7C151,236,151.2,236.6,151.2,236.7c-2.6-22.1-1.6-43.8,0.6-65.9
				c0.6-5.2,0.3-10.2-0.2-15.2c-2.6-0.6-5.1-1.4-7.4-2.8c-0.1,8.2-0.5,22.4-0.7,34.8c-0.3,16.4,0.6,54.2,0.6,54.2s0,0.2,0,0.5
				c0.1,0,0.2,0,0.3,0c1.8,0.4,3.5,0.7,5.3,1c0.1-1.7,0.3-3.4,0.5-5.1C150.2,237.6,150.7,237.3,151.2,236.7z"/>
			<path id="XMLID_202_" class="st88" d="M149.3,155.1c0.6-10,2.5-41.8,3.2-45.8c0.8-4.4,0.7-11.6,2.9-16c-4,0.8-7.7,2.7-10.3,5.7
				c-0.9,10.2-1.8,27.9-1.8,32.3c0,5,0.6,11.1,0.9,15.8c0.1,1.1,0.1,3.1,0.1,5.8C145.8,153.8,147.5,154.5,149.3,155.1z"/>
			<path id="XMLID_231_" class="st30" d="M153.4,157.7c-0.2-0.6-0.3-1.2-0.5-1.8c-0.5-0.1-0.9-0.2-1.4-0.3c0.5,5,0.9,10,0.2,15.2
				c-0.1,1-0.2,1.9-0.3,2.9c1.9,1.1,4,1.5,6,2.4C156.5,169.9,155.2,163.8,153.4,157.7z"/>
			<linearGradient id="XMLID_7_" gradientUnits="userSpaceOnUse" x1="167.3814" y1="207.1101" x2="150.839" y2="207.5595">
				<stop  offset="0" style="stop-color:#FFFFFF"/>
				<stop  offset="1" style="stop-color:#000000"/>
			</linearGradient>
			<path id="XMLID_232_" class="st6" d="M157.5,176.1c-2-0.8-4.1-1.3-6-2.4c-2,20.9-2.8,41.6-0.4,62.5c2.6,2.4,5.9,4.1,9.3,4.9
				C160.7,219.4,161.1,197.6,157.5,176.1z"/>
			<path id="XMLID_208_" class="st88" d="M149.8,243.3c-1.8-0.3-3.5-0.6-5.3-1c-0.1,0-0.2,0-0.3,0c0.1,3.6,0.6,26,0.6,31.4
				c0,4.4-0.2,8.2-0.3,9.9c0.7,0.5,1.3,1.1,1.9,0.9c2.1-0.6,4.1-1.2,6.2-1.8C150.4,269.6,148.8,256.7,149.8,243.3z"/>
			<path id="XMLID_210_" class="st88" d="M168.6,243.9c-2.7,0-5.4,0-8.1,0c0,4.9-0.1,9.8,0,14.7c0,7.2,1.2,14.4,1.6,21.7
				c2.7-0.6,5.3-1.2,8-1.8C169.8,267,169.2,255.4,168.6,243.9z"/>
			<linearGradient id="XMLID_8_" gradientUnits="userSpaceOnUse" x1="165.2589" y1="263.2122" x2="152.6718" y2="263.9929">
				<stop  offset="0" style="stop-color:#FFFFFF"/>
				<stop  offset="1" style="stop-color:#000000"/>
			</linearGradient>
			<path id="XMLID_229_" class="st7" d="M152.6,282.7c3.2-0.9,6.3-1.7,9.5-2.4c-0.4-7.2-1.6-14.4-1.6-21.7c0-2.3,0-4.5,0-6.8
				c-3.9-1.5-7.6-3.6-10.8-6.3C149,258.1,150.6,270.3,152.6,282.7z"/>
			<path id="XMLID_206_" d="M151.2,236.2c0,0.1,0,0.2,0,0.4c0,0,0,0.1-0.2,0.4c-0.6,1-0.8,0.6-0.8,1.2c-0.2,1.7-0.4,3.4-0.5,5.1
				c-0.1,0.7-0.1,1.4-0.1,2.2c3.2,2.7,6.9,4.8,10.8,6.3c0-2.6,0-5.2,0-7.9c0-0.9,0-1.9,0-2.8C157,240.3,153.7,238.6,151.2,236.2z"/>
			<path id="XMLID_207_" class="st88" d="M162,339.7c-4.8-11.2-4.5-26.5-6.4-39c-1-6.1-2.1-12.1-3.1-18.1c-2.1,0.6-4.1,1.2-6.2,1.8
				c-0.6,0.2-1.2-0.4-1.9-0.9c0,0.6-0.1,0.9-0.1,0.9s-0.6,18.6-0.6,26.6c0,8,0.6,16.7,1.9,22c1.2,5.3,3.7,10.4,6.2,13.6
				c1.2,1.6,3.7,4.4,3.7,4.4h0.6C160.3,347.5,164.4,345.6,162,339.7z"/>
			<path id="XMLID_218_" class="st88" d="M162,290.2c-0.6,3.8-1.3,7.7-1,11.5c1.3,8.9,2.6,17.2,4.5,26.2c0.2,1.7,1.6,3,3.4,3.7
				c2.6-9.2,1.2-20.1,1.4-29.3c0.1-8,0-15.9-0.3-23.8c-2.7,0.5-5.3,1.1-8,1.8C162.3,283.6,162.4,286.9,162,290.2z"/>
			<path id="XMLID_228_" d="M162.1,280.3c-3.2,0.7-6.3,1.6-9.5,2.4c0.3,2,0.7,3.9,1,5.9l8.7-2.7C162.3,284,162.2,282.2,162.1,280.3z
				"/>
			<linearGradient id="XMLID_9_" gradientUnits="userSpaceOnUse" x1="167.7406" y1="308.6126" x2="157.8121" y2="310.4143">
				<stop  offset="0" style="stop-color:#FFFFFF"/>
				<stop  offset="1" style="stop-color:#000000"/>
			</linearGradient>
			<path id="XMLID_227_" class="st8" d="M161.1,301.7c-0.3-3.8,0.3-7.7,1-11.5c0.1-1.5,0.2-2.9,0.2-4.4l-8.7,2.7
				c0.7,4,1.4,8.1,2.1,12.2c1.6,10.3,1.6,22.7,4.4,33l3.7-15.5C162.7,312.8,161.9,307.4,161.1,301.7z"/>
			<path id="XMLID_230_" d="M165.6,327.9c-0.7-3.3-1.3-6.5-1.9-9.6l-3.7,15.5c0.6,2.1,1.2,4.1,2,6c0.4,1,0.6,1.8,0.7,2.6
				c3.2-3,5.1-6.7,6.2-10.7C167.2,331,165.8,329.6,165.6,327.9z"/>
			<path id="XMLID_220_" class="st88" d="M160.5,243.9c2.7,0,5.4,0,8.1,0c-1-18.3-2.2-36.5-3-54.9c-2.2,0-4.3,0.4-6.2,1.6
				C161,208.3,160.6,226.2,160.5,243.9z"/>
			<path id="XMLID_224_" class="st10" d="M163,174.6c-0.9-6.1-1.9-12-2.9-17.8c-1.3-7.9-2.6-15.8-3.7-24c-1.8,0.8-3.5,1.5-5.5,1.3
				c0.9,7.4,0.4,14.7,2.1,21.8c0.1,0.6,0.3,1.2,0.5,1.8c3.1,10.9,4.9,21.9,6,32.9c1.9-1.2,4-1.6,6.2-1.6c0-0.1,0-0.2,0-0.3
				C165.2,183.9,163.6,179.4,163,174.6z"/>
			<path id="XMLID_205_" d="M170,72.9c-9.5,3.3-15.1,6.7-16.1,7.3c0.2,1.4,0.3,2.8,0.2,4.2C159.6,80.7,164.9,76.9,170,72.9z"/>
			<path id="XMLID_150_" class="st10" d="M144.6,219.1c-2.3,2.4-2.6,6.2-2.6,9.6c0,0.7,0,1.3,0.3,1.9c0.2,0.4,0.5,0.7,0.7,1.1
				c0.6,1,0.4,2.3,0.5,3.4c0,0.5,0.2,1,0.5,1.4c0.3,0.4,1,0.5,1.4,0.2c0-2.2,0-4.4,0-6.6c-0.8,0.1-1.6-0.5-1.9-1.3
				c-0.3-0.8-0.3-1.6-0.2-2.5c0.1-1.9,0.4-4.1,2.1-4.9c0.2-0.1,0.4-0.2,0.4-0.3c0.1-0.2,0-0.4-0.1-0.6c-0.2-0.4-0.3-0.8-0.5-1.2
				c-0.1-0.1-0.1-0.3-0.3-0.2s0,0.3,0.1,0.2"/>
			<path id="XMLID_223_" class="st10" d="M152,159.9c-0.6-0.6-1.3-1-1.8-1.3c-0.6-0.3-1-0.6-1-0.6c0.2,2.1-1.1,4.5-2.9,5.6
				c-2.1,1.4-4.6,2.2-6.9,3.1c-2.3,1-4.7,2.1-6.3,4.1c-1.5,1.7-2.2,4.1-1.7,6.3l15.8-4.6c0.2-0.4,0.3-0.9,0.2-1.7
				c0.4-0.2,1-0.4,1.4-0.6c1,1.5,1.2,1.6,2.7,2.6C152.4,167.7,152.4,164.5,152,159.9z"/>
			<path id="XMLID_233_" d="M131.8,177.9c4.3-1.3,6.9-2.1,11.2-3.4c0.8-0.2,2.1-0.6,2.9-0.9c0.5-0.2,1.1-0.4,1.4-1.1l-15.8,4.6
				C131.6,177.4,131.7,177.6,131.8,177.9z"/>
			<path id="XMLID_255_" class="st88" d="M266.5,236.7C266.7,236,266.5,236.6,266.5,236.7c2.6-22.1,1.6-43.8-0.6-65.9
				c-0.6-5.2-0.3-10.2,0.2-15.2c2.6-0.6,5.1-1.4,7.4-2.8c0.1,8.2,0.5,22.4,0.7,34.8c0.3,16.4-0.6,54.2-0.6,54.2s0,0.2,0,0.5
				c-0.1,0-0.2,0-0.3,0c-1.8,0.4-3.5,0.7-5.3,1c-0.1-1.7-0.3-3.4-0.5-5.1C267.5,237.6,267,237.3,266.5,236.7z"/>
			<path id="XMLID_203_" class="st92" d="M265.2,109.3c-0.9-4.7-0.6-12.6-3.4-16.8c-2.8-4.3-8.9-10.2-16-13.2
				c-7-3-15.8-4.3-21.3-4.7c-3.6-0.3-10.9-0.6-15.5-0.9c-4.7,0.2-12.3,0.6-15.9,0.9c-5.5,0.4-14.3,1.7-21.3,4.7
				c-7,3-13.2,8.9-16,13.2c-2.8,4.3-2.6,12.1-3.4,16.8c-0.9,4.7-3.4,48.8-3.4,48.8l5.3,3.5l4.1,0c-5.6-14.6-9.7-32.9,3.2-43.8
				c13-11.1,30.5-12.8,47.3-13.6c16.8,0.8,34,2.5,46.9,13.6c13,10.9,8.8,29.1,3.2,43.8l4.1,0l5.3-3.5
				C268.6,158,266.1,114,265.2,109.3z"/>
			<path id="XMLID_253_" class="st88" d="M268.4,155.1c-0.6-10-2.5-41.8-3.2-45.8c-0.8-4.4-0.7-11.6-2.9-16c4,0.8,7.7,2.7,10.3,5.7
				c0.9,10.2,1.8,27.9,1.8,32.3c0,5-0.6,11.1-0.9,15.8c-0.1,1.1-0.1,3.1-0.1,5.8C271.9,153.8,270.2,154.5,268.4,155.1z"/>
			<path id="XMLID_256_" d="M266.2,120.4c-1.3-14.1-2-22.1-7.7-29.1c-2.9-3.5-8.6-6.7-21.1-12.5c-9.2-4.2-22.8-4.8-28.4-4.8
				c-5.6,0-19.6,0.6-28.8,4.8c-12.5,5.7-18.2,8.9-21.1,12.5c-5.7,6.9-6.4,15-7.7,29.1s-0.6,38.6-0.6,38.6l3.5,2.6l-1.9-16l-0.3-11.2
				c0,0,5.1-31.9,9.9-37.7c4.8-5.7,14.7-14.4,19.5-15.6c3.8-1,20.8-2.4,27.5-3c6.8,0.5,23.4,2,27.1,3c4.8,1.3,14.7,9.9,19.5,15.6
				c4.8,5.7,9.9,37.7,9.9,37.7l-0.3,11.2l-1.9,16l3.5-2.6C266.8,159,267.5,134.4,266.2,120.4z"/>
			<path id="XMLID_252_" class="st30" d="M264.3,157.7c0.2-0.6,0.3-1.2,0.5-1.8c0.5-0.1,0.9-0.2,1.4-0.3c-0.5,5-0.9,10-0.2,15.2
				c0.1,1,0.2,1.9,0.3,2.9c-1.9,1.1-4,1.5-6,2.4C261.2,169.9,262.5,163.8,264.3,157.7z"/>
			
				<linearGradient id="XMLID_10_" gradientUnits="userSpaceOnUse" x1="5639.0225" y1="207.1101" x2="5622.48" y2="207.5595" gradientTransform="matrix(-1 0 0 1 5889.3555 0)">
				<stop  offset="0" style="stop-color:#FFFFFF"/>
				<stop  offset="1" style="stop-color:#000000"/>
			</linearGradient>
			<path id="XMLID_251_" style="fill:url(#XMLID_10_);" d="M260.2,176.1c2-0.8,4.1-1.3,6-2.4c2,20.9,2.8,41.6,0.4,62.5
				c-2.6,2.4-5.9,4.1-9.3,4.9C257,219.4,256.6,197.6,260.2,176.1z"/>
			<path id="XMLID_250_" class="st88" d="M268,243.3c1.8-0.3,3.5-0.6,5.3-1c0.1,0,0.2,0,0.3,0c-0.1,3.6-0.6,26-0.6,31.4
				c0,4.4,0.2,8.2,0.3,9.9c-0.7,0.5-1.3,1.1-1.9,0.9c-2.1-0.6-4.1-1.2-6.2-1.8C267.3,269.6,268.9,256.7,268,243.3z"/>
			<path id="XMLID_249_" class="st88" d="M249.1,243.9c2.7,0,5.4,0,8.1,0c0,4.9,0.1,9.8,0,14.7c0,7.2-1.2,14.4-1.6,21.7
				c-2.7-0.6-5.3-1.2-8-1.8C247.9,267,248.5,255.4,249.1,243.9z"/>
			
				<linearGradient id="XMLID_11_" gradientUnits="userSpaceOnUse" x1="5636.8999" y1="263.2122" x2="5624.313" y2="263.9929" gradientTransform="matrix(-1 0 0 1 5889.3555 0)">
				<stop  offset="0" style="stop-color:#FFFFFF"/>
				<stop  offset="1" style="stop-color:#000000"/>
			</linearGradient>
			<path id="XMLID_248_" class="st12" d="M265.1,282.7c-3.2-0.9-6.3-1.7-9.5-2.4c0.4-7.2,1.6-14.4,1.6-21.7c0-2.3,0-4.5,0-6.8
				c3.9-1.5,7.6-3.6,10.8-6.3C268.7,258.1,267.2,270.3,265.1,282.7z"/>
			<path id="XMLID_247_" d="M266.6,236.2c0,0.1,0,0.2,0,0.4c0,0,0,0.1,0.2,0.4c0.6,1,0.8,0.6,0.8,1.2c0.2,1.7,0.4,3.4,0.5,5.1
				c0.1,0.7,0.1,1.4,0.1,2.2c-3.2,2.7-6.9,4.8-10.8,6.3c0-2.6,0-5.2,0-7.9c0-0.9,0-1.9,0-2.8C260.7,240.3,264,238.6,266.6,236.2z"/>
			<path id="XMLID_246_" class="st88" d="M255.7,339.7c4.8-11.2,4.5-26.5,6.4-39c1-6.1,2.1-12.1,3.1-18.1c2.1,0.6,4.1,1.2,6.2,1.8
				c0.6,0.2,1.2-0.4,1.9-0.9c0,0.6,0.1,0.9,0.1,0.9s0.6,18.6,0.6,26.6c0,8-0.6,16.7-1.9,22c-1.2,5.3-3.7,10.4-6.2,13.6
				c-1.2,1.6-3.7,4.4-3.7,4.4h-0.6C257.4,347.5,253.3,345.6,255.7,339.7z"/>
			<path id="XMLID_245_" class="st88" d="M255.7,290.2c0.6,3.8,1.3,7.7,1,11.5c-1.3,8.9-2.6,17.2-4.5,26.2c-0.2,1.7-1.6,3-3.4,3.7
				c-2.6-9.2-1.2-20.1-1.4-29.3c-0.1-8,0-15.9,0.3-23.8c2.7,0.5,5.3,1.1,8,1.8C255.4,283.6,255.4,286.9,255.7,290.2z"/>
			<path id="XMLID_244_" d="M255.6,280.3c3.2,0.7,6.3,1.6,9.5,2.4c-0.3,2-0.7,3.9-1,5.9l-8.7-2.7C255.4,284,255.5,282.2,255.6,280.3
				z"/>
			
				<linearGradient id="XMLID_12_" gradientUnits="userSpaceOnUse" x1="5639.3818" y1="308.6126" x2="5629.4531" y2="310.4143" gradientTransform="matrix(-1 0 0 1 5889.3555 0)">
				<stop  offset="0" style="stop-color:#FFFFFF"/>
				<stop  offset="1" style="stop-color:#000000"/>
			</linearGradient>
			<path id="XMLID_243_" class="st13" d="M256.6,301.7c0.3-3.8-0.3-7.7-1-11.5c-0.1-1.5-0.2-2.9-0.2-4.4l8.7,2.7
				c-0.7,4-1.4,8.1-2.1,12.2c-1.6,10.3-1.6,22.7-4.4,33l-3.7-15.5C255,312.8,255.8,307.4,256.6,301.7z"/>
			<path id="XMLID_242_" d="M252.2,327.9c0.7-3.3,1.3-6.5,1.9-9.6l3.7,15.5c-0.6,2.1-1.2,4.1-2,6c-0.4,1-0.6,1.8-0.7,2.6
				c-3.2-3-5.1-6.7-6.2-10.7C250.5,331,251.9,329.6,252.2,327.9z"/>
			<path id="XMLID_209_" class="st96" d="M265.6,134.4c0,0-5.7-30.4-7.7-35.8c-3.7-10.2-20.4-19.8-20.4-19.8s-0.3,1-4.2,0.6
				s-18.2-2.2-18.2-2.2s-2.6-0.3-3.2-1.3s-1.1-1.4-1.1-1.4H209h-2.2c0,0-0.4,0.5-1.1,1.4s-3.2,1.3-3.2,1.3s-14.4,1.9-18.2,2.2
				s-4.2-0.6-4.2-0.6s-16.7,9.6-20.4,19.8c-2,5.4-7.7,35.8-7.7,35.8l3.6-0.9l-0.1-0.7c0,0,2.2-7.3,3.2-9.3c1-1.9,4.5-5.1,7.7-6.4
				s17.9-6.7,31.3-7.3c5-0.2,8.9-0.3,11.2-0.4c2.4,0,5.8,0.1,10.9,0.4c13.4,0.6,28.1,6.1,31.3,7.3c3.2,1.3,6.7,4.5,7.7,6.4
				c1,1.9,3.2,9.3,3.2,9.3l-0.1,0.7L265.6,134.4z"/>
			<linearGradient id="XMLID_13_" gradientUnits="userSpaceOnUse" x1="125.6267" y1="344.8052" x2="305.6246" y2="344.8052">
				<stop  offset="0" style="stop-color:#FFFFFF"/>
				<stop  offset="1" style="stop-color:#000000"/>
			</linearGradient>
			<path id="XMLID_221_" class="st14" d="M248.8,331.6c-1.5,2.3-4.5,3.4-6.8,4c-11,3-21.9,4.2-32.9,3.6c-11,0.7-22.3-0.6-33.3-3.6
				c-2.3-0.5-5.3-1.7-6.8-4c-1.1,4-3,7.6-6.1,10.6c8.7,16.1,28.9,15.6,46.2,15.8c17.3-0.1,37.1,0.4,45.9-15.8
				C251.8,339.2,249.9,335.6,248.8,331.6z"/>
			<path id="XMLID_200_" class="st88" d="M209,187.2c-14.4-0.2-29.1,0.7-43.5,1.6c0.8,18.4,2,36.7,3,55c0.6,11.5,1.2,23.1,1.5,34.6
				c0.2,7.9,0.3,15.9,0.3,23.8c-0.1,3.9,0.1,8.1,0.2,12.3c11.8,5.2,25.7,4.6,38.5,4.9c12.8-0.3,26.4,0.3,38.1-4.9
				c0.1-4.3,0.3-8.5,0.2-12.3c-0.1-8,0-15.9,0.3-23.8c0.3-11.6,0.9-23.1,1.5-34.6c1-18.3,2.2-36.6,3-55
				C237.8,187.9,223.4,187,209,187.2z"/>
			<path id="XMLID_204_" class="st88" d="M247.2,314.7c-11.8,5.2-25.3,4.4-38.1,4.7c-12.8-0.3-26.8,0.5-38.5-4.7
				c0.1,4.3,0,8.6-0.7,12.7c1.4,2.4,3.2,4.6,5.6,5.7c10.7,4,22.2,3.8,33.6,4.1c11.4-0.4,22.5-0.1,33.2-4.1c2.4-1.1,4.2-3.3,5.6-5.7
				C247.2,323.3,247.1,319,247.2,314.7z"/>
			<path id="XMLID_219_" d="M247.8,327.4c-1.4,2.4-3.2,4.6-5.6,5.7c-10.7,4-21.8,3.8-33.2,4.1c-11.4-0.4-22.9-0.1-33.6-4.1
				c-2.4-1.1-4.2-3.3-5.6-5.7c-0.2,1.4-0.5,2.9-0.9,4.2c1.5,2.3,4.5,3.4,6.8,4c11,3,22.3,4,33.3,4s21.9-1.1,32.9-4
				c2.3-0.5,5.3-1.7,6.8-4C248.4,330.2,248.1,328.8,247.8,327.4z"/>
			<path id="XMLID_217_" class="st88" d="M255,342.3c0,0-0.1-0.1-0.1-0.1c-8.7,16.1-28.5,15.6-45.9,15.8
				c-17.3-0.1-37.5,0.4-46.2-15.8c0,0-0.1,0.1-0.1,0.1c0.3,3.9-3.1,5.8-6.5,8.9h0.7l3.6,5.3c0,0,4.5,2.2,9.6,3s17.4,2.7,23.3,3
				c3.9,0.2,11.3,0.3,15.6,0.4c4.3-0.1,11.3-0.3,15.2-0.4c6-0.3,18.3-2.2,23.3-3s9.6-3,9.6-3l3.6-5.3h0.7
				C258.1,348.1,254.7,346.3,255,342.3z"/>
			<path id="XMLID_236_" class="st88" d="M257.2,243.9c-2.7,0-5.4,0-8.1,0c1-18.3,2.2-36.5,3-54.9c2.2,0,4.3,0.4,6.2,1.6
				C256.7,208.3,257.1,226.2,257.2,243.9z"/>
			<path id="XMLID_235_" class="st10" d="M254.7,174.6c0.9-6.1,1.9-12,2.9-17.8c1.3-7.9,2.6-15.8,3.7-24c1.8,0.8,3.5,1.5,5.5,1.3
				c-0.9,7.4-0.4,14.7-2.1,21.8c-0.1,0.6-0.3,1.2-0.5,1.8c-3.1,10.9-4.9,21.9-6,32.9c-1.9-1.2-4-1.6-6.2-1.6c0-0.1,0-0.2,0-0.3
				C252.5,183.9,254.1,179.4,254.7,174.6z"/>
			<path id="XMLID_199_" class="st41" d="M258.9,123.6c-1-1.9-4.5-5.1-7.7-6.4c-3.2-1.3-17.9-6.7-31.3-7.3c-5-0.2-8.5-0.3-10.9-0.4
				c-2.4,0-6.2,0.1-11.2,0.4c-13.4,0.6-28.1,6.1-31.3,7.3s-6.7,4.5-7.7,6.4c-1,1.9-3.2,9.3-3.2,9.3l8.9,56.2c0,0,11.5-1,25.9-1.3
				c8-0.2,14.6-0.2,18.6-0.1c3.9-0.1,10.2-0.1,18.2,0.1c14.4,0.3,25.9,1.3,25.9,1.3l8.9-56.2C262.1,132.8,259.8,125.5,258.9,123.6z"
				/>
			<linearGradient id="XMLID_14_" gradientUnits="userSpaceOnUse" x1="158.1439" y1="152.4566" x2="259.5703" y2="152.4566">
				<stop  offset="0" style="stop-color:#FFFFFF"/>
				<stop  offset="1" style="stop-color:#000000"/>
			</linearGradient>
			<path id="XMLID_215_" class="st15" d="M255.7,130.9c-3.5-3.2-15-7.7-25.2-9.6c-7.2-1.4-16.6-1.4-21.4-1.4
				c-4.8-0.1-14.5,0-21.8,1.4c-10.2,1.9-21.7,6.4-25.2,9.6c-3.5,3.2-4.2,5.1-3.8,8.9c0.3,3.8,7.3,40.2,7.7,41.8
				c0.3,1.6,0,3.8,5.4,3.2c5.4-0.6,16.6-1.6,21.7-1.6s10.2,0.3,10.2,0.3s1.6-0.3,1.6-1.9c0-1.3,0.4-7.3,0.6-9.5
				c0-0.4,0.4-0.7,0.8-0.7h2.8h2.4c0.4,0,0.8,0.3,0.8,0.7c0.2,2.1,0.6,8.2,0.6,9.5c0,1.6,1.6,1.9,1.6,1.9s5.1-0.3,10.2-0.3
				s16.3,1,21.7,1.6s5.1-1.6,5.4-3.2c0.3-1.6,7.3-38,7.7-41.8C259.8,136,259.2,134.1,255.7,130.9z"/>
			<path id="XMLID_216_" d="M247.7,72.9c9.5,3.3,15.1,6.7,16.1,7.3c-0.2,1.4-0.3,2.8-0.2,4.2C258.2,80.7,252.9,76.9,247.7,72.9z"/>
			<path id="XMLID_213_" class="st10" d="M273.1,219.1c2.3,2.4,2.6,6.2,2.6,9.6c0,0.7,0,1.3-0.3,1.9c-0.2,0.4-0.5,0.7-0.7,1.1
				c-0.6,1-0.4,2.3-0.5,3.4c0,0.5-0.2,1-0.5,1.4c-0.3,0.4-1,0.5-1.4,0.2c0-2.2,0-4.4,0-6.6c0.8,0.1,1.6-0.5,1.9-1.3
				c0.3-0.8,0.3-1.6,0.2-2.5c-0.1-1.9-0.4-4.1-2.1-4.9c-0.2-0.1-0.4-0.2-0.4-0.3c-0.1-0.2,0-0.4,0.1-0.6c0.2-0.4,0.3-0.8,0.5-1.2
				c0.1-0.1,0.1-0.3,0.3-0.2c0.1,0,0,0.3-0.1,0.2"/>
			<path id="XMLID_212_" class="st10" d="M265.7,159.9c0.6-0.6,1.3-1,1.8-1.3c0.6-0.3,1-0.6,1-0.6c-0.2,2.1,1.1,4.5,2.9,5.6
				c2.1,1.4,4.6,2.2,6.9,3.1c2.3,1,4.7,2.1,6.3,4.1c1.5,1.7,2.2,4.1,1.7,6.3l-15.8-4.6c-0.2-0.4-0.3-0.9-0.2-1.7
				c-0.4-0.2-1-0.4-1.4-0.6c-1,1.5-1.2,1.6-2.7,2.6C265.3,167.7,265.3,164.5,265.7,159.9z"/>
			<path id="XMLID_201_" d="M285.9,177.9c-4.3-1.3-6.9-2.1-11.2-3.4c-0.8-0.2-2.1-0.6-2.9-0.9c-0.5-0.2-1.1-0.4-1.4-1.1l15.8,4.6
				C286.1,177.4,286,177.6,285.9,177.9z"/>
			<circle id="XMLID_135_" cx="208.6" cy="81.1" r="3.1"/>
		</g>
	</g>
</g>
</svg>
