<?xml version="1.0" encoding="utf-8"?>
<!-- Generator: Adobe Illustrator 21.0.2, SVG Export Plug-In . SVG Version: 6.00 Build 0)  -->
<svg version="1.1" xmlns="http://www.w3.org/2000/svg" xmlns:xlink="http://www.w3.org/1999/xlink" x="0px" y="0px"
	 viewBox="0 0 417.7 461.1" style="enable-background:new 0 0 417.7 461.1;" xml:space="preserve">
<style type="text/css">
	.st0{fill:#BFBFBF;}
	.st1{fill:#BF0411;}
	.st2{fill:none;stroke:#000000;stroke-width:0.5;stroke-miterlimit:10;}
	.st3{fill:#CE6B00;}
	.st4{fill:none;stroke:#BF0411;stroke-width:0.5;stroke-miterlimit:10;}
	.st5{fill:#BF0411;stroke:#000000;stroke-width:0.5;stroke-miterlimit:10;}
	.st6{fill:url(#XMLID_7_);}
	.st7{fill:url(#XMLID_8_);}
	.st8{fill:url(#XMLID_9_);}
	.st9{fill:url(#XMLID_10_);stroke:#000000;stroke-width:0.5;stroke-miterlimit:10;}
	.st10{fill:#333333;}
	.st11{fill:#D9D9D9;}
	.st12{fill:url(#XMLID_11_);}
	.st13{fill:url(#XMLID_12_);}
	.st14{fill:url(#XMLID_13_);}
	.st15{fill:url(#XMLID_14_);}
	.st16{fill:url(#XMLID_15_);}
	.st17{fill:url(#XMLID_16_);}
	.st18{fill:url(#XMLID_17_);}
	.st19{fill:url(#XMLID_18_);}
	.st20{fill:url(#XMLID_19_);}
	.st21{fill:url(#XMLID_20_);}
	.st22{fill:url(#XMLID_21_);}
	.st23{fill:url(#XMLID_22_);}
	.st24{fill:url(#XMLID_23_);}
	.st25{fill:url(#XMLID_24_);}
	.st26{fill:url(#XMLID_25_);}
	.st27{fill:url(#XMLID_26_);}
	.st28{fill:url(#XMLID_27_);stroke:#000000;stroke-width:0.5;stroke-miterlimit:10;}
	.st29{fill:#1A75B8;stroke:#333333;stroke-miterlimit:10;}
	.st30{fill:#1A1A1A;}
	.st31{fill:url(#XMLID_28_);}
	.st32{fill:#0066B0;stroke:#333333;stroke-miterlimit:10;}
	.st33{fill:url(#XMLID_29_);}
	.st34{fill:url(#XMLID_30_);}
	.st35{fill:#0066B0;}
	.st36{fill:url(#XMLID_31_);}
	.st37{fill:url(#XMLID_32_);}
	.st38{fill:url(#XMLID_33_);}
	.st39{fill:url(#XMLID_34_);}
	.st40{fill:#4D94C8;stroke:#333333;stroke-miterlimit:10;}
	.st41{fill:#595959;}
	.st42{fill:url(#XMLID_35_);}
	.st43{fill:#3384C0;}
	.st44{fill:#FEF673;stroke:#000000;stroke-width:0.25;stroke-miterlimit:10;}
	.st45{fill:#78AD2C;stroke:#000000;stroke-width:0.25;stroke-miterlimit:10;}
	.st46{fill:none;stroke:#000000;stroke-width:0.25;stroke-miterlimit:10;}
	.st47{fill:#333333;stroke:#000000;stroke-miterlimit:10;}
	.st48{fill:url(#XMLID_36_);stroke:#000000;stroke-miterlimit:10;}
	.st49{fill:#9AC261;stroke:#000000;stroke-width:0.25;stroke-miterlimit:10;}
	.st50{fill:#86B541;stroke:#000000;stroke-width:0.25;stroke-miterlimit:10;}
	.st51{stroke:#000000;stroke-miterlimit:10;}
	.st52{fill:url(#XMLID_37_);stroke:#000000;stroke-miterlimit:10;}
	.st53{fill:#FEF566;stroke:#000000;stroke-width:0.25;stroke-miterlimit:10;}
	.st54{fill:url(#XMLID_38_);stroke:#000000;stroke-miterlimit:10;}
	.st55{fill:#BF0411;stroke:#000000;stroke-miterlimit:10;}
	.st56{fill:url(#XMLID_39_);stroke:#000000;stroke-miterlimit:10;}
	.st57{fill:url(#XMLID_40_);stroke:#000000;stroke-miterlimit:10;}
	.st58{fill:url(#XMLID_41_);stroke:#000000;stroke-miterlimit:10;}
	.st59{fill:#78AD2C;stroke:#000000;stroke-width:0.25;stroke-linejoin:bevel;stroke-miterlimit:10;}
	.st60{fill:url(#XMLID_42_);stroke:#000000;stroke-miterlimit:10;}
	.st61{fill:url(#XMLID_43_);}
	.st62{fill:url(#XMLID_44_);stroke:#000000;stroke-miterlimit:10;}
	.st63{fill:#9AC261;stroke:#000000;stroke-width:0.25;stroke-linejoin:bevel;stroke-miterlimit:10;}
	.st64{fill:#EE8800;}
	.st65{fill:#EE8800;stroke:#000000;stroke-width:0.5;stroke-miterlimit:10;}
	.st66{fill:url(#XMLID_45_);}
	.st67{fill:url(#XMLID_46_);}
	.st68{fill:url(#XMLID_47_);}
	.st69{fill:url(#XMLID_48_);stroke:#000000;stroke-width:0.5;stroke-miterlimit:10;}
	.st70{fill:#EE8800;stroke:#FFFFFF;stroke-width:0.5;stroke-miterlimit:10;}
	.st71{fill:url(#XMLID_49_);}
	.st72{fill:url(#XMLID_50_);}
	.st73{fill:url(#XMLID_51_);}
	.st74{fill:url(#XMLID_52_);}
	.st75{fill:url(#XMLID_53_);}
	.st76{fill:url(#XMLID_54_);}
	.st77{fill:url(#XMLID_55_);}
	.st78{fill:url(#XMLID_56_);}
	.st79{fill:url(#XMLID_57_);}
	.st80{fill:url(#XMLID_58_);}
	.st81{fill:url(#XMLID_59_);}
	.st82{fill:url(#XMLID_60_);}
	.st83{fill:url(#XMLID_61_);}
	.st84{fill:url(#XMLID_62_);}
	.st85{fill:url(#XMLID_63_);}
	.st86{fill:url(#XMLID_64_);}
	.st87{fill:url(#XMLID_65_);stroke:#000000;stroke-width:0.5;stroke-miterlimit:10;}
	.st88{fill:#808080;stroke:#333333;stroke-miterlimit:10;}
	.st89{fill:url(#XMLID_66_);}
	.st90{fill:url(#XMLID_67_);}
	.st91{fill:url(#XMLID_68_);}
	.st92{fill:#666666;}
	.st93{fill:url(#XMLID_69_);}
	.st94{fill:url(#XMLID_70_);}
	.st95{fill:url(#XMLID_71_);}
	.st96{fill:#A6A6A6;}
	.st97{fill:url(#XMLID_80_);}
	.st98{fill:url(#XMLID_82_);}
	.st99{fill:#FEEE00;stroke:#000000;stroke-width:0.25;stroke-miterlimit:10;}
	.st100{fill:url(#XMLID_83_);stroke:#000000;stroke-miterlimit:10;}
	.st101{fill:#FEF34D;stroke:#000000;stroke-width:0.25;stroke-miterlimit:10;}
	.st102{fill:url(#XMLID_88_);stroke:#000000;stroke-miterlimit:10;}
	.st103{fill:url(#XMLID_89_);stroke:#000000;stroke-miterlimit:10;}
	.st104{fill:url(#XMLID_90_);stroke:#000000;stroke-miterlimit:10;}
	.st105{fill:url(#XMLID_92_);stroke:#000000;stroke-miterlimit:10;}
	.st106{fill:url(#XMLID_93_);stroke:#000000;stroke-miterlimit:10;}
	.st107{fill:#FEEE00;stroke:#000000;stroke-width:0.25;stroke-linejoin:bevel;stroke-miterlimit:10;}
	.st108{fill:url(#XMLID_99_);stroke:#000000;stroke-miterlimit:10;}
	.st109{fill:#FEF01A;stroke:#000000;stroke-width:0.25;stroke-miterlimit:10;}
	.st110{fill:url(#XMLID_106_);}
	.st111{fill:url(#XMLID_112_);stroke:#000000;stroke-miterlimit:10;}
	.st112{fill:#FEF34D;stroke:#000000;stroke-width:0.25;stroke-linejoin:bevel;stroke-miterlimit:10;}
</style>
<g id="Background">
</g>
<g id="Objects">
	<g id="XMLID_76_">
		<g id="XMLID_2_">
			<path id="XMLID_709_" class="st0" d="M297.4,199.6c-0.3-1.6-1-3.8-2.6-5.8c-2-2.5-6-4.1-8.3-4.8c-0.1-2.4-0.1-4.3-0.2-5.6
				c0-0.7,0-1.2,0-1.6c0,0,0,0,0,0c0-0.4,0-0.7,0-0.7v0c0,0,0.5-0.3,1.1-0.8c0.8-0.7,1.7-1.8,2-3.2c0-0.2,0.1-0.3,0.1-0.5
				c0,0,0,0,0,0c0-0.1,0-0.2,0-0.2c0-0.1,0-0.2,0.1-0.4c0-0.1,0-0.2,0-0.4c0-0.1,0-0.2,0-0.4c0-0.1,0-0.3,0-0.4c0-0.1,0-0.2,0-0.2
				c0,0,0,0,0,0c0.1-1,0.2-2.1,0.3-3.3c0-0.4,0.1-0.7,0.1-1.1c0.2-2.9,0.3-6,0.3-7.7c0-1.4-0.2-7.2-0.5-13.8
				c-0.1-1.8-0.2-3.6-0.2-5.4c-0.1-1.2-0.1-2.4-0.2-3.6c-0.3-6.9-0.6-12.8-0.6-12.8s-6-12.2-13.1-19.9c-1-1.1-2.1-2.1-3.1-3
				c-3.6-2.9-9.5-7.7-21.3-10.4c-1.1-0.3-2.3-0.5-3.6-0.7c-9.4-1.7-18.9-1.8-24.3-1.7c-5.5-0.1-15.5,0-24.9,1.7
				c-1.2,0.2-2.4,0.5-3.6,0.7c-11.8,2.8-17.7,7.5-21.3,10.4c-1.1,0.9-2.1,1.9-3.1,3c-7.2,7.7-13.1,19.9-13.1,19.9s-0.3,5.8-0.6,12.8
				c-0.4,9.4-0.9,20.8-0.9,22.8c0,2.7,0.3,8.5,0.7,12.2c0,0,0,0,0,0c0,0.1,0,0.2,0,0.3c0,0.1,0,0.3,0,0.4c0,0.1,0,0.2,0,0.4
				c0,0.1,0,0.2,0,0.4c0,0.1,0,0.3,0.1,0.4c0,0.1,0,0.2,0,0.2c0,0.2,0.1,0.4,0.1,0.5c0.5,2.5,3,4.1,3,4.1s0,0.2,0,0.7c0,0,0,0,0,0
				c0,1.1-0.1,3.6-0.2,7.2c-2.3,0.8-6.3,2.4-8.3,4.8c-1.6,2-2.3,4.2-2.6,5.8c-0.2,1.2-0.2,2-0.2,2l10.9-4c0,1.2-0.1,2.5-0.1,3.8
				c0,0.3,0,0.6,0,0.9c0,0.1,0,0.2,0,0.3c0,0.2,0,0.5,0,0.7c0,0.1,0,0.2,0,0.3c0,0.3,0,0.6,0,0.9c0,0.1,0,0.2,0,0.3
				c0,0.3,0,0.7,0,1.1c0,0.1,0,0.3,0,0.4c0,0.3,0,0.6,0,0.9c0,0.1,0,0.2,0,0.3c0,0.3,0,0.6,0,1c0,0.1,0,0.2,0,0.3
				c0,0.9-0.1,1.8-0.1,2.8c0,1.3-0.1,2.6-0.1,3.9c0,0,0,0,0,0c-0.1,2-0.1,4.2-0.2,6.4c0,0,0,0.1,0,0.1c-0.1,2.9-0.2,5.9-0.3,9
				c0,0.2,0,0.4,0,0.7c0,1-0.1,2.1-0.1,3.2c-0.2,6-0.4,12.1-0.6,17.8c0,0,0,0,0,0.1c0,0.7-0.1,1.5-0.1,2.2c0,0,0,0,0,0
				c-0.2,4.5-0.3,8.6-0.4,12.3v0c-0.1,4.2-0.2,7.7-0.2,9.9c0,0,0,0,0,0c0,0.1,0,0.3,0,0.4c0,0,0,0,0,0c0,0.3,0,0.6,0,0.9
				c0,0.3,0,0.5,0,0.8c0,0.1,0,0.2,0,0.2c0,0.2,0,0.4,0,0.7c0,0.1,0,0.1,0,0.2c0,0.3,0,0.6,0.1,0.9c0,0.1,0,0.1,0,0.2
				c0,0.2,0,0.5,0.1,0.7c0,0.1,0,0.2,0,0.3c0,0.3,0.1,0.5,0.1,0.8c0,0,0,0.1,0,0.1c0,0.3,0.1,0.6,0.1,0.9c0,0.1,0,0.2,0,0.3
				c0,0.2,0.1,0.5,0.1,0.7c0,0.1,0,0.2,0,0.3c0.1,0.3,0.1,0.6,0.2,0.9c0,0,0,0.1,0,0.1c0,0.3,0.1,0.6,0.1,0.8c0,0.1,0,0.2,0.1,0.3
				c0,0.2,0.1,0.5,0.1,0.7c0,0.1,0,0.1,0,0.2c0.1,0.3,0.1,0.6,0.2,0.9c0,0.1,0,0.1,0,0.2c0,0.2,0.1,0.5,0.1,0.7c0,0.1,0,0.2,0,0.2
				c0.1,0.6,0.2,1.1,0.4,1.7c0,0.1,0,0.1,0,0.2c0.1,0.2,0.1,0.5,0.2,0.7c0,0,0,0,0,0.1c0.5,2.2,0.9,3.6,0.9,3.6l-4.1,16.8l0.5,41.7
				c0,0,0,0.1,0.1,0.2c0,0,0,0,0,0.1c0,0.1,0.1,0.3,0.2,0.5c0,0,0,0.1,0,0.1c0,0.1,0.1,0.2,0.1,0.3c0,0,0,0.1,0,0.1
				c0,0.1,0.1,0.3,0.2,0.4c0,0,0,0,0,0.1c0.1,0.2,0.1,0.3,0.2,0.5c0,0,0,0.1,0,0.1c0.1,0.2,0.1,0.3,0.2,0.5c0,0.1,0,0.1,0.1,0.2
				c0.1,0.2,0.1,0.4,0.2,0.5c0,0,0,0.1,0.1,0.1c0.1,0.2,0.2,0.5,0.3,0.7c0,0,0,0,0,0c0.1,0.2,0.2,0.5,0.3,0.7c0,0.1,0.1,0.1,0.1,0.2
				c0.1,0.2,0.2,0.4,0.3,0.6c0,0.1,0.1,0.1,0.1,0.2c0.3,0.6,0.5,1.2,0.8,1.8c0,0.1,0.1,0.2,0.1,0.2c0.1,0.2,0.2,0.5,0.4,0.7
				c0,0.1,0.1,0.2,0.1,0.2c0.1,0.3,0.3,0.6,0.4,0.9v0c0,0,0,0,0,0c0,0,0,0.1,0,0.1c0,0,0,0,0,0c0.4,0.7,0.7,1.4,1.2,2.2
				c0,0,0,0.1,0.1,0.1c0.4,0.8,0.9,1.5,1.3,2.3c0,0,0.1,0.1,0.1,0.1c0.5,0.8,0.9,1.6,1.4,2.4c0,0,0,0.1,0.1,0.1
				c0.5,0.8,1.1,1.6,1.6,2.5c6.6,9.7,17.7,12.4,27.5,15c8.9,2.3,22.8,3.3,29.4,3.3c0,0,0,0,0,0c0.1,0,0.1,0,0,0
				c6.6,0,19.9-1,28.8-3.3c9.8-2.6,20.9-5.3,27.5-15c0.6-0.8,1.1-1.6,1.6-2.5c0,0,0-0.1,0.1-0.1c0.5-0.8,1-1.6,1.4-2.4
				c0,0,0.1-0.1,0.1-0.1c0.5-0.8,0.9-1.6,1.3-2.3c0,0,0-0.1,0.1-0.1c0.4-0.7,0.8-1.5,1.2-2.2c0,0,0,0,0,0c0.2-0.3,0.3-0.6,0.5-1
				c0-0.1,0.1-0.2,0.1-0.2c0.1-0.2,0.2-0.5,0.4-0.7c0-0.1,0.1-0.2,0.1-0.2c0.3-0.6,0.6-1.2,0.8-1.8c0-0.1,0.1-0.1,0.1-0.2
				c0.1-0.2,0.2-0.4,0.3-0.7c0-0.1,0.1-0.1,0.1-0.2c0.1-0.2,0.2-0.5,0.3-0.7c0,0,0,0,0,0c0.1-0.3,0.2-0.5,0.3-0.7c0,0,0-0.1,0.1-0.1
				c0.1-0.2,0.2-0.4,0.2-0.5c0-0.1,0-0.1,0.1-0.2c0.1-0.2,0.1-0.3,0.2-0.5c0,0,0-0.1,0-0.1c0.1-0.2,0.1-0.4,0.2-0.5c0,0,0,0,0-0.1
				c0.1-0.1,0.1-0.3,0.2-0.4c0,0,0-0.1,0-0.1c0-0.1,0.1-0.2,0.1-0.3c0,0,0,0,0,0c0.1-0.2,0.2-0.4,0.2-0.5c0,0,0,0,0-0.1
				c0-0.1,0.1-0.2,0.1-0.2l0.1-4.5l0.5-37.1l-2.8-11.6l-1.3-5.2c0,0,0-0.1,0.1-0.3c0-0.1,0.1-0.3,0.1-0.5c0.2-0.6,0.4-1.6,0.7-2.8
				c0,0,0,0,0-0.1c0-0.1,0.1-0.3,0.1-0.4c0-0.1,0-0.2,0.1-0.3c0,0,0-0.1,0-0.1c0.1-0.5,0.2-1.1,0.4-1.7c0-0.1,0-0.1,0-0.2
				c0.1-0.3,0.1-0.5,0.2-0.8c0-0.1,0-0.1,0-0.2c0.1-0.3,0.1-0.6,0.2-0.9c0,0,0-0.1,0-0.1c0.1-0.3,0.1-0.5,0.2-0.8c0-0.1,0-0.2,0-0.3
				c0.1-0.3,0.1-0.6,0.2-0.9c0,0,0,0,0-0.1c0.1-0.3,0.1-0.6,0.2-1c0-0.1,0-0.2,0-0.2c0-0.3,0.1-0.5,0.1-0.8c0-0.1,0-0.2,0-0.2
				c0-0.3,0.1-0.6,0.1-0.9c0,0,0-0.1,0-0.1c0-0.3,0.1-0.5,0.1-0.8c0-0.1,0-0.2,0-0.3c0-0.2,0.1-0.5,0.1-0.7c0-0.1,0-0.1,0-0.2
				c0-0.3,0-0.6,0.1-0.9c0-0.1,0-0.1,0-0.2c0-0.2,0-0.4,0-0.7c0-0.1,0-0.2,0-0.2c0-0.3,0-0.5,0-0.8c0-0.3,0-0.6,0-0.9c0,0,0,0,0,0
				c0-5.2-0.5-17.4-0.9-30.8c0-1-0.1-2-0.1-3c0-1-0.1-2-0.1-3c0-0.5,0-1-0.1-1.5c-0.1-2.5-0.2-5-0.3-7.5c0-1-0.1-1.9-0.1-2.9
				c0-0.7-0.1-1.4-0.1-2.1c0-0.3,0-0.5,0-0.8c0-0.5,0-1.1-0.1-1.6c0-0.2,0-0.4,0-0.7c0-0.5,0-1-0.1-1.4c0-0.2,0-0.3,0-0.5
				c-0.1-1.4-0.1-2.9-0.2-4.2c0,0,0,0,0,0c0-0.7,0-1.4-0.1-2.1c0,0,0,0,0,0c0-1.4-0.1-2.7-0.1-3.9c0-1.5-0.1-2.8-0.1-4.1
				c0-0.1,0-0.2,0-0.3c0-1.3-0.1-2.5-0.1-3.6c0,0,0,0,0-0.1c0-0.3,0-0.6,0-0.9c0-0.1,0-0.1,0-0.2c0-0.3,0-0.6,0-1
				c0-1.3-0.1-2.6-0.1-3.8l10.9,4C297.7,201.6,297.7,200.8,297.4,199.6z M288,136.8c0,0-0.1-0.1-0.1-0.1c0-0.1-0.1-0.1-0.1-0.2
				C287.9,136.6,288,136.7,288,136.8z M158.2,136.7c0,0-0.1,0.1-0.1,0.1c0.1-0.1,0.1-0.2,0.2-0.3
				C158.3,136.6,158.3,136.6,158.2,136.7z M159.9,133.9c-0.1,0.1-0.1,0.2-0.2,0.3c0.1-0.2,0.2-0.4,0.3-0.6
				C160,133.7,160,133.8,159.9,133.9z M223.4,393.4C223.3,393.4,223.3,393.4,223.4,393.4C223.4,393.4,223.4,393.4,223.4,393.4z
				 M286.3,133.9c-0.1-0.1-0.1-0.2-0.2-0.3c0.1,0.2,0.2,0.4,0.3,0.6C286.4,134.1,286.4,134,286.3,133.9z"/>
			<g id="XMLID_214_">
				<path id="XMLID_319_" class="st44" d="M274.1,264.5c0-9.9-2.1-61-2.5-77c-0.3-12.2-0.6-20.4-0.6-20.4s2.5-1.5,3-4.1
					c0.5-2.5,1-11.2,1-14.7c0-2-0.5-13.4-0.9-22.8c-8.4-16.8-23.6-28.1-35.6-43.1c-0.8-1-1.6-2-2.5-3c-1.1-0.3-2.3-0.5-3.6-0.7
					c-9.4-1.7-18.9-1.8-24.3-1.7c-5.5-0.1-15.5,0-24.9,1.7c-1.2,0.2-2.4,0.5-3.6,0.7c-0.9,1-1.8,1.9-2.5,3
					c-12.1,15-27.3,26.2-35.6,43.1c-0.4,9.4-0.9,20.8-0.9,22.8c0,3.6,0.5,12.2,1,14.7c0.5,2.5,3,4.1,3,4.1s-0.2,8.2-0.6,20.4
					c-0.4,16.1-2.5,67.1-2.5,77c0,6.6,3.1,18.4,3.1,18.4l-4.1,16.8l0.5,41.7c0,0,3.6,10.2,10.2,19.8c6.6,9.7,17.7,12.4,27.5,15
					c8.9,2.3,22.8,3.3,29.4,3.3c0,0,0,0,0,0c0.1,0,0.1,0,0,0c6.6,0,19.9-1,28.8-3.3c9.8-2.6,20.9-5.3,27.5-15
					c6.6-9.7,10.2-19.8,10.2-19.8l0.5-41.7l-4.1-16.8C271.1,282.9,274.1,271.1,274.1,264.5z M208.1,379.4
					C208.1,379.4,208,379.4,208.1,379.4C208.2,379.4,208.2,379.4,208.1,379.4z"/>
				<path id="XMLID_320_" class="st99" d="M274.1,264.5c0-9.9-2.1-61-2.5-77c-0.3-12.2-0.6-20.4-0.6-20.4s2.5-1.5,3-4.1
					c0.5-2.5,1-11.2,1-14.7c0-2-0.5-13.4-0.9-22.8c-8.4-16.8-23.6-28.1-35.6-43.1c-0.8-1-1.6-2-2.5-3c-1.1-0.3-2.3-0.5-3.6-0.7
					c-9.4-1.7-18.9-1.8-24.3-1.7c-5.5-0.1-15.5,0-24.9,1.7c-1.2,0.2-2.4,0.5-3.6,0.7c-0.9,1-1.8,1.9-2.5,3
					c-12.1,15-27.3,26.2-35.6,43.1c-0.4,9.4-0.9,20.8-0.9,22.8c0,3.6,0.5,12.2,1,14.7c0.5,2.5,3,4.1,3,4.1s-0.2,8.2-0.6,20.4
					c-0.4,16.1-2.5,67.1-2.5,77c0,6.6,3.1,18.4,3.1,18.4l-4.1,16.8l0.5,41.7c0,0,3.6,10.2,10.2,19.8c6.6,9.7,17.7,12.4,27.5,15
					c8.9,2.3,22.8,3.3,29.4,3.3c0,0,0,0,0,0c0.1,0,0.1,0,0,0c6.6,0,19.9-1,28.8-3.3c9.8-2.6,20.9-5.3,27.5-15
					c6.6-9.7,10.2-19.8,10.2-19.8l0.5-41.7l-4.1-16.8C271.1,282.9,274.1,271.1,274.1,264.5z M208.1,379.4
					C208.1,379.4,208,379.4,208.1,379.4C208.2,379.4,208.2,379.4,208.1,379.4z"/>
				<path id="XMLID_268_" class="st46" d="M152.1,274.2c0,0,0.1,1,0.2,2.7C152.2,275.9,152.2,275.1,152.1,274.2L152.1,274.2z"/>
				<path id="XMLID_225_" class="st47" d="M151.2,259.1c0.4,4.4,0.8,7.7,0.8,7.7l9.1,0.6c0,0,0.1-2.9,0.2-7.1L151.2,259.1z"/>
				<path id="XMLID_263_" class="st53" d="M144.4,265.6c-1-22.8,0.9-45.5-0.6-68.1c-0.7,20.3-2.1,55.2-2.2,65.6"/>
				<path id="XMLID_261_" class="st53" d="M151.2,259.1c-0.1-0.7-0.1-1.3-0.2-2.1c-0.4-5.4-0.8-90.2-0.8-90.2l0.2-4c0,0,0,0,0-0.1
					c-0.4-1.9-1.2-4.1-3.1-4.5c-1.1-0.2-2.1,0.2-3.1,0.7c-1,0.4-2,0.9-3,1.5c0.1,1.1,0.2,2,0.3,2.6c0.5,2.5,3,4.1,3,4.1
					s-0.2,8.2-0.6,20.4c-0.1,2.6-0.2,6-0.3,10.1c1.5,22.6-0.4,45.4,0.6,68.1c0.5,0.2,1,0.4,1.6,0.6c2,0.5,4.1,0.2,6-0.5
					C151.8,264.4,151.5,262,151.2,259.1z"/>
				<radialGradient id="XMLID_7_" cx="178.1639" cy="116.2665" r="37.8696" gradientUnits="userSpaceOnUse">
					<stop  offset="0" style="stop-color:#000000"/>
					<stop  offset="8.606588e-02" style="stop-color:#0B0B0B"/>
					<stop  offset="0.2368" style="stop-color:#282828"/>
					<stop  offset="0.4345" style="stop-color:#575757"/>
					<stop  offset="0.6714" style="stop-color:#999999"/>
					<stop  offset="0.9389" style="stop-color:#EBEBEB"/>
					<stop  offset="1" style="stop-color:#FFFFFF"/>
				</radialGradient>
				<path id="XMLID_238_" style="fill:url(#XMLID_7_);stroke:#000000;stroke-miterlimit:10;" d="M179.7,79.4
					c-11.8,2.8-17.7,7.5-21.3,10.4c-1.1,0.9-2.1,1.9-3.1,3c-4.6,6.7-8.2,13.4-7.6,21.4c0.2,0.2,0.4,0.2,0.7,0.3
					c8.4-11.3,19.6-20.6,28.8-32.1C177.9,81.4,178.8,80.4,179.7,79.4z"/>
				<path id="XMLID_240_" class="st53" d="M155.2,92.8c-7.2,7.7-13.1,19.9-13.1,19.9s-0.3,5.8-0.6,12.8c1.9-3.9,4.3-7.5,6.8-11
					c-0.3,0-0.5-0.1-0.7-0.3C147,106.3,150.6,99.5,155.2,92.8z"/>
				<path id="XMLID_234_" class="st101" d="M157.3,169.2c0,0-1.2-4.9-1.2-8c0-3.1-0.2-6.6-0.2-6.6l-1.2-0.4c0,0-1.9-1.9-2.7-9.9
					c-0.6-6.5,0.5-28,1-35.6c-4.4,5.2-8.5,10.6-11.6,16.8c-0.4,9.4-0.9,20.8-0.9,22.8c0,3.6,0.5,12.2,1,14.7c0.5,2.5,3,4.1,3,4.1
					s0,0.2,0,0.7c0.7-0.4,1.4-0.8,2-0.9c1.4-0.2,3.7,0,3.7,0l0.2-4.3c0,0,0.4-2.3,1.2-1c0.8,1.4,2.1,10.1,2.1,10.1L157.3,169.2z"/>
				<path id="XMLID_283_" class="st51" d="M163.5,149.9c-4.5,2.5-7.5,4.6-7.5,4.6s0.2,3.5,0.2,6.6c0,3.1,1.2,8,1.2,8l0,0
					c0.3-0.1,0.5-0.1,0.9-0.1C157.9,162.3,160.7,156,163.5,149.9z"/>
				<path id="XMLID_254_" class="st51" d="M161.8,240.7c0.2-10.3-0.4-23.5-1-29.2c-0.6-5.6-7-39.9-7-39.9s-1.4-8.8-2.1-10.1
					c-0.8-1.4-1.2,1-1.2,1l-0.2,4.3c0,0,0.4,84.8,0.8,90.2c0.1,0.7,0.1,1.4,0.2,2.1l10.1,1.1C161.5,254.6,161.7,246.7,161.8,240.7z"
					/>
				<linearGradient id="XMLID_8_" gradientUnits="userSpaceOnUse" x1="153.2509" y1="222.6128" x2="163.8619" y2="222.1612">
					<stop  offset="0" style="stop-color:#000000"/>
					<stop  offset="8.606588e-02" style="stop-color:#0B0B0B"/>
					<stop  offset="0.2368" style="stop-color:#282828"/>
					<stop  offset="0.4345" style="stop-color:#575757"/>
					<stop  offset="0.6714" style="stop-color:#999999"/>
					<stop  offset="0.9389" style="stop-color:#EBEBEB"/>
					<stop  offset="1" style="stop-color:#FFFFFF"/>
				</linearGradient>
				<path id="XMLID_237_" style="fill:url(#XMLID_8_);stroke:#000000;stroke-miterlimit:10;" d="M160.3,260.1
					c0.1-4.7,0.2-14.8,0.4-20.2c0.2-7.2-1-25.9-1.4-30c-0.4-4.1-4.1-25.3-4.1-25.3l-3.3,0.4l0.6,74.1L160.3,260.1z"/>
				<g id="XMLID_241_">
					<path id="XMLID_275_" class="st44" d="M144,285.5l-3.4,14.2l0.5,37.1c1,2.7,2.6,5.1,4.3,7.4C144.6,315.7,144.2,297.3,144,285.5
						z"/>
					<path id="XMLID_276_" class="st44" d="M141,336.8l0.1,4.5c0,0,1.5,4.4,4.4,10.1c-0.1-2.5-0.1-4.9-0.2-7.2
						C143.6,341.9,142.1,339.4,141,336.8z"/>
					<path id="XMLID_259_" class="st53" d="M144.1,265.3l0.3,0.3C144.4,265.6,144.2,264.2,144.1,265.3z"/>
					<path id="XMLID_262_" class="st53" d="M141.6,264.5c0,4.6,1.5,11.6,2.4,15.6c-0.1-10.1,0-13.6,0.1-14.7l-2.5-2.8
						C141.6,263.2,141.6,263.9,141.6,264.5z"/>
				</g>
				<path id="XMLID_222_" class="st51" d="M152.1,266.8c0,0-0.2,10.3,1,18.9s7.2,31.9,7.2,31.9l1-50.2L152.1,266.8z"/>
				<path id="XMLID_266_" class="st46" d="M152.1,274.2L152.1,274.2c-0.1-0.1,0,0.9,0.1,2.6C152.2,275.9,152.2,275.1,152.1,274.2z"
					/>
				<linearGradient id="XMLID_9_" gradientUnits="userSpaceOnUse" x1="155.0029" y1="288.7598" x2="167.42" y2="288.0825">
					<stop  offset="0" style="stop-color:#000000"/>
					<stop  offset="8.606588e-02" style="stop-color:#0B0B0B"/>
					<stop  offset="0.2368" style="stop-color:#282828"/>
					<stop  offset="0.4345" style="stop-color:#575757"/>
					<stop  offset="0.6714" style="stop-color:#999999"/>
					<stop  offset="0.9389" style="stop-color:#EBEBEB"/>
					<stop  offset="1" style="stop-color:#FFFFFF"/>
				</linearGradient>
				<path id="XMLID_226_" style="fill:url(#XMLID_9_);stroke:#000000;stroke-miterlimit:10;" d="M154.2,272l5.1-0.2c0,0,1-0.4,1,1.6
					c0,1.9,0,18.3-0.2,22.6c-0.1,2.6-0.3,6.4-0.4,9c0,0.5-0.7,0.5-0.8,0.1c-1-4.6-2.9-13.5-3.5-17.2C153.2,273,154.2,272,154.2,272z
					"/>
				<path id="XMLID_257_" class="st55" d="M147.9,339.9c0,0,1.7-2.2,2.5-1.7s1.9,3.2,4.2,6.9c2.4,3.7,14.9,21,14.9,21
					s-9-2.7-13.2-6.3c-4.2-3.6-6.9-9.5-7.5-13.5C148.4,342.3,147.9,339.9,147.9,339.9z"/>
				<path id="XMLID_239_" class="st47" d="M257.5,169.1c0.3-6.8-2.5-13.1-5.3-19.2c-4.4-2.5-10.3-5.4-16.1-7.1
					c-11.7-3.5-28-2.7-28-2.7s-16.9-0.7-28.6,2.7c-5.8,1.7-11.6,4.6-16.1,7.1c-2.8,6-5.6,12.3-5.3,19.2c-0.3,0-0.6,0-0.9,0.1
					l7.2,39.5c0,0,15.7-2.2,26-2.5c10.2-0.2,17.6,0,17.6,0s6.8-0.2,17.1,0c10.2,0.2,26,2.5,26,2.5l7.2-39.5
					C258.1,169.1,257.8,169.1,257.5,169.1z"/>
				<path id="XMLID_265_" class="st46" d="M170.9,367.9l-1.4-1.7c0,0,1.7-1.6,2.7-2.2c1-0.6,1.2-0.7,1.2-0.7"/>
				<line id="XMLID_269_" class="st46" x1="160.6" y1="353.5" x2="168" y2="353.4"/>
				<path id="XMLID_285_" class="st51" d="M133.3,187.6l14.6-5.3v-1.9l-14.3,5.2C133.3,186.8,133.3,187.6,133.3,187.6z"/>
				<path id="XMLID_286_" class="st47" d="M156.4,185.1l-2.6-13.4l-7.7,2.8c0,0-7.1,1.8-10,5.3c-1.6,2-2.3,4.2-2.6,5.8l14.3-5.2
					v-0.6h2.5v6L156.4,185.1z"/>
				<path id="XMLID_313_" class="st46" d="M263.6,274.2c0,0-0.1,1-0.2,2.7C263.5,275.9,263.5,275.1,263.6,274.2L263.6,274.2z"/>
				<path id="XMLID_310_" class="st47" d="M264.5,259.1c-0.4,4.4-0.8,7.7-0.8,7.7l-9.1,0.6c0,0-0.1-2.9-0.2-7.1L264.5,259.1z"/>
				<path id="XMLID_309_" class="st53" d="M271.3,265.6c1-22.8-0.9-45.5,0.6-68.1c0.7,20.3,2.1,55.2,2.2,65.6"/>
				<path id="XMLID_308_" class="st53" d="M264.5,259.1c0.1-0.7,0.1-1.3,0.2-2.1c0.4-5.4,0.8-90.2,0.8-90.2l-0.2-4c0,0,0,0,0-0.1
					c0.4-1.9,1.2-4.1,3.1-4.5c1.1-0.2,2.1,0.2,3.1,0.7c1,0.4,2,0.9,3,1.5c-0.1,1.1-0.2,2-0.3,2.6c-0.5,2.5-3,4.1-3,4.1
					s0.2,8.2,0.6,20.4c0.1,2.6,0.2,6,0.3,10.1c-1.5,22.6,0.4,45.4-0.6,68.1c-0.5,0.2-1,0.4-1.6,0.6c-2,0.5-4.1,0.2-6-0.5
					C263.9,264.4,264.2,262,264.5,259.1z"/>
				
					<radialGradient id="XMLID_10_" cx="812.4815" cy="116.2665" r="37.8696" gradientTransform="matrix(-1 0 0 1 1050.0199 0)" gradientUnits="userSpaceOnUse">
					<stop  offset="0" style="stop-color:#000000"/>
					<stop  offset="8.606588e-02" style="stop-color:#0B0B0B"/>
					<stop  offset="0.2368" style="stop-color:#282828"/>
					<stop  offset="0.4345" style="stop-color:#575757"/>
					<stop  offset="0.6714" style="stop-color:#999999"/>
					<stop  offset="0.9389" style="stop-color:#EBEBEB"/>
					<stop  offset="1" style="stop-color:#FFFFFF"/>
				</radialGradient>
				<path id="XMLID_307_" style="fill:url(#XMLID_10_);stroke:#000000;stroke-miterlimit:10;" d="M236,79.4
					c11.8,2.8,17.7,7.5,21.3,10.4c1.1,0.9,2.1,1.9,3.1,3c4.6,6.7,8.2,13.4,7.6,21.4c-0.2,0.2-0.4,0.2-0.7,0.3
					c-8.4-11.3-19.6-20.6-28.8-32.1C237.8,81.4,236.9,80.4,236,79.4z"/>
				<path id="XMLID_306_" class="st53" d="M260.5,92.8c7.2,7.7,13.1,19.9,13.1,19.9s0.3,5.8,0.6,12.8c-1.9-3.9-4.3-7.5-6.8-11
					c0.3,0,0.5-0.1,0.7-0.3C268.7,106.3,265.1,99.5,260.5,92.8z"/>
				<path id="XMLID_305_" class="st101" d="M258.4,169.2c0,0,1.2-4.9,1.2-8c0-3.1,0.2-6.6,0.2-6.6l1.2-0.4c0,0,1.9-1.9,2.7-9.9
					c0.6-6.5-0.5-28-1-35.6c4.4,5.2,8.5,10.6,11.6,16.8c0.4,9.4,0.9,20.8,0.9,22.8c0,3.6-0.5,12.2-1,14.7c-0.5,2.5-3,4.1-3,4.1
					s0,0.2,0,0.7c-0.7-0.4-1.4-0.8-2-0.9c-1.4-0.2-3.7,0-3.7,0l-0.2-4.3c0,0-0.4-2.3-1.2-1c-0.8,1.4-2.1,10.1-2.1,10.1L258.4,169.2z
					"/>
				<path id="XMLID_303_" class="st51" d="M252.2,149.9c4.5,2.5,7.5,4.6,7.5,4.6s-0.2,3.5-0.2,6.6c0,3.1-1.2,8-1.2,8l0,0
					c-0.3-0.1-0.5-0.1-0.9-0.1C257.8,162.3,255,156,252.2,149.9z"/>
				<path id="XMLID_302_" class="st51" d="M253.9,240.7c-0.2-10.3,0.4-23.5,1-29.2c0.6-5.6,7-39.9,7-39.9s1.4-8.8,2.1-10.1
					c0.8-1.4,1.2,1,1.2,1l0.2,4.3c0,0-0.4,84.8-0.8,90.2c-0.1,0.7-0.1,1.4-0.2,2.1l-10.1,1.1C254.2,254.6,254,246.7,253.9,240.7z"/>
				
					<linearGradient id="XMLID_11_" gradientUnits="userSpaceOnUse" x1="787.5685" y1="222.6128" x2="798.1795" y2="222.1612" gradientTransform="matrix(-1 0 0 1 1050.0199 0)">
					<stop  offset="0" style="stop-color:#000000"/>
					<stop  offset="8.606588e-02" style="stop-color:#0B0B0B"/>
					<stop  offset="0.2368" style="stop-color:#282828"/>
					<stop  offset="0.4345" style="stop-color:#575757"/>
					<stop  offset="0.6714" style="stop-color:#999999"/>
					<stop  offset="0.9389" style="stop-color:#EBEBEB"/>
					<stop  offset="1" style="stop-color:#FFFFFF"/>
				</linearGradient>
				<path id="XMLID_301_" style="fill:url(#XMLID_11_);stroke:#000000;stroke-miterlimit:10;" d="M255.4,260.1
					c-0.1-4.7-0.2-14.8-0.4-20.2c-0.2-7.2,1-25.9,1.4-30c0.4-4.1,4.1-25.3,4.1-25.3l3.3,0.4l-0.6,74.1L255.4,260.1z"/>
				<g id="XMLID_296_">
					<path id="XMLID_300_" class="st44" d="M271.7,285.5l3.4,14.2l-0.5,37.1c-1,2.7-2.6,5.1-4.3,7.4
						C271.1,315.7,271.5,297.3,271.7,285.5z"/>
					<path id="XMLID_299_" class="st44" d="M274.7,336.8l-0.1,4.5c0,0-1.5,4.4-4.4,10.1c0.1-2.5,0.1-4.9,0.2-7.2
						C272.1,341.9,273.6,339.4,274.7,336.8z"/>
					<path id="XMLID_298_" class="st53" d="M271.6,265.3l-0.3,0.3C271.3,265.6,271.5,264.2,271.6,265.3z"/>
					<path id="XMLID_297_" class="st53" d="M274.1,264.5c0,4.6-1.5,11.6-2.4,15.6c0.1-10.1,0-13.6-0.1-14.7l2.5-2.8
						C274.1,263.2,274.1,263.9,274.1,264.5z"/>
				</g>
				<path id="XMLID_295_" class="st51" d="M263.6,266.8c0,0,0.2,10.3-1,18.9c-1.2,8.6-7.2,31.9-7.2,31.9l-1-50.2L263.6,266.8z"/>
				<path id="XMLID_294_" class="st46" d="M263.6,274.2L263.6,274.2c0.1-0.1,0,0.9-0.1,2.6C263.5,275.9,263.5,275.1,263.6,274.2z"/>
				
					<linearGradient id="XMLID_12_" gradientUnits="userSpaceOnUse" x1="789.3205" y1="288.7598" x2="801.7376" y2="288.0825" gradientTransform="matrix(-1 0 0 1 1050.0199 0)">
					<stop  offset="0" style="stop-color:#000000"/>
					<stop  offset="8.606588e-02" style="stop-color:#0B0B0B"/>
					<stop  offset="0.2368" style="stop-color:#282828"/>
					<stop  offset="0.4345" style="stop-color:#575757"/>
					<stop  offset="0.6714" style="stop-color:#999999"/>
					<stop  offset="0.9389" style="stop-color:#EBEBEB"/>
					<stop  offset="1" style="stop-color:#FFFFFF"/>
				</linearGradient>
				<path id="XMLID_293_" style="fill:url(#XMLID_12_);stroke:#000000;stroke-miterlimit:10;" d="M261.5,272l-5.1-0.2
					c0,0-1-0.4-1,1.6c0,1.9,0,18.3,0.2,22.6c0.1,2.6,0.3,6.4,0.4,9c0,0.5,0.7,0.5,0.8,0.1c1-4.6,2.9-13.5,3.5-17.2
					C262.5,273,261.5,272,261.5,272z"/>
				<path id="XMLID_270_" class="st107" d="M262.7,285.7c-1.2,8.6-7.2,31.9-7.2,31.9s-3.7,1.6-6.4,2.1c-2.7,0.6-13,1.4-19.8,2.1
					c-5.2,0.6-16.3,0.6-21.1,0.6c-4.8,0-16.4,0-21.6-0.6c-6.8-0.8-17.1-1.6-19.8-2.1c-2.7-0.6-6.4-2.1-6.4-2.1s-6-23.3-7.2-31.9
					c-0.1-0.8-0.2-1.6-0.3-2.3c0.7,8.8,1.8,21.8,2.6,28.2c1.4,10.3,3.5,30.9,8.6,39.7c5.1,8.8,14.2,19.4,29.2,20.4
					c7.3,0.5,12.3,0.7,15,0.7c2.7-0.1,7.1-0.3,14.5-0.7c15-1,24.1-11.7,29.2-20.4c5.1-8.8,7.2-29.4,8.6-39.7
					c0.8-6.4,1.9-19.4,2.6-28.2C262.9,284.1,262.8,284.9,262.7,285.7z"/>
				<linearGradient id="XMLID_13_" gradientUnits="userSpaceOnUse" x1="161.2032" y1="349.9748" x2="254.4991" y2="349.9748">
					<stop  offset="0" style="stop-color:#000000"/>
					<stop  offset="8.606588e-02" style="stop-color:#0B0B0B"/>
					<stop  offset="0.2368" style="stop-color:#282828"/>
					<stop  offset="0.4345" style="stop-color:#575757"/>
					<stop  offset="0.6714" style="stop-color:#999999"/>
					<stop  offset="0.9389" style="stop-color:#EBEBEB"/>
					<stop  offset="1" style="stop-color:#FFFFFF"/>
				</linearGradient>
				<path id="XMLID_272_" style="fill:url(#XMLID_13_);stroke:#000000;stroke-miterlimit:10;" d="M237.6,342.4
					c-9.8,2.5-22.2,2.8-29.5,2.7c-7.2,0.1-20.2-0.2-30-2.7c-14.6-3.7-16.9-14-16.9-14c0,0.8,3.1,19.4,7,25.5
					c3.9,6,10.3,15.6,23.7,16.5c8.4,0.6,13.7,0.9,16.2,1.1c2.5-0.1,7.3-0.4,15.7-1.1c13.4-1,19.8-10.5,23.7-16.5
					c3.9-6,7-24.7,7-25.5C254.5,328.4,252.2,338.8,237.6,342.4z"/>
				<path id="XMLID_289_" class="st55" d="M267.8,339.9c0,0-1.7-2.2-2.5-1.7s-1.9,3.2-4.2,6.9s-14.9,21-14.9,21s9-2.7,13.2-6.3
					c4.2-3.6,6.9-9.5,7.5-13.5S267.8,339.9,267.8,339.9z"/>
				<path id="XMLID_281_" class="st109" d="M267,349.3c0,0-1.2,4.9-4.2,8.6c-3,3.7-8,6.1-11.3,7.8c-3.4,1.7-6.6,2.2-6.6,2.2
					s-12.2,6.3-17.6,6.6c-4.1,0.3-14.3,0.8-19.1,1.1c-4.8-0.3-15.5-0.8-19.6-1.1c-5.4-0.3-17.6-6.6-17.6-6.6s-3.2-0.5-6.6-2.2
					c-3.4-1.7-8.3-4.1-11.3-7.8s-4.2-8.6-4.2-8.6l-3.4-5.1l0.1,7.1c1.5,3,3.5,6.5,5.8,9.8c6.6,9.7,17.7,12.4,27.5,15
					c8.9,2.3,22.8,3.3,29.4,3.3c0,0,0,0,0,0c0.1,0,0.1,0,0,0c6.6,0,19.9-1,28.8-3.3c9.8-2.6,20.9-5.3,27.5-15
					c2.3-3.4,4.2-6.8,5.8-9.8l0.1-7.1L267,349.3z M208.1,379.4C208.1,379.4,208,379.4,208.1,379.4
					C208.2,379.4,208.2,379.4,208.1,379.4z"/>
				<path id="XMLID_287_" class="st46" d="M244.8,367.9l1.4-1.7c0,0-1.7-1.6-2.7-2.2c-1-0.6-1.2-0.7-1.2-0.7"/>
				<line id="XMLID_284_" class="st46" x1="255.1" y1="353.5" x2="247.7" y2="353.4"/>
				<linearGradient id="XMLID_14_" gradientUnits="userSpaceOnUse" x1="160.0636" y1="176.2765" x2="255.6388" y2="176.2765">
					<stop  offset="0" style="stop-color:#000000"/>
					<stop  offset="8.606588e-02" style="stop-color:#0B0B0B"/>
					<stop  offset="0.2368" style="stop-color:#282828"/>
					<stop  offset="0.4345" style="stop-color:#575757"/>
					<stop  offset="0.6714" style="stop-color:#999999"/>
					<stop  offset="0.9389" style="stop-color:#EBEBEB"/>
					<stop  offset="1" style="stop-color:#FFFFFF"/>
				</linearGradient>
				<path id="XMLID_280_" class="st15" d="M251.9,154.6c0,0-10.7-3.2-19-4.2c-8.1-1-24.3-1.7-24.8-1.7c0,0,0,0,0,0c0,0,0,0,0,0
					c-0.5,0-17.2,0.8-25.3,1.7c-8.2,1-19,4.2-19,4.2l-3.7,8.7l6,40.7c0,0,15.5-3.2,23.2-3.5c7.7-0.2,18.8-0.2,18.8-0.2
					s10.6,0,18.3,0.2c7.7,0.2,23.2,3.5,23.2,3.5l6-40.7L251.9,154.6z"/>
				<radialGradient id="XMLID_15_" cx="222.7781" cy="80.5454" r="33.6323" gradientUnits="userSpaceOnUse">
					<stop  offset="0" style="stop-color:#000000"/>
					<stop  offset="8.606588e-02" style="stop-color:#0B0B0B"/>
					<stop  offset="0.2368" style="stop-color:#282828"/>
					<stop  offset="0.4345" style="stop-color:#575757"/>
					<stop  offset="0.6714" style="stop-color:#999999"/>
					<stop  offset="0.9389" style="stop-color:#EBEBEB"/>
					<stop  offset="1" style="stop-color:#FFFFFF"/>
				</radialGradient>
				<polygon id="XMLID_318_" style="fill:url(#XMLID_15_);stroke:#000000;stroke-miterlimit:10;" points="207.8,78.5 204.2,82.1 
					207.8,86.2 211.5,82.1 				"/>
				<path id="XMLID_278_" class="st51" d="M282.4,187.6l-14.6-5.3v-1.9l14.3,5.2C282.4,186.8,282.4,187.6,282.4,187.6z"/>
				<path id="XMLID_260_" class="st47" d="M259.3,185.1l2.6-13.4l7.7,2.8c0,0,7.1,1.8,10,5.3c1.6,2,2.3,4.2,2.6,5.8l-14.3-5.2v-0.6
					h-2.5v6L259.3,185.1z"/>
				<path id="XMLID_274_" class="st112" d="M249.4,319.6c-0.1,0-0.2,0.1-0.4,0.1c-2.7,0.6-13,1.4-19.8,2.1
					c-5.2,0.6-16.3,0.6-21.1,0.6c-4.8,0-16.4,0-21.6-0.6c-6.8-0.8-17.1-1.6-19.8-2.1c-0.1,0-0.2-0.1-0.4-0.1
					c-0.3,2.7-0.2,5.4,1.5,7.4c1,1.1,2.4,1.8,3.8,2.4c11.3,4.8,24.1,6,36.5,6.2c12.4-0.2,24.7-1.3,35.9-6.2c1.4-0.6,2.8-1.3,3.8-2.4
					C249.6,325,249.7,322.3,249.4,319.6z"/>
			</g>
		</g>
	</g>
</g>
</svg>
