<?xml version="1.0" encoding="utf-8"?>
<!-- Generator: Adobe Illustrator 21.0.2, SVG Export Plug-In . SVG Version: 6.00 Build 0)  -->
<svg version="1.1" xmlns="http://www.w3.org/2000/svg" xmlns:xlink="http://www.w3.org/1999/xlink" x="0px" y="0px"
	 viewBox="0 0 417.7 461.1" style="enable-background:new 0 0 417.7 461.1;" xml:space="preserve">
<style type="text/css">
	.st0{fill:#BFBFBF;}
	.st1{fill:#BF0411;}
	.st2{fill:none;stroke:#000000;stroke-width:0.5;stroke-miterlimit:10;}
	.st3{fill:#CE6B00;}
	.st4{fill:none;stroke:#BF0411;stroke-width:0.5;stroke-miterlimit:10;}
	.st5{fill:#BF0411;stroke:#000000;stroke-width:0.5;stroke-miterlimit:10;}
	.st6{fill:url(#XMLID_7_);}
	.st7{fill:url(#XMLID_8_);}
	.st8{fill:url(#XMLID_9_);}
	.st9{fill:url(#XMLID_10_);stroke:#000000;stroke-width:0.5;stroke-miterlimit:10;}
	.st10{fill:#333333;}
	.st11{fill:#D9D9D9;}
	.st12{fill:url(#XMLID_11_);}
	.st13{fill:url(#XMLID_12_);}
	.st14{fill:url(#XMLID_13_);}
	.st15{fill:url(#XMLID_14_);}
	.st16{fill:url(#XMLID_15_);}
	.st17{fill:url(#XMLID_16_);}
	.st18{fill:url(#XMLID_17_);}
	.st19{fill:url(#XMLID_18_);}
	.st20{fill:url(#XMLID_19_);}
	.st21{fill:url(#XMLID_20_);}
	.st22{fill:url(#XMLID_21_);}
	.st23{fill:url(#XMLID_22_);}
	.st24{fill:url(#XMLID_23_);}
	.st25{fill:url(#XMLID_24_);}
	.st26{fill:url(#XMLID_25_);}
	.st27{fill:url(#XMLID_26_);}
	.st28{fill:url(#XMLID_27_);stroke:#000000;stroke-width:0.5;stroke-miterlimit:10;}
	.st29{fill:#1A75B8;stroke:#333333;stroke-miterlimit:10;}
	.st30{fill:#1A1A1A;}
	.st31{fill:url(#XMLID_28_);}
	.st32{fill:#0066B0;stroke:#333333;stroke-miterlimit:10;}
	.st33{fill:url(#XMLID_29_);}
	.st34{fill:url(#XMLID_30_);}
	.st35{fill:#0066B0;}
	.st36{fill:url(#XMLID_31_);}
	.st37{fill:url(#XMLID_32_);}
	.st38{fill:url(#XMLID_33_);}
	.st39{fill:url(#XMLID_34_);}
	.st40{fill:#4D94C8;stroke:#333333;stroke-miterlimit:10;}
	.st41{fill:#595959;}
	.st42{fill:url(#XMLID_35_);}
	.st43{fill:#3384C0;}
	.st44{fill:#FEF673;stroke:#000000;stroke-width:0.25;stroke-miterlimit:10;}
	.st45{fill:#78AD2C;stroke:#000000;stroke-width:0.25;stroke-miterlimit:10;}
	.st46{fill:none;stroke:#000000;stroke-width:0.25;stroke-miterlimit:10;}
	.st47{fill:#333333;stroke:#000000;stroke-miterlimit:10;}
	.st48{fill:url(#XMLID_36_);stroke:#000000;stroke-miterlimit:10;}
	.st49{fill:#9AC261;stroke:#000000;stroke-width:0.25;stroke-miterlimit:10;}
	.st50{fill:#86B541;stroke:#000000;stroke-width:0.25;stroke-miterlimit:10;}
	.st51{stroke:#000000;stroke-miterlimit:10;}
	.st52{fill:url(#XMLID_37_);stroke:#000000;stroke-miterlimit:10;}
	.st53{fill:#FEF566;stroke:#000000;stroke-width:0.25;stroke-miterlimit:10;}
	.st54{fill:url(#XMLID_38_);stroke:#000000;stroke-miterlimit:10;}
	.st55{fill:#BF0411;stroke:#000000;stroke-miterlimit:10;}
	.st56{fill:url(#XMLID_39_);stroke:#000000;stroke-miterlimit:10;}
	.st57{fill:url(#XMLID_40_);stroke:#000000;stroke-miterlimit:10;}
	.st58{fill:url(#XMLID_41_);stroke:#000000;stroke-miterlimit:10;}
	.st59{fill:#78AD2C;stroke:#000000;stroke-width:0.25;stroke-linejoin:bevel;stroke-miterlimit:10;}
	.st60{fill:url(#XMLID_42_);stroke:#000000;stroke-miterlimit:10;}
	.st61{fill:url(#XMLID_43_);}
	.st62{fill:url(#XMLID_44_);stroke:#000000;stroke-miterlimit:10;}
	.st63{fill:#9AC261;stroke:#000000;stroke-width:0.25;stroke-linejoin:bevel;stroke-miterlimit:10;}
	.st64{fill:#EE8800;}
	.st65{fill:#EE8800;stroke:#000000;stroke-width:0.5;stroke-miterlimit:10;}
	.st66{fill:url(#XMLID_45_);}
	.st67{fill:url(#XMLID_46_);}
	.st68{fill:url(#XMLID_47_);}
	.st69{fill:url(#XMLID_48_);stroke:#000000;stroke-width:0.5;stroke-miterlimit:10;}
	.st70{fill:#EE8800;stroke:#FFFFFF;stroke-width:0.5;stroke-miterlimit:10;}
	.st71{fill:url(#XMLID_49_);}
	.st72{fill:url(#XMLID_50_);}
	.st73{fill:url(#XMLID_51_);}
	.st74{fill:url(#XMLID_52_);}
	.st75{fill:url(#XMLID_53_);}
	.st76{fill:url(#XMLID_54_);}
	.st77{fill:url(#XMLID_55_);}
	.st78{fill:url(#XMLID_56_);}
	.st79{fill:url(#XMLID_57_);}
	.st80{fill:url(#XMLID_58_);}
	.st81{fill:url(#XMLID_59_);}
	.st82{fill:url(#XMLID_60_);}
	.st83{fill:url(#XMLID_61_);}
	.st84{fill:url(#XMLID_62_);}
	.st85{fill:url(#XMLID_63_);}
	.st86{fill:url(#XMLID_64_);}
	.st87{fill:url(#XMLID_65_);stroke:#000000;stroke-width:0.5;stroke-miterlimit:10;}
	.st88{fill:#808080;stroke:#333333;stroke-miterlimit:10;}
	.st89{fill:url(#XMLID_66_);}
	.st90{fill:url(#XMLID_67_);}
	.st91{fill:url(#XMLID_68_);}
	.st92{fill:#666666;}
	.st93{fill:url(#XMLID_69_);}
	.st94{fill:url(#XMLID_70_);}
	.st95{fill:url(#XMLID_71_);}
	.st96{fill:#A6A6A6;}
	.st97{fill:url(#XMLID_80_);}
	.st98{fill:url(#XMLID_82_);}
	.st99{fill:#FEEE00;stroke:#000000;stroke-width:0.25;stroke-miterlimit:10;}
	.st100{fill:url(#XMLID_83_);stroke:#000000;stroke-miterlimit:10;}
	.st101{fill:#FEF34D;stroke:#000000;stroke-width:0.25;stroke-miterlimit:10;}
	.st102{fill:url(#XMLID_88_);stroke:#000000;stroke-miterlimit:10;}
	.st103{fill:url(#XMLID_89_);stroke:#000000;stroke-miterlimit:10;}
	.st104{fill:url(#XMLID_90_);stroke:#000000;stroke-miterlimit:10;}
	.st105{fill:url(#XMLID_92_);stroke:#000000;stroke-miterlimit:10;}
	.st106{fill:url(#XMLID_93_);stroke:#000000;stroke-miterlimit:10;}
	.st107{fill:#FEEE00;stroke:#000000;stroke-width:0.25;stroke-linejoin:bevel;stroke-miterlimit:10;}
	.st108{fill:url(#XMLID_99_);stroke:#000000;stroke-miterlimit:10;}
	.st109{fill:#FEF01A;stroke:#000000;stroke-width:0.25;stroke-miterlimit:10;}
	.st110{fill:url(#XMLID_106_);}
	.st111{fill:url(#XMLID_112_);stroke:#000000;stroke-miterlimit:10;}
	.st112{fill:#FEF34D;stroke:#000000;stroke-width:0.25;stroke-linejoin:bevel;stroke-miterlimit:10;}
</style>
<g id="Background">
</g>
<g id="Objects">
	<g id="XMLID_5_">
		<path id="XMLID_716_" class="st0" d="M152.7,187.5c0,0.3,0,0.6,0,0.9c0,0.1,0,0.2,0,0.3c0,0.2,0,0.5,0,0.7c0,0.1,0,0.2,0,0.3
			c0,0.3,0,0.6,0,0.9c0,0.1,0,0.2,0,0.3c0,0.3,0,0.7,0,1.1c0,0.1,0,0.3,0,0.4c0,0.3,0,0.6,0,0.9c0,0.1,0,0.2,0,0.3c0,0.3,0,0.6,0,1
			c0,0.1,0,0.2,0,0.3c0,0.9-0.1,1.8-0.1,2.8c0,1.3-0.1,2.6-0.1,3.9c0,0,0,0,0,0.1c-0.1,2-0.1,4.2-0.2,6.4c0,0,0,0.1,0,0.1
			c-0.1,2.9-0.2,5.9-0.3,9c0,0.2,0,0.5,0,0.7c0,1-0.1,2.1-0.1,3.1c-0.2,6-0.4,12.1-0.6,17.9c0,0,0,0,0,0c0,0.7-0.1,1.5-0.1,2.2
			c0,0,0,0,0,0c-0.2,4.5-0.3,8.6-0.4,12.3c0,0,0,0,0,0c-0.1,4.2-0.2,7.7-0.2,9.9c0,0,0,0,0,0c0,0.1,0,0.3,0,0.4c0,0,0,0,0,0
			c0,0.3,0,0.6,0,0.9c0,0.3,0,0.5,0,0.8c0,0.1,0,0.2,0,0.2c0,0.2,0,0.4,0,0.7c0,0.1,0,0.1,0,0.2c0,0.3,0,0.6,0.1,0.9
			c0,0.1,0,0.1,0,0.2c0,0.2,0,0.5,0.1,0.7c0,0.1,0,0.2,0,0.3c0,0.3,0.1,0.5,0.1,0.8c0,0,0,0.1,0,0.1c0,0.3,0.1,0.6,0.1,0.9
			c0,0.1,0,0.2,0,0.3c0,0.2,0.1,0.5,0.1,0.7c0,0.1,0,0.2,0,0.3c0.1,0.3,0.1,0.6,0.2,0.9c0,0,0,0.1,0,0.1c0,0.3,0.1,0.6,0.1,0.8
			c0,0.1,0,0.2,0.1,0.3c0,0.2,0.1,0.5,0.1,0.7c0,0.1,0,0.1,0,0.2c0.1,0.3,0.1,0.6,0.2,0.9c0,0.1,0,0.1,0,0.2c0,0.2,0.1,0.5,0.1,0.7
			c0,0.1,0,0.1,0,0.2c0.1,0.6,0.2,1.1,0.4,1.7c0,0,0,0.1,0,0.1c0.1,0.2,0.1,0.5,0.2,0.7c0,0,0,0,0,0.1c0.5,2.2,0.9,3.6,0.9,3.6
			l-4.1,16.8l0.5,41.7c0,0,0,0.1,0.1,0.2c0,0,0,0,0,0.1c0,0.1,0.1,0.3,0.2,0.5c0,0,0,0.1,0,0.1c0,0.1,0.1,0.2,0.1,0.3
			c0,0,0,0.1,0,0.1c0,0.1,0.1,0.3,0.2,0.4c0,0,0,0,0,0.1c0.1,0.2,0.1,0.3,0.2,0.5c0,0,0,0.1,0,0.1c0.1,0.2,0.1,0.3,0.2,0.5
			c0,0.1,0,0.1,0.1,0.2c0.1,0.2,0.1,0.4,0.2,0.5c0,0,0,0.1,0.1,0.1c0.1,0.2,0.2,0.5,0.3,0.7c0,0,0,0,0,0c0.1,0.2,0.2,0.5,0.3,0.7
			c0,0.1,0.1,0.1,0.1,0.2c0.1,0.2,0.2,0.4,0.3,0.6c0,0.1,0.1,0.1,0.1,0.2c0.3,0.6,0.5,1.2,0.8,1.8c0,0.1,0.1,0.1,0.1,0.2
			c0.1,0.2,0.2,0.5,0.4,0.7c0,0.1,0.1,0.2,0.1,0.2c0.1,0.3,0.3,0.6,0.4,0.9v0c0,0,0,0,0,0c0.4,0.7,0.8,1.5,1.2,2.3
			c0,0,0,0.1,0.1,0.1c0.4,0.8,0.9,1.5,1.3,2.3c0,0,0.1,0.1,0.1,0.1c0.5,0.8,0.9,1.6,1.4,2.4c0,0,0,0.1,0.1,0.1
			c0.5,0.8,1.1,1.6,1.6,2.5c6.6,9.7,17.7,12.4,27.5,15c8.9,2.3,22.8,3.3,29.4,3.3c0,0,0,0,0,0c0.1,0,0.1,0,0,0
			c6.6,0,19.9-1,28.8-3.3c9.8-2.6,20.9-5.3,27.5-15c0.6-0.8,1.1-1.6,1.6-2.5c0,0,0-0.1,0.1-0.1c0.5-0.8,1-1.6,1.4-2.4
			c0,0,0.1-0.1,0.1-0.1c0.5-0.8,0.9-1.6,1.3-2.3c0,0,0-0.1,0-0.1c0.6-1.1,1.1-2.2,1.6-3.2c0-0.1,0.1-0.2,0.1-0.2
			c0.1-0.2,0.2-0.5,0.4-0.7c0-0.1,0.1-0.2,0.1-0.2c0.3-0.6,0.6-1.2,0.8-1.8c0-0.1,0.1-0.1,0.1-0.2c0.1-0.2,0.2-0.4,0.3-0.7
			c0-0.1,0.1-0.1,0.1-0.2c0.1-0.2,0.2-0.5,0.3-0.7c0,0,0,0,0,0c0.1-0.3,0.2-0.5,0.3-0.7c0,0,0-0.1,0.1-0.1c0.1-0.2,0.2-0.4,0.2-0.5
			c0-0.1,0-0.1,0.1-0.2c0.1-0.2,0.1-0.3,0.2-0.5c0,0,0-0.1,0-0.1c0.1-0.2,0.1-0.4,0.2-0.5c0,0,0,0,0-0.1c0.1-0.1,0.1-0.3,0.2-0.4
			c0,0,0-0.1,0-0.1c0-0.1,0.1-0.2,0.1-0.3c0,0,0,0,0,0c0.1-0.2,0.2-0.4,0.2-0.5c0,0,0,0,0-0.1c0-0.1,0.1-0.2,0.1-0.2l0.1-4.5
			l0.5-37.1l-2.8-11.6l-1.3-5.2c0,0,0-0.1,0.1-0.3c0-0.1,0.1-0.3,0.1-0.5c0.2-0.6,0.4-1.6,0.7-2.8c0,0,0,0,0-0.1
			c0-0.1,0.1-0.3,0.1-0.4c0-0.1,0-0.2,0.1-0.3c0,0,0-0.1,0-0.1c0.1-0.5,0.2-1.1,0.4-1.7c0-0.1,0-0.1,0-0.2c0.1-0.3,0.1-0.5,0.2-0.8
			c0-0.1,0-0.1,0-0.2c0.1-0.3,0.1-0.6,0.2-0.9c0,0,0-0.1,0-0.1c0.1-0.3,0.1-0.5,0.2-0.8c0-0.1,0-0.2,0-0.3c0.1-0.3,0.1-0.6,0.2-0.9
			c0,0,0,0,0-0.1c0.1-0.3,0.1-0.6,0.2-1c0-0.1,0-0.2,0-0.2c0-0.3,0.1-0.5,0.1-0.8c0-0.1,0-0.2,0-0.2c0-0.3,0.1-0.6,0.1-0.9
			c0,0,0-0.1,0-0.1c0-0.3,0.1-0.5,0.1-0.8c0-0.1,0-0.2,0-0.3c0-0.2,0.1-0.5,0.1-0.7c0-0.1,0-0.1,0-0.2c0-0.3,0-0.6,0.1-0.9
			c0-0.1,0-0.1,0-0.2c0-0.2,0-0.4,0-0.7c0-0.1,0-0.2,0-0.2c0-0.3,0-0.5,0-0.8c0-0.3,0-0.6,0-0.9c0,0,0,0,0,0
			c0-5.2-0.5-17.4-0.9-30.8c0-1-0.1-2-0.1-3s-0.1-2-0.1-3c0-0.5,0-1-0.1-1.5c-0.1-2.5-0.2-5-0.3-7.5c0-0.9-0.1-1.9-0.1-2.8
			c0-0.7-0.1-1.4-0.1-2.1c0-0.3,0-0.5,0-0.8c0-0.5,0-1-0.1-1.5c0-0.3,0-0.5,0-0.8c0-0.5,0-0.9-0.1-1.4c0-0.2,0-0.3,0-0.5
			c-0.1-1.4-0.1-2.8-0.2-4.2c0,0,0-0.1,0-0.1c0-0.7,0-1.4-0.1-2c0,0,0,0,0-0.1c0-1.4-0.1-2.7-0.1-3.9c0-1.5-0.1-2.8-0.1-4.1
			c0-0.1,0-0.2,0-0.3c0-1.3-0.1-2.5-0.1-3.6c0,0,0,0,0,0c0-0.3,0-0.6,0-0.9c0-0.1,0-0.1,0-0.2c0-0.3,0-0.6,0-1
			c0-1.3-0.1-2.6-0.1-3.8l10.9,4c0,0,0-0.8-0.2-2c-0.3-1.6-1-3.8-2.6-5.8c-2-2.5-6-4.1-8.3-4.8c-0.1-2.4-0.1-4.3-0.2-5.6
			c0-0.7,0-1.2,0-1.6c0,0,0,0,0,0c0-0.4,0-0.7,0-0.7v0c0,0,0.5-0.3,1.1-0.8c0.8-0.7,1.7-1.8,2-3.2c0-0.2,0.1-0.3,0.1-0.5
			c0,0,0,0,0,0c0-0.1,0-0.2,0-0.2c0-0.1,0-0.2,0.1-0.4c0-0.1,0-0.2,0-0.4c0-0.1,0-0.2,0-0.4c0-0.1,0-0.3,0-0.4c0-0.1,0-0.2,0-0.2
			c0,0,0,0,0,0c0.1-1,0.2-2.1,0.3-3.3c0-0.4,0.1-0.7,0.1-1.1c0.2-2.9,0.3-6,0.3-7.7c0-1.4-0.2-7.2-0.5-13.8
			c-0.1-1.8-0.2-3.6-0.2-5.4c-0.1-1.2-0.1-2.4-0.2-3.6c-0.3-6.9-0.6-12.8-0.6-12.8s-6-12.2-13.1-19.9c-1-1.1-2.1-2.1-3.1-3
			c-3.6-2.9-9.5-7.7-21.3-10.4c-1.1-0.3-2.3-0.5-3.6-0.7c-9.4-1.7-18.9-1.8-24.3-1.7c-5.5-0.1-15.5,0-24.9,1.7
			c-1.2,0.2-2.4,0.5-3.6,0.7c-11.8,2.8-17.7,7.5-21.3,10.4c-1.1,0.9-2.1,1.9-3.1,3c-7.2,7.7-13.1,19.9-13.1,19.9s-0.3,5.8-0.6,12.8
			c-0.4,9.4-0.9,20.8-0.9,22.8c0,2.7,0.3,8.5,0.7,12.2l0,0c0,0.1,0,0.2,0,0.3c0,0.1,0,0.3,0,0.4c0,0.1,0,0.2,0,0.4
			c0,0.1,0,0.2,0,0.4c0,0.1,0,0.3,0.1,0.4c0,0.1,0,0.2,0,0.2c0,0.2,0.1,0.4,0.1,0.5c0.5,2.5,3,4.1,3,4.1s0,0.2,0,0.7c0,0,0,0,0,0
			c0,1.1-0.1,3.6-0.2,7.2c-2.3,0.8-6.3,2.4-8.3,4.8c-1.6,2-2.3,4.2-2.6,5.8c-0.2,1.2-0.2,2-0.2,2l10.9-4
			C152.8,184.9,152.8,186.2,152.7,187.5z M281.4,122.9c0,0-0.1-0.1-0.1-0.1c0-0.1-0.1-0.1-0.1-0.2
			C281.3,122.7,281.4,122.8,281.4,122.9z M279.9,120.3c-0.1-0.1-0.1-0.2-0.2-0.3c-0.1-0.1-0.1-0.2-0.2-0.3
			C279.6,119.9,279.8,120.1,279.9,120.3z M216.7,379.5C216.8,379.5,216.8,379.5,216.7,379.5C216.7,379.5,216.7,379.5,216.7,379.5z
			 M151.6,122.8c0,0-0.1,0.1-0.1,0.1c0.1-0.1,0.1-0.2,0.2-0.3C151.7,122.6,151.7,122.7,151.6,122.8z M153.1,120.3
			c0.1-0.2,0.2-0.4,0.3-0.6c-0.1,0.1-0.1,0.2-0.2,0.3C153.2,120.1,153.2,120.2,153.1,120.3z"/>
		<g id="XMLID_85_">
			<path id="XMLID_369_" class="st44" d="M267.5,250.5c0-9.9-2.1-61-2.5-77c-0.3-12.2-0.6-20.4-0.6-20.4s2.5-1.5,3-4.1
				c0.5-2.5,1-11.2,1-14.7c0-2-0.5-13.4-0.9-22.8c-8.4-16.8-23.6-28.1-35.6-43.1c-0.8-1-1.6-2-2.5-3c-1.1-0.3-2.3-0.5-3.6-0.7
				c-9.4-1.7-18.9-1.8-24.3-1.7c-5.5-0.1-15.5,0-24.9,1.7c-1.2,0.2-2.4,0.5-3.6,0.7c-0.9,1-1.8,1.9-2.5,3
				c-12.1,15-27.3,26.2-35.6,43.1c-0.4,9.4-0.9,20.8-0.9,22.8c0,3.6,0.5,12.2,1,14.7c0.5,2.5,3,4.1,3,4.1s-0.2,8.2-0.6,20.4
				c-0.4,16.1-2.5,67.1-2.5,77c0,6.6,3.1,18.4,3.1,18.4l-4.1,16.8l0.5,41.7c0,0,3.6,10.2,10.2,19.8c6.6,9.7,17.7,12.4,27.5,15
				c8.9,2.3,22.8,3.3,29.4,3.3c0,0,0,0,0,0c0.1,0,0.1,0,0,0c6.6,0,19.9-1,28.8-3.3c9.8-2.6,20.9-5.3,27.5-15
				c6.6-9.7,10.2-19.8,10.2-19.8l0.5-41.7l-4.1-16.8C264.4,269,267.5,257.1,267.5,250.5z M201.5,365.5
				C201.5,365.5,201.4,365.5,201.5,365.5C201.6,365.5,201.5,365.5,201.5,365.5z"/>
			<path id="XMLID_366_" class="st45" d="M267.5,250.5c0-9.9-2.1-61-2.5-77c-0.3-12.2-0.6-20.4-0.6-20.4s2.5-1.5,3-4.1
				c0.5-2.5,1-11.2,1-14.7c0-2-0.5-13.4-0.9-22.8c-8.4-16.8-23.6-28.1-35.6-43.1c-0.8-1-1.6-2-2.5-3c-1.1-0.3-2.3-0.5-3.6-0.7
				c-9.4-1.7-18.9-1.8-24.3-1.7c-5.5-0.1-15.5,0-24.9,1.7c-1.2,0.2-2.4,0.5-3.6,0.7c-0.9,1-1.8,1.9-2.5,3
				c-12.1,15-27.3,26.2-35.6,43.1c-0.4,9.4-0.9,20.8-0.9,22.8c0,3.6,0.5,12.2,1,14.7c0.5,2.5,3,4.1,3,4.1s-0.2,8.2-0.6,20.4
				c-0.4,16.1-2.5,67.1-2.5,77c0,6.6,3.1,18.4,3.1,18.4l-4.1,16.8l0.5,41.7c0,0,3.6,10.2,10.2,19.8c6.6,9.7,17.7,12.4,27.5,15
				c8.9,2.3,22.8,3.3,29.4,3.3c0,0,0,0,0,0c0.1,0,0.1,0,0,0c6.6,0,19.9-1,28.8-3.3c9.8-2.6,20.9-5.3,27.5-15
				c6.6-9.7,10.2-19.8,10.2-19.8l0.5-41.7l-4.1-16.8C264.4,269,267.5,257.1,267.5,250.5z M201.5,365.5
				C201.5,365.5,201.4,365.5,201.5,365.5C201.6,365.5,201.5,365.5,201.5,365.5z"/>
			<path id="XMLID_365_" class="st46" d="M145.4,260.3c0,0,0.1,1,0.2,2.7C145.6,262,145.6,261.1,145.4,260.3L145.4,260.3z"/>
			<path id="XMLID_364_" class="st47" d="M144.6,245.2c0.4,4.4,0.8,7.7,0.8,7.7l9.1,0.6c0,0,0.1-2.9,0.2-7.1L144.6,245.2z"/>
			<path id="XMLID_363_" class="st45" d="M137.8,251.7c-1-22.8,0.9-45.5-0.6-68.1c-0.7,20.3-2.1,55.2-2.2,65.6"/>
			<path id="XMLID_362_" class="st45" d="M144.6,245.2c-0.1-0.7-0.1-1.3-0.2-2.1c-0.4-5.4-0.8-90.2-0.8-90.2l0.2-4c0,0,0,0,0-0.1
				c-0.4-1.9-1.2-4.1-3.1-4.5c-1.1-0.2-2.1,0.2-3.1,0.7c-1,0.4-2,0.9-3,1.5c0.1,1.1,0.2,2,0.3,2.6c0.5,2.5,3,4.1,3,4.1
				s-0.2,8.2-0.6,20.4c-0.1,2.6-0.2,6-0.3,10.1c1.5,22.6-0.4,45.4,0.6,68.1c0.5,0.2,1,0.4,1.6,0.6c2,0.5,4.1,0.2,6-0.5
				C145.1,250.5,144.9,248.1,144.6,245.2z"/>
			<radialGradient id="XMLID_7_" cx="171.548" cy="102.3477" r="37.8696" gradientUnits="userSpaceOnUse">
				<stop  offset="0" style="stop-color:#000000"/>
				<stop  offset="8.606588e-02" style="stop-color:#0B0B0B"/>
				<stop  offset="0.2368" style="stop-color:#282828"/>
				<stop  offset="0.4345" style="stop-color:#575757"/>
				<stop  offset="0.6714" style="stop-color:#999999"/>
				<stop  offset="0.9389" style="stop-color:#EBEBEB"/>
				<stop  offset="1" style="stop-color:#FFFFFF"/>
			</radialGradient>
			<path id="XMLID_361_" style="fill:url(#XMLID_7_);stroke:#000000;stroke-miterlimit:10;" d="M173.1,65.5
				c-11.8,2.8-17.7,7.5-21.3,10.4c-1.1,0.9-2.1,1.9-3.1,3c-4.6,6.7-8.2,13.4-7.6,21.4c0.2,0.2,0.4,0.2,0.7,0.3
				c8.4-11.3,19.6-20.6,28.8-32.1C171.3,67.5,172.2,66.5,173.1,65.5z"/>
			<path id="XMLID_360_" class="st49" d="M148.6,78.9c-7.2,7.7-13.1,19.9-13.1,19.9s-0.3,5.8-0.6,12.8c1.9-3.9,4.3-7.5,6.8-11
				c-0.3,0-0.5-0.1-0.7-0.3C140.4,92.4,144,85.6,148.6,78.9z"/>
			<path id="XMLID_359_" class="st50" d="M150.7,155.2c0,0-1.2-4.9-1.2-8c0-3.1-0.2-6.6-0.2-6.6l-1.2-0.4c0,0-1.9-1.9-2.7-9.9
				c-0.6-6.5,0.5-28,1-35.6c-4.4,5.2-8.5,10.6-11.6,16.8c-0.4,9.4-0.9,20.8-0.9,22.8c0,3.6,0.5,12.2,1,14.7c0.5,2.5,3,4.1,3,4.1
				s0,0.2,0,0.7c0.7-0.4,1.4-0.8,2-0.9c1.4-0.2,3.7,0,3.7,0l0.2-4.3c0,0,0.4-2.3,1.2-1c0.8,1.4,2.1,10.1,2.1,10.1L150.7,155.2z"/>
			<path id="XMLID_358_" class="st51" d="M156.9,136c-4.5,2.5-7.5,4.6-7.5,4.6s0.2,3.5,0.2,6.6c0,3.1,1.2,8,1.2,8l0,0
				c0.3-0.1,0.5-0.1,0.9-0.1C151.3,148.3,154.1,142,156.9,136z"/>
			<path id="XMLID_357_" class="st51" d="M155.2,226.8c0.2-10.3-0.4-23.5-1-29.2c-0.6-5.6-7-39.9-7-39.9s-1.4-8.8-2.1-10.1
				c-0.8-1.4-1.2,1-1.2,1l-0.2,4.3c0,0,0.4,84.8,0.8,90.2c0.1,0.7,0.1,1.4,0.2,2.1l10.1,1.1C154.9,240.7,155.1,232.7,155.2,226.8z"
				/>
			<linearGradient id="XMLID_8_" gradientUnits="userSpaceOnUse" x1="146.635" y1="208.694" x2="157.246" y2="208.2424">
				<stop  offset="0" style="stop-color:#000000"/>
				<stop  offset="8.606588e-02" style="stop-color:#0B0B0B"/>
				<stop  offset="0.2368" style="stop-color:#282828"/>
				<stop  offset="0.4345" style="stop-color:#575757"/>
				<stop  offset="0.6714" style="stop-color:#999999"/>
				<stop  offset="0.9389" style="stop-color:#EBEBEB"/>
				<stop  offset="1" style="stop-color:#FFFFFF"/>
			</linearGradient>
			<path id="XMLID_356_" style="fill:url(#XMLID_8_);stroke:#000000;stroke-miterlimit:10;" d="M153.6,246.2
				c0.1-4.7,0.2-14.8,0.4-20.2c0.2-7.2-1-25.9-1.4-30c-0.4-4.1-4.1-25.3-4.1-25.3l-3.3,0.4l0.6,74.1L153.6,246.2z"/>
			<g id="XMLID_351_">
				<path id="XMLID_355_" class="st50" d="M137.4,271.6l-3.4,14.2l0.5,37.1c1,2.7,2.6,5.1,4.3,7.4
					C137.9,301.8,137.6,283.4,137.4,271.6z"/>
				<path id="XMLID_354_" class="st50" d="M134.4,322.8l0.1,4.5c0,0,1.5,4.4,4.4,10.1c-0.1-2.5-0.1-4.9-0.2-7.2
					C137,327.9,135.5,325.5,134.4,322.8z"/>
				<path id="XMLID_353_" class="st53" d="M137.5,251.4l0.3,0.3C137.8,251.7,137.6,250.3,137.5,251.4z"/>
				<path id="XMLID_352_" class="st45" d="M134.9,250.5c0,4.6,1.5,11.6,2.4,15.6c-0.1-10.1,0-13.6,0.1-14.7l-2.5-2.8
					C135,249.3,134.9,250,134.9,250.5z"/>
			</g>
			<path id="XMLID_350_" class="st51" d="M145.4,252.9c0,0-0.2,10.3,1,18.9s7.2,31.9,7.2,31.9l1-50.2L145.4,252.9z"/>
			<path id="XMLID_349_" class="st46" d="M145.5,260.3L145.5,260.3c-0.1-0.1,0,0.9,0.1,2.6C145.6,262,145.6,261.1,145.5,260.3z"/>
			<linearGradient id="XMLID_9_" gradientUnits="userSpaceOnUse" x1="148.387" y1="274.841" x2="160.8041" y2="274.1637">
				<stop  offset="0" style="stop-color:#000000"/>
				<stop  offset="8.606588e-02" style="stop-color:#0B0B0B"/>
				<stop  offset="0.2368" style="stop-color:#282828"/>
				<stop  offset="0.4345" style="stop-color:#575757"/>
				<stop  offset="0.6714" style="stop-color:#999999"/>
				<stop  offset="0.9389" style="stop-color:#EBEBEB"/>
				<stop  offset="1" style="stop-color:#FFFFFF"/>
			</linearGradient>
			<path id="XMLID_348_" style="fill:url(#XMLID_9_);stroke:#000000;stroke-miterlimit:10;" d="M147.6,258.1l5.1-0.2
				c0,0,1-0.4,1,1.6s0,18.3-0.2,22.6c-0.1,2.6-0.3,6.4-0.4,9c0,0.5-0.7,0.5-0.8,0.1c-1-4.6-2.9-13.5-3.5-17.2
				C146.6,259.1,147.6,258.1,147.6,258.1z"/>
			<path id="XMLID_347_" class="st55" d="M141.2,326c0,0,1.7-2.2,2.5-1.7c0.8,0.5,1.9,3.2,4.2,6.9c2.4,3.7,14.9,21,14.9,21
				s-9-2.7-13.2-6.3c-4.2-3.6-6.9-9.5-7.5-13.5C141.7,328.4,141.2,326,141.2,326z"/>
			<path id="XMLID_346_" class="st47" d="M250.9,155.2c0.3-6.8-2.5-13.1-5.3-19.2c-4.4-2.5-10.3-5.4-16.1-7.1
				c-11.7-3.5-28-2.7-28-2.7s-16.9-0.7-28.6,2.7c-5.8,1.7-11.6,4.6-16.1,7.1c-2.8,6-5.6,12.3-5.3,19.2c-0.3,0-0.6,0-0.9,0.1
				l7.2,39.5c0,0,15.7-2.2,26-2.5c10.2-0.2,17.6,0,17.6,0s6.8-0.2,17.1,0c10.2,0.2,26,2.5,26,2.5l7.2-39.5
				C251.5,155.2,251.2,155.2,250.9,155.2z"/>
			<path id="XMLID_345_" class="st46" d="M164.3,354l-1.4-1.7c0,0,1.7-1.6,2.7-2.2c1-0.6,1.2-0.7,1.2-0.7"/>
			<line id="XMLID_344_" class="st46" x1="153.9" y1="339.6" x2="161.4" y2="339.5"/>
			<path id="XMLID_343_" class="st51" d="M126.7,173.7l14.6-5.3v-1.9l-14.3,5.2C126.7,172.9,126.7,173.7,126.7,173.7z"/>
			<path id="XMLID_342_" class="st47" d="M149.8,171.2l-2.6-13.4l-7.7,2.8c0,0-7.1,1.8-10,5.3c-1.6,2-2.3,4.2-2.6,5.8l14.3-5.2v-0.6
				h2.5v6L149.8,171.2z"/>
			<path id="XMLID_341_" class="st46" d="M257,260.3c0,0-0.1,1-0.2,2.7C256.9,262,256.9,261.1,257,260.3L257,260.3z"/>
			<path id="XMLID_340_" class="st47" d="M257.8,245.2c-0.4,4.4-0.8,7.7-0.8,7.7l-9.1,0.6c0,0-0.1-2.9-0.2-7.1L257.8,245.2z"/>
			<path id="XMLID_339_" class="st45" d="M264.7,251.7c1-22.8-0.9-45.5,0.6-68.1c0.7,20.3,2.1,55.2,2.2,65.6"/>
			<path id="XMLID_338_" class="st45" d="M257.8,245.2c0.1-0.7,0.1-1.3,0.2-2.1c0.4-5.4,0.8-90.2,0.8-90.2l-0.2-4c0,0,0,0,0-0.1
				c0.4-1.9,1.2-4.1,3.1-4.5c1.1-0.2,2.1,0.2,3.1,0.7c1,0.4,2,0.9,3,1.5c-0.1,1.1-0.2,2-0.3,2.6c-0.5,2.5-3,4.1-3,4.1
				s0.2,8.2,0.6,20.4c0.1,2.6,0.2,6,0.3,10.1c-1.5,22.6,0.4,45.4-0.6,68.1c-0.5,0.2-1,0.4-1.6,0.6c-2,0.5-4.1,0.2-6-0.5
				C257.3,250.5,257.6,248.1,257.8,245.2z"/>
			
				<radialGradient id="XMLID_10_" cx="819.0974" cy="102.3477" r="37.8696" gradientTransform="matrix(-1 0 0 1 1050.0199 0)" gradientUnits="userSpaceOnUse">
				<stop  offset="0" style="stop-color:#000000"/>
				<stop  offset="8.606588e-02" style="stop-color:#0B0B0B"/>
				<stop  offset="0.2368" style="stop-color:#282828"/>
				<stop  offset="0.4345" style="stop-color:#575757"/>
				<stop  offset="0.6714" style="stop-color:#999999"/>
				<stop  offset="0.9389" style="stop-color:#EBEBEB"/>
				<stop  offset="1" style="stop-color:#FFFFFF"/>
			</radialGradient>
			<path id="XMLID_337_" style="fill:url(#XMLID_10_);stroke:#000000;stroke-miterlimit:10;" d="M229.4,65.5
				c11.8,2.8,17.7,7.5,21.3,10.4c1.1,0.9,2.1,1.9,3.1,3c4.6,6.7,8.2,13.4,7.6,21.4c-0.2,0.2-0.4,0.2-0.7,0.3
				c-8.4-11.3-19.6-20.6-28.8-32.1C231.2,67.5,230.3,66.5,229.4,65.5z"/>
			<path id="XMLID_336_" class="st49" d="M253.8,78.9C261,86.6,267,98.8,267,98.8s0.3,5.8,0.6,12.8c-1.9-3.9-4.3-7.5-6.8-11
				c0.3,0,0.5-0.1,0.7-0.3C262,92.4,258.5,85.6,253.8,78.9z"/>
			<path id="XMLID_335_" class="st50" d="M251.8,155.2c0,0,1.2-4.9,1.2-8c0-3.1,0.2-6.6,0.2-6.6l1.2-0.4c0,0,1.9-1.9,2.7-9.9
				c0.6-6.5-0.5-28-1-35.6c4.4,5.2,8.5,10.6,11.6,16.8c0.4,9.4,0.9,20.8,0.9,22.8c0,3.6-0.5,12.2-1,14.7c-0.5,2.5-3,4.1-3,4.1
				s0,0.2,0,0.7c-0.7-0.4-1.4-0.8-2-0.9c-1.4-0.2-3.7,0-3.7,0l-0.2-4.3c0,0-0.4-2.3-1.2-1c-0.8,1.4-2.1,10.1-2.1,10.1L251.8,155.2z"
				/>
			<path id="XMLID_334_" class="st51" d="M245.6,136c4.5,2.5,7.5,4.6,7.5,4.6s-0.2,3.5-0.2,6.6c0,3.1-1.2,8-1.2,8l0,0
				c-0.3-0.1-0.5-0.1-0.9-0.1C251.2,148.3,248.4,142,245.6,136z"/>
			<path id="XMLID_333_" class="st51" d="M247.3,226.8c-0.2-10.3,0.4-23.5,1-29.2c0.6-5.6,7-39.9,7-39.9s1.4-8.8,2.1-10.1
				c0.8-1.4,1.2,1,1.2,1l0.2,4.3c0,0-0.4,84.8-0.8,90.2c-0.1,0.7-0.1,1.4-0.2,2.1l-10.1,1.1C247.6,240.7,247.4,232.7,247.3,226.8z"
				/>
			
				<linearGradient id="XMLID_11_" gradientUnits="userSpaceOnUse" x1="794.1844" y1="208.694" x2="804.7954" y2="208.2424" gradientTransform="matrix(-1 0 0 1 1050.0199 0)">
				<stop  offset="0" style="stop-color:#000000"/>
				<stop  offset="8.606588e-02" style="stop-color:#0B0B0B"/>
				<stop  offset="0.2368" style="stop-color:#282828"/>
				<stop  offset="0.4345" style="stop-color:#575757"/>
				<stop  offset="0.6714" style="stop-color:#999999"/>
				<stop  offset="0.9389" style="stop-color:#EBEBEB"/>
				<stop  offset="1" style="stop-color:#FFFFFF"/>
			</linearGradient>
			<path id="XMLID_332_" style="fill:url(#XMLID_11_);stroke:#000000;stroke-miterlimit:10;" d="M248.8,246.2
				c-0.1-4.7-0.2-14.8-0.4-20.2c-0.2-7.2,1-25.9,1.4-30c0.4-4.1,4.1-25.3,4.1-25.3l3.3,0.4l-0.6,74.1L248.8,246.2z"/>
			<g id="XMLID_327_">
				<path id="XMLID_331_" class="st50" d="M265.1,271.6l3.4,14.2l-0.5,37.1c-1,2.7-2.6,5.1-4.3,7.4
					C264.5,301.8,264.9,283.4,265.1,271.6z"/>
				<path id="XMLID_330_" class="st50" d="M268.1,322.8l-0.1,4.5c0,0-1.5,4.4-4.4,10.1c0.1-2.5,0.1-4.9,0.2-7.2
					C265.5,327.9,267,325.5,268.1,322.8z"/>
				<path id="XMLID_329_" class="st53" d="M265,251.4l-0.3,0.3C264.7,251.7,264.9,250.3,265,251.4z"/>
				<path id="XMLID_328_" class="st45" d="M267.5,250.5c0,4.6-1.5,11.6-2.4,15.6c0.1-10.1,0-13.6-0.1-14.7l2.5-2.8
					C267.5,249.3,267.5,250,267.5,250.5z"/>
			</g>
			<path id="XMLID_326_" class="st51" d="M257,252.9c0,0,0.2,10.3-1,18.9c-1.2,8.6-7.2,31.9-7.2,31.9l-1-50.2L257,252.9z"/>
			<path id="XMLID_325_" class="st46" d="M256.9,260.3L256.9,260.3c0.1-0.1,0,0.9-0.1,2.6C256.9,262,256.9,261.1,256.9,260.3z"/>
			
				<linearGradient id="XMLID_12_" gradientUnits="userSpaceOnUse" x1="795.9364" y1="274.841" x2="808.3535" y2="274.1637" gradientTransform="matrix(-1 0 0 1 1050.0199 0)">
				<stop  offset="0" style="stop-color:#000000"/>
				<stop  offset="8.606588e-02" style="stop-color:#0B0B0B"/>
				<stop  offset="0.2368" style="stop-color:#282828"/>
				<stop  offset="0.4345" style="stop-color:#575757"/>
				<stop  offset="0.6714" style="stop-color:#999999"/>
				<stop  offset="0.9389" style="stop-color:#EBEBEB"/>
				<stop  offset="1" style="stop-color:#FFFFFF"/>
			</linearGradient>
			<path id="XMLID_324_" style="fill:url(#XMLID_12_);stroke:#000000;stroke-miterlimit:10;" d="M254.9,258.1l-5.1-0.2
				c0,0-1-0.4-1,1.6s0,18.3,0.2,22.6c0.1,2.6,0.3,6.4,0.4,9c0,0.5,0.7,0.5,0.8,0.1c1-4.6,2.9-13.5,3.5-17.2
				C255.9,259.1,254.9,258.1,254.9,258.1z"/>
			<path id="XMLID_323_" class="st59" d="M256.1,271.7c-1.2,8.6-7.2,31.9-7.2,31.9s-3.7,1.6-6.4,2.1c-2.7,0.6-13,1.4-19.8,2.1
				c-5.2,0.6-16.3,0.6-21.1,0.6c-4.8,0-16.4,0-21.6-0.6c-6.8-0.8-17.1-1.6-19.8-2.1c-2.7-0.6-6.4-2.1-6.4-2.1s-6-23.3-7.2-31.9
				c-0.1-0.8-0.2-1.6-0.3-2.3c0.7,8.8,1.8,21.8,2.6,28.2c1.4,10.3,3.5,30.9,8.6,39.7c5.1,8.8,14.2,19.4,29.2,20.4
				c7.3,0.5,12.3,0.7,15,0.7c2.7-0.1,7.1-0.3,14.5-0.7c15-1,24.1-11.7,29.2-20.4c5.1-8.8,7.2-29.4,8.6-39.7
				c0.8-6.4,1.9-19.4,2.6-28.2C256.3,270.2,256.2,271,256.1,271.7z"/>
			<linearGradient id="XMLID_13_" gradientUnits="userSpaceOnUse" x1="154.5873" y1="336.056" x2="247.8832" y2="336.056">
				<stop  offset="0" style="stop-color:#000000"/>
				<stop  offset="8.606588e-02" style="stop-color:#0B0B0B"/>
				<stop  offset="0.2368" style="stop-color:#282828"/>
				<stop  offset="0.4345" style="stop-color:#575757"/>
				<stop  offset="0.6714" style="stop-color:#999999"/>
				<stop  offset="0.9389" style="stop-color:#EBEBEB"/>
				<stop  offset="1" style="stop-color:#FFFFFF"/>
			</linearGradient>
			<path id="XMLID_322_" style="fill:url(#XMLID_13_);stroke:#000000;stroke-miterlimit:10;" d="M231,328.5
				c-9.8,2.5-22.2,2.8-29.5,2.7c-7.2,0.1-20.2-0.2-30-2.7c-14.6-3.7-16.9-14-16.9-14c0,0.8,3.1,19.4,7,25.5
				c3.9,6,10.3,15.6,23.7,16.5c8.4,0.6,13.7,0.9,16.2,1.1c2.5-0.1,7.3-0.4,15.7-1.1c13.4-1,19.8-10.5,23.7-16.5c3.9-6,7-24.7,7-25.5
				C247.9,314.5,245.5,324.8,231,328.5z"/>
			<path id="XMLID_321_" class="st55" d="M261.2,326c0,0-1.7-2.2-2.5-1.7c-0.8,0.5-1.9,3.2-4.2,6.9c-2.4,3.7-14.9,21-14.9,21
				s9-2.7,13.2-6.3c4.2-3.6,6.9-9.5,7.5-13.5C260.7,328.4,261.2,326,261.2,326z"/>
			<path id="XMLID_304_" class="st50" d="M260.4,335.3c0,0-1.2,4.9-4.2,8.6c-3,3.7-8,6.1-11.3,7.8c-3.4,1.7-6.6,2.2-6.6,2.2
				s-12.2,6.3-17.6,6.6c-4.1,0.3-14.3,0.8-19.1,1.1c-4.8-0.3-15.5-0.8-19.6-1.1c-5.4-0.3-17.6-6.6-17.6-6.6s-3.2-0.5-6.6-2.2
				c-3.4-1.7-8.3-4.1-11.3-7.8s-4.2-8.6-4.2-8.6l-3.4-5.1l0.1,7.1c1.5,3,3.5,6.5,5.8,9.8c6.6,9.7,17.7,12.4,27.5,15
				c8.9,2.3,22.8,3.3,29.4,3.3c0,0,0,0,0,0c0.1,0,0.1,0,0,0c6.6,0,19.9-1,28.8-3.3c9.8-2.6,20.9-5.3,27.5-15
				c2.3-3.4,4.2-6.8,5.8-9.8l0.1-7.1L260.4,335.3z M201.5,365.5C201.5,365.5,201.4,365.5,201.5,365.5
				C201.6,365.5,201.5,365.5,201.5,365.5z"/>
			<path id="XMLID_292_" class="st46" d="M238.2,354l1.4-1.7c0,0-1.7-1.6-2.7-2.2c-1-0.6-1.2-0.7-1.2-0.7"/>
			<line id="XMLID_291_" class="st46" x1="248.5" y1="339.6" x2="241.1" y2="339.5"/>
			<linearGradient id="XMLID_14_" gradientUnits="userSpaceOnUse" x1="153.4477" y1="162.3577" x2="249.0229" y2="162.3577">
				<stop  offset="0" style="stop-color:#000000"/>
				<stop  offset="8.606588e-02" style="stop-color:#0B0B0B"/>
				<stop  offset="0.2368" style="stop-color:#282828"/>
				<stop  offset="0.4345" style="stop-color:#575757"/>
				<stop  offset="0.6714" style="stop-color:#999999"/>
				<stop  offset="0.9389" style="stop-color:#EBEBEB"/>
				<stop  offset="1" style="stop-color:#FFFFFF"/>
			</linearGradient>
			<path id="XMLID_290_" class="st15" d="M245.3,140.6c0,0-10.7-3.2-19-4.2c-8.1-1-24.3-1.7-24.8-1.7c0,0,0,0,0,0c0,0,0,0,0,0
				c-0.5,0-17.2,0.8-25.3,1.7c-8.2,1-19,4.2-19,4.2l-3.7,8.7l6,40.7c0,0,15.5-3.2,23.2-3.5c7.7-0.2,18.8-0.2,18.8-0.2
				s10.6,0,18.3,0.2c7.7,0.2,23.2,3.5,23.2,3.5l6-40.7L245.3,140.6z"/>
			<radialGradient id="XMLID_15_" cx="216.1622" cy="66.6266" r="33.6323" gradientUnits="userSpaceOnUse">
				<stop  offset="0" style="stop-color:#000000"/>
				<stop  offset="8.606588e-02" style="stop-color:#0B0B0B"/>
				<stop  offset="0.2368" style="stop-color:#282828"/>
				<stop  offset="0.4345" style="stop-color:#575757"/>
				<stop  offset="0.6714" style="stop-color:#999999"/>
				<stop  offset="0.9389" style="stop-color:#EBEBEB"/>
				<stop  offset="1" style="stop-color:#FFFFFF"/>
			</radialGradient>
			<polygon id="XMLID_288_" style="fill:url(#XMLID_15_);stroke:#000000;stroke-miterlimit:10;" points="201.2,64.6 197.6,68.2 
				201.2,72.3 204.9,68.2 			"/>
			<path id="XMLID_282_" class="st51" d="M275.8,173.7l-14.6-5.3v-1.9l14.3,5.2C275.8,172.9,275.8,173.7,275.8,173.7z"/>
			<path id="XMLID_273_" class="st47" d="M252.7,171.2l2.6-13.4l7.7,2.8c0,0,7.1,1.8,10,5.3c1.6,2,2.3,4.2,2.6,5.8l-14.3-5.2v-0.6
				h-2.5v6L252.7,171.2z"/>
			<path id="XMLID_271_" class="st63" d="M242.8,305.7c-0.1,0-0.2,0.1-0.4,0.1c-2.7,0.6-13,1.4-19.8,2.1c-5.2,0.6-16.3,0.6-21.1,0.6
				c-4.8,0-16.4,0-21.6-0.6c-6.8-0.8-17.1-1.6-19.8-2.1c-0.1,0-0.2-0.1-0.4-0.1c-0.3,2.7-0.2,5.4,1.5,7.4c1,1.1,2.4,1.8,3.8,2.4
				c11.3,4.8,24.1,6,36.5,6.2c12.4-0.2,24.7-1.3,35.9-6.2c1.4-0.6,2.8-1.3,3.8-2.4C243,311.1,243.1,308.4,242.8,305.7z"/>
		</g>
	</g>
</g>
</svg>
